<svg width="62" height="57" viewBox="0 0 62 57" fill="none" xmlns="http://www.w3.org/2000/svg">
<path d="M39.933 55.4688H12.3332C12.1999 55.4688 12.0665 55.3433 12.0665 55.2178V26.4773C12.0665 26.3518 12.1999 26.2263 12.3332 26.2263H39.933C40.0663 26.2263 40.1996 26.3518 40.1996 26.4773V55.2178C40.1996 55.3433 40.0663 55.4688 39.933 55.4688Z" stroke="#073465" stroke-width="2" stroke-miterlimit="10"/>
<path d="M12.0665 36.0154H40.1996" stroke="#073465" stroke-width="2" stroke-miterlimit="10"/>
<path d="M12.0665 46.0557H40.1996" stroke="#073465" stroke-width="2" stroke-miterlimit="10"/>
<path d="M17.5332 51.0757H20.4665" stroke="#073465" stroke-width="2" stroke-miterlimit="10"/>
<path d="M24.4658 51.0762H27.3991" stroke="#073465" stroke-width="2" stroke-miterlimit="10"/>
<path d="M31.5333 51.0762H34.3333" stroke="#073465" stroke-width="2" stroke-miterlimit="10"/>
<path d="M53.6664 40.1573V35.2626H57.6664C57.7997 35.2626 57.933 35.1371 57.7997 35.0116L48.7331 26.4773C48.7331 26.4773 48.5998 26.4773 48.4664 26.4773L43.2665 31.372" stroke="#073465" stroke-width="2" stroke-miterlimit="10"/>
<path d="M53.6659 55.4688V41.4124" stroke="#073465" stroke-width="2" stroke-miterlimit="10" stroke-dasharray="1.99 1.99"/>
<path d="M46.9989 55.4687V36.3921" stroke="#073465" stroke-width="2" stroke-miterlimit="10" stroke-dasharray="1.99 1.99"/>
<path d="M9.93272 20.0766C8.99939 18.3196 8.46606 16.3115 8.46606 14.1779C8.46606 10.5383 10.0661 7.27521 12.5994 4.89063C15.1327 2.50605 18.5993 1 22.4659 1C26.3326 1 29.7992 2.50605 32.3325 4.89063C34.8658 7.27521 36.4658 10.5383 36.4658 14.1779" stroke="#073465" stroke-width="2" stroke-miterlimit="10"/>
<path d="M58.8669 29.2384C60.2002 27.3559 61.0002 25.0968 61.0002 22.7122C61.0002 16.186 55.4003 10.9148 48.467 10.9148H36.2004" stroke="#073465" stroke-width="2" stroke-miterlimit="10"/>
<path d="M9.13326 31.9995C4.7333 31.9995 1 28.6109 1 24.3437C1 20.0766 4.59997 16.688 9.13326 16.688" stroke="#073465" stroke-width="2" stroke-miterlimit="10"/>
</svg>
