<svg width="67" height="69" viewBox="0 0 67 69" fill="none" xmlns="http://www.w3.org/2000/svg">
<g filter="url(#filter0_d_397_2812)">
<path d="M34.2544 55.7193C34.4175 55.5657 34.6448 55.4744 34.8878 55.4741H49.8182C50.0612 55.4744 50.2885 55.5657 50.4516 55.7193C50.6138 55.8719 50.6989 56.0722 50.6991 56.2743V59.8354C50.6989 60.0374 50.6138 60.2377 50.4516 60.3904C50.2885 60.5439 50.0613 60.6352 49.8184 60.6355C49.8182 60.6355 49.8181 60.6355 49.818 60.6355H34.888C34.8879 60.6355 34.8877 60.6355 34.8876 60.6355C34.6447 60.6352 34.4175 60.5439 34.2544 60.3904C34.0923 60.2378 34.0071 60.0376 34.0068 59.8356V56.2741C34.0071 56.0721 34.0922 55.8719 34.2544 55.7193ZM37.1445 59.2697H38.5434C38.868 59.2697 39.1849 59.1486 39.4231 58.9244C39.6623 58.6993 39.8029 58.3872 39.8029 58.0549C39.8029 57.7226 39.6623 57.4105 39.4231 57.1853C39.1849 56.9611 38.868 56.84 38.5434 56.84H37.1445C36.8199 56.84 36.5029 56.9611 36.2647 57.1853C36.0255 57.4105 35.885 57.7226 35.885 58.0549C35.885 58.3872 36.0255 58.6993 36.2647 58.9244C36.5029 59.1486 36.8199 59.2697 37.1445 59.2697Z" fill="#073465" stroke="#073465"/>
<path d="M34.2544 40.1782C34.4175 40.0247 34.6448 39.9334 34.8878 39.9331H49.8182C50.0611 39.9334 50.2884 40.0247 50.4516 40.1782L50.7943 39.8142L50.4516 40.1782C50.6137 40.3309 50.6989 40.5312 50.6991 40.7333V44.2943C50.6989 44.4964 50.6138 44.6967 50.4516 44.8493C50.2885 45.0029 50.0612 45.0941 49.8183 45.0945C49.8182 45.0945 49.8181 45.0945 49.818 45.0945H34.888C34.8879 45.0945 34.8877 45.0945 34.8876 45.0945C34.6447 45.0941 34.4175 45.0029 34.2544 44.8493C34.0923 44.6967 34.0071 44.4965 34.0068 44.2946V40.733C34.0071 40.531 34.0923 40.3308 34.2544 40.1782ZM37.1445 43.7287H38.5434C38.868 43.7287 39.1849 43.6076 39.4231 43.3834C39.6623 43.1582 39.8029 42.8461 39.8029 42.5138C39.8029 42.1815 39.6623 41.8694 39.4231 41.6442C39.1849 41.42 38.868 41.2989 38.5434 41.2989H37.1445C36.8199 41.2989 36.5029 41.42 36.2647 41.6442C36.0255 41.8694 35.885 42.1815 35.885 42.5138C35.885 42.8461 36.0255 43.1582 36.2647 43.3834C36.5029 43.6076 36.8199 43.7287 37.1445 43.7287Z" fill="#073465" stroke="#073465"/>
<path d="M34.8878 47.7034C34.6448 47.7037 34.4175 47.7949 34.2544 47.9485C34.0922 48.1011 34.0071 48.3013 34.0068 48.5033V52.0649C34.0071 52.2669 34.0923 52.4671 34.2544 52.6197C34.4175 52.7732 34.6447 52.8644 34.8876 52.8648C34.8877 52.8648 34.8879 52.8648 34.888 52.8648H49.818C49.8181 52.8648 49.8182 52.8648 49.8184 52.8648C50.0613 52.8644 50.2885 52.7732 50.4516 52.6196C50.6138 52.467 50.6989 52.2667 50.6991 52.0646V48.5036C50.6989 48.3015 50.6138 48.1012 50.4516 47.9485M34.8878 47.7034L50.4516 47.9485M34.8878 47.7034H49.8182C50.0611 47.7037 50.2884 47.7949 50.4516 47.9485M34.8878 47.7034L50.7943 47.5844L50.4516 47.9485M37.1445 51.499H38.5434C38.868 51.499 39.1849 51.3779 39.4231 51.1537C39.6623 50.9285 39.8029 50.6164 39.8029 50.2841C39.8029 49.9518 39.6623 49.6397 39.4231 49.4145C39.1849 49.1903 38.868 49.0692 38.5434 49.0692H37.1445C36.8199 49.0692 36.5029 49.1903 36.2647 49.4145C36.0255 49.6397 35.885 49.9518 35.885 50.2841C35.885 50.6164 36.0255 50.9285 36.2647 51.1537C36.5029 51.3779 36.8199 51.499 37.1445 51.499Z" fill="#073465" stroke="#073465"/>
<path d="M11.0699 55.719C11.2331 55.5655 11.4604 55.4742 11.7033 55.4739H26.6338C26.8767 55.4742 27.104 55.5655 27.2672 55.719C27.4293 55.8717 27.5145 56.072 27.5147 56.2741V59.8351C27.5144 60.0372 27.4293 60.2375 27.2672 60.3902C27.104 60.5437 26.8768 60.6349 26.6339 60.6353C26.6338 60.6353 26.6337 60.6353 26.6335 60.6353H11.7035C11.7034 60.6353 11.7033 60.6353 11.7032 60.6353C11.4603 60.6349 11.233 60.5437 11.0699 60.3902C10.9078 60.2376 10.8227 60.0374 10.8224 59.8354V56.2738C10.8227 56.0719 10.9078 55.8717 11.0699 55.719ZM13.9599 59.2695H15.359C15.6836 59.2695 16.0005 59.1484 16.2387 58.9242C16.4779 58.699 16.6185 58.3869 16.6185 58.0546C16.6185 57.7223 16.4779 57.4102 16.2387 57.185C16.0005 56.9608 15.6836 56.8397 15.359 56.8397H13.9599C13.6353 56.8397 13.3184 56.9608 13.0802 57.185C12.841 57.4102 12.7005 57.7223 12.7005 58.0546C12.7005 58.3869 12.841 58.699 13.0802 58.9242C13.3184 59.1484 13.6353 59.2695 13.9599 59.2695Z" fill="#073465" stroke="#073465"/>
<path d="M11.0699 47.9488C11.2331 47.7952 11.4604 47.7039 11.7033 47.7036H26.6338C26.8767 47.7039 27.104 47.7952 27.2672 47.9488C27.4293 48.1014 27.5145 48.3017 27.5147 48.5038V52.0649C27.5144 52.2669 27.4293 52.4672 27.2672 52.6199C27.104 52.7734 26.8768 52.8647 26.6339 52.865C26.6338 52.865 26.6337 52.865 26.6335 52.865H11.7035C11.7034 52.865 11.7033 52.865 11.7032 52.865C11.4603 52.8647 11.233 52.7734 11.0699 52.6199C10.9078 52.4673 10.8227 52.2671 10.8224 52.0651V48.5036C10.8227 48.3016 10.9078 48.1014 11.0699 47.9488ZM13.9599 51.4992H15.359C15.6836 51.4992 16.0005 51.3781 16.2387 51.1539C16.4779 50.9288 16.6185 50.6167 16.6185 50.2844C16.6185 49.952 16.4779 49.6399 16.2387 49.4148C16.0005 49.1906 15.6836 49.0695 15.359 49.0695H13.9599C13.6353 49.0695 13.3184 49.1906 13.0802 49.4148C12.841 49.6399 12.7005 49.952 12.7005 50.2844C12.7005 50.6167 12.841 50.9288 13.0802 51.1539C13.3184 51.3781 13.6353 51.4992 13.9599 51.4992Z" fill="#073465" stroke="#073465"/>
<path d="M11.0699 40.1785C11.2331 40.0249 11.4604 39.9337 11.7033 39.9333H26.6338C26.8767 39.9337 27.104 40.0249 27.2672 40.1785C27.4293 40.3311 27.5144 40.5315 27.5147 40.7335V44.2946C27.5144 44.4966 27.4293 44.6969 27.2672 44.8496C27.104 45.0031 26.8768 45.0944 26.6339 45.0947C26.6338 45.0947 26.6337 45.0947 26.6335 45.0947H11.7035C11.7034 45.0947 11.7033 45.0947 11.7032 45.0947C11.4603 45.0944 11.233 45.0031 11.0699 44.8496C10.9078 44.697 10.8227 44.4968 10.8224 44.2948V40.7333C10.8227 40.5313 10.9078 40.3311 11.0699 40.1785ZM13.9599 43.7289H15.359C15.6836 43.7289 16.0005 43.6078 16.2387 43.3836C16.4779 43.1584 16.6185 42.8463 16.6185 42.514C16.6185 42.1817 16.4779 41.8696 16.2387 41.6445C16.0005 41.4202 15.6836 41.2992 15.359 41.2992H13.9599C13.6353 41.2992 13.3184 41.4202 13.0802 41.6445C12.841 41.8696 12.7005 42.1817 12.7005 42.514C12.7005 42.8463 12.841 43.1584 13.0802 43.3836C13.3184 43.6078 13.6353 43.7289 13.9599 43.7289Z" fill="#073465" stroke="#073465"/>
<path d="M15.6348 17.3654H15.6342H15.6325H15.6319L15.588 17.3653L15.5865 17.3653C14.6278 17.3656 13.6781 17.5444 12.7917 17.8922C11.9052 18.2399 11.0988 18.7501 10.4195 19.3946C9.74012 20.0393 9.20127 20.8058 8.83558 21.6508C8.46987 22.4958 8.28499 23.4018 8.29246 24.3162C8.29271 24.3479 8.28637 24.38 8.27296 24.4112C8.2595 24.4424 8.23877 24.4729 8.21038 24.5C8.18193 24.5272 8.14646 24.5503 8.10524 24.5667C8.0644 24.583 8.01964 24.5919 7.9737 24.5924H7.96961C7.96959 24.5924 7.96957 24.5924 7.96955 24.5924C7.87502 24.5924 7.78988 24.5569 7.73137 24.5022C7.67386 24.4485 7.64739 24.3821 7.6469 24.3197L7.6469 24.3196C7.63895 23.3413 7.83675 22.3704 8.22975 21.4627C8.62278 20.5548 9.20372 19.7271 9.94065 19.0281C10.6777 18.3291 11.556 17.7728 12.5258 17.3926C13.4956 17.0125 14.5367 16.8164 15.5889 16.8164L15.6351 16.8165L15.6357 16.8165C15.6821 16.8166 15.7275 16.8253 15.7689 16.8415L15.9511 16.3759L15.7689 16.8415C15.8102 16.8577 15.8459 16.8806 15.8746 16.9077C15.9032 16.9347 15.9242 16.9651 15.9379 16.9963C15.9515 17.0274 15.9581 17.0596 15.958 17.0913C15.958 17.123 15.9513 17.1552 15.9376 17.1863C15.9238 17.2175 15.9027 17.2478 15.874 17.2748L16.2117 17.6345L15.874 17.2748C15.8453 17.3018 15.8095 17.3247 15.7681 17.3408C15.7266 17.3569 15.6812 17.3655 15.6348 17.3654Z" fill="#073465" stroke="#073465"/>
<mask id="path-8-inside-1_397_2812" fill="white">
<path d="M16.7255 35.8902C16.9616 36.3088 17.3144 36.6591 17.746 36.9033C18.1776 37.1476 18.6717 37.2767 19.1753 37.2767C19.6789 37.2767 20.173 37.1476 20.6046 36.9033C21.0362 36.6591 21.3891 36.3088 21.6252 35.8902H39.9276C40.1638 36.3088 40.5166 36.6591 40.9482 36.9033C41.3797 37.1476 41.8738 37.2767 42.3774 37.2767C42.881 37.2767 43.3751 37.1476 43.8067 36.9033C44.2383 36.6591 44.5911 36.3088 44.8273 35.8902H46.8593C53.7562 35.8902 59.4084 30.6712 59.459 24.2561C59.4715 22.7093 59.1585 21.1754 58.5382 19.7429C57.9179 18.3104 57.0026 17.0076 55.8449 15.9096C54.6873 14.8117 53.3102 13.9402 51.7931 13.3455C50.276 12.7508 48.6488 12.4447 47.0054 12.4447H46.9603C46.2673 12.4439 45.5887 12.2575 45.0041 11.907C44.4195 11.5566 43.953 11.0567 43.6592 10.4658C42.5587 8.23575 40.8041 6.34818 38.602 5.02546C36.3999 3.70275 33.842 3 31.2298 3C28.6175 3 26.0597 3.70275 23.8576 5.02546C21.6555 6.34818 19.9008 8.23575 18.8004 10.4658C18.5063 11.057 18.0395 11.557 17.4544 11.9075C16.8694 12.2579 16.1904 12.4443 15.4969 12.4447H15.4541C13.8107 12.4447 12.1835 12.7508 10.6664 13.3455C9.14927 13.9402 7.77218 14.8116 6.61451 15.9096C5.45684 17.0076 4.54148 18.3103 3.92119 19.7428C3.30089 21.1754 2.98794 22.7093 3.00036 24.2561C3.05099 30.6712 8.7031 35.8902 15.6001 35.8902H16.7255ZM19.1753 35.7277C18.9519 35.7277 18.7335 35.6653 18.5477 35.5485C18.3619 35.4316 18.2171 35.2655 18.1316 35.0712C18.0461 34.8769 18.0237 34.6631 18.0673 34.4568C18.1109 34.2505 18.2186 34.061 18.3766 33.9123C18.5346 33.7636 18.7359 33.6623 18.955 33.6213C19.1742 33.5803 19.4014 33.6013 19.6078 33.6818C19.8142 33.7623 19.9907 33.8986 20.1148 34.0735C20.2389 34.2484 20.3052 34.454 20.3051 34.6644C20.3048 34.9463 20.1856 35.2166 19.9738 35.416C19.762 35.6153 19.4748 35.7274 19.1753 35.7277ZM39.6256 34.3412H21.9272C21.8616 33.8507 21.6497 33.3876 21.3161 33.0057C20.9825 32.6238 20.5408 32.3386 20.0422 32.1831V27.0168C20.0427 26.5574 20.2368 26.1169 20.5819 25.792C20.9271 25.4672 21.395 25.2844 21.8831 25.2839H39.689C40.1771 25.2844 40.645 25.4672 40.9901 25.792C41.3353 26.1169 41.5294 26.5574 41.5299 27.0168V32.177C41.0268 32.33 40.5804 32.6149 40.2432 32.9982C39.9059 33.3816 39.6917 33.8474 39.6256 34.3412ZM42.3775 35.7277C42.154 35.7277 41.9356 35.6654 41.7498 35.5485C41.564 35.4317 41.4192 35.2656 41.3337 35.0712C41.2482 34.8769 41.2258 34.6631 41.2694 34.4568C41.313 34.2505 41.4206 34.061 41.5786 33.9123C41.7366 33.7636 41.938 33.6623 42.1571 33.6213C42.3763 33.5803 42.6034 33.6013 42.8099 33.6818C43.0163 33.7623 43.1927 33.8986 43.3169 34.0735C43.441 34.2484 43.5072 34.454 43.5072 34.6644C43.5069 34.9463 43.3877 35.2166 43.1759 35.4159C42.9641 35.6153 42.677 35.7274 42.3775 35.7277H42.3775ZM4.64589 24.2447C4.63504 22.9022 4.9066 21.571 5.4449 20.3277C5.98319 19.0844 6.77759 17.9537 7.78229 17.0008C8.78699 16.0479 9.98212 15.2916 11.2988 14.7754C12.6155 14.2593 14.0277 13.9936 15.454 13.9936H15.4991C16.5056 13.9923 17.4909 13.7212 18.3398 13.2121C19.1886 12.703 19.8659 11.977 20.2924 11.1188C21.2607 9.15635 22.8046 7.49528 24.7424 6.33129C26.6801 5.16729 28.9309 4.54886 31.2297 4.54886C33.5284 4.54886 35.7792 5.16729 37.7169 6.33129C39.6547 7.49528 41.1987 9.15635 42.1669 11.1188C42.5931 11.9767 43.27 12.7027 44.1185 13.2118C44.9669 13.7209 45.9518 13.9921 46.958 13.9936H47.0054C48.4317 13.9936 49.8439 14.2593 51.1606 14.7754C52.4772 15.2916 53.6724 16.0479 54.6771 17.0008C55.6818 17.9537 56.4762 19.0844 57.0145 20.3277C57.5528 21.571 57.8243 22.9022 57.8135 24.2447C57.7696 29.812 52.8556 34.3412 46.8593 34.3412H45.1292C45.0621 33.8392 44.8418 33.3662 44.4951 32.9795C44.1483 32.5929 43.69 32.3091 43.1754 32.1625V27.0168C43.1744 26.1467 42.8067 25.3125 42.1531 24.6973C41.4995 24.0821 40.6133 23.736 39.689 23.735H31.6088V19.389C32.5242 19.1982 33.3325 18.696 33.8787 17.9787C34.425 17.2615 34.6707 16.3796 34.5687 15.5024C34.4667 14.6251 34.0243 13.8141 33.3262 13.225C32.6281 12.6359 31.7236 12.3101 30.786 12.3101C29.8485 12.3101 28.9439 12.6359 28.2459 13.225C27.5478 13.8141 27.1053 14.6251 27.0034 15.5024C26.9014 16.3796 27.1471 17.2615 27.6933 17.9787C28.2396 18.696 29.0479 19.1982 29.9633 19.389V23.735H21.8831C20.9587 23.736 20.0725 24.0821 19.4189 24.6973C18.7653 25.3126 18.3977 26.1467 18.3966 27.0168V32.1574C17.8777 32.3013 17.4147 32.5846 17.0643 32.9725C16.7138 33.3604 16.4912 33.836 16.4236 34.3412H15.6C9.60375 34.3412 4.68977 29.812 4.64589 24.2447Z"/>
</mask>
<path d="M16.7255 35.8902C16.9616 36.3088 17.3144 36.6591 17.746 36.9033C18.1776 37.1476 18.6717 37.2767 19.1753 37.2767C19.6789 37.2767 20.173 37.1476 20.6046 36.9033C21.0362 36.6591 21.3891 36.3088 21.6252 35.8902H39.9276C40.1638 36.3088 40.5166 36.6591 40.9482 36.9033C41.3797 37.1476 41.8738 37.2767 42.3774 37.2767C42.881 37.2767 43.3751 37.1476 43.8067 36.9033C44.2383 36.6591 44.5911 36.3088 44.8273 35.8902H46.8593C53.7562 35.8902 59.4084 30.6712 59.459 24.2561C59.4715 22.7093 59.1585 21.1754 58.5382 19.7429C57.9179 18.3104 57.0026 17.0076 55.8449 15.9096C54.6873 14.8117 53.3102 13.9402 51.7931 13.3455C50.276 12.7508 48.6488 12.4447 47.0054 12.4447H46.9603C46.2673 12.4439 45.5887 12.2575 45.0041 11.907C44.4195 11.5566 43.953 11.0567 43.6592 10.4658C42.5587 8.23575 40.8041 6.34818 38.602 5.02546C36.3999 3.70275 33.842 3 31.2298 3C28.6175 3 26.0597 3.70275 23.8576 5.02546C21.6555 6.34818 19.9008 8.23575 18.8004 10.4658C18.5063 11.057 18.0395 11.557 17.4544 11.9075C16.8694 12.2579 16.1904 12.4443 15.4969 12.4447H15.4541C13.8107 12.4447 12.1835 12.7508 10.6664 13.3455C9.14927 13.9402 7.77218 14.8116 6.61451 15.9096C5.45684 17.0076 4.54148 18.3103 3.92119 19.7428C3.30089 21.1754 2.98794 22.7093 3.00036 24.2561C3.05099 30.6712 8.7031 35.8902 15.6001 35.8902H16.7255ZM19.1753 35.7277C18.9519 35.7277 18.7335 35.6653 18.5477 35.5485C18.3619 35.4316 18.2171 35.2655 18.1316 35.0712C18.0461 34.8769 18.0237 34.6631 18.0673 34.4568C18.1109 34.2505 18.2186 34.061 18.3766 33.9123C18.5346 33.7636 18.7359 33.6623 18.955 33.6213C19.1742 33.5803 19.4014 33.6013 19.6078 33.6818C19.8142 33.7623 19.9907 33.8986 20.1148 34.0735C20.2389 34.2484 20.3052 34.454 20.3051 34.6644C20.3048 34.9463 20.1856 35.2166 19.9738 35.416C19.762 35.6153 19.4748 35.7274 19.1753 35.7277ZM39.6256 34.3412H21.9272C21.8616 33.8507 21.6497 33.3876 21.3161 33.0057C20.9825 32.6238 20.5408 32.3386 20.0422 32.1831V27.0168C20.0427 26.5574 20.2368 26.1169 20.5819 25.792C20.9271 25.4672 21.395 25.2844 21.8831 25.2839H39.689C40.1771 25.2844 40.645 25.4672 40.9901 25.792C41.3353 26.1169 41.5294 26.5574 41.5299 27.0168V32.177C41.0268 32.33 40.5804 32.6149 40.2432 32.9982C39.9059 33.3816 39.6917 33.8474 39.6256 34.3412ZM42.3775 35.7277C42.154 35.7277 41.9356 35.6654 41.7498 35.5485C41.564 35.4317 41.4192 35.2656 41.3337 35.0712C41.2482 34.8769 41.2258 34.6631 41.2694 34.4568C41.313 34.2505 41.4206 34.061 41.5786 33.9123C41.7366 33.7636 41.938 33.6623 42.1571 33.6213C42.3763 33.5803 42.6034 33.6013 42.8099 33.6818C43.0163 33.7623 43.1927 33.8986 43.3169 34.0735C43.441 34.2484 43.5072 34.454 43.5072 34.6644C43.5069 34.9463 43.3877 35.2166 43.1759 35.4159C42.9641 35.6153 42.677 35.7274 42.3775 35.7277H42.3775ZM4.64589 24.2447C4.63504 22.9022 4.9066 21.571 5.4449 20.3277C5.98319 19.0844 6.77759 17.9537 7.78229 17.0008C8.78699 16.0479 9.98212 15.2916 11.2988 14.7754C12.6155 14.2593 14.0277 13.9936 15.454 13.9936H15.4991C16.5056 13.9923 17.4909 13.7212 18.3398 13.2121C19.1886 12.703 19.8659 11.977 20.2924 11.1188C21.2607 9.15635 22.8046 7.49528 24.7424 6.33129C26.6801 5.16729 28.9309 4.54886 31.2297 4.54886C33.5284 4.54886 35.7792 5.16729 37.7169 6.33129C39.6547 7.49528 41.1987 9.15635 42.1669 11.1188C42.5931 11.9767 43.27 12.7027 44.1185 13.2118C44.9669 13.7209 45.9518 13.9921 46.958 13.9936H47.0054C48.4317 13.9936 49.8439 14.2593 51.1606 14.7754C52.4772 15.2916 53.6724 16.0479 54.6771 17.0008C55.6818 17.9537 56.4762 19.0844 57.0145 20.3277C57.5528 21.571 57.8243 22.9022 57.8135 24.2447C57.7696 29.812 52.8556 34.3412 46.8593 34.3412H45.1292C45.0621 33.8392 44.8418 33.3662 44.4951 32.9795C44.1483 32.5929 43.69 32.3091 43.1754 32.1625V27.0168C43.1744 26.1467 42.8067 25.3125 42.1531 24.6973C41.4995 24.0821 40.6133 23.736 39.689 23.735H31.6088V19.389C32.5242 19.1982 33.3325 18.696 33.8787 17.9787C34.425 17.2615 34.6707 16.3796 34.5687 15.5024C34.4667 14.6251 34.0243 13.8141 33.3262 13.225C32.6281 12.6359 31.7236 12.3101 30.786 12.3101C29.8485 12.3101 28.9439 12.6359 28.2459 13.225C27.5478 13.8141 27.1053 14.6251 27.0034 15.5024C26.9014 16.3796 27.1471 17.2615 27.6933 17.9787C28.2396 18.696 29.0479 19.1982 29.9633 19.389V23.735H21.8831C20.9587 23.736 20.0725 24.0821 19.4189 24.6973C18.7653 25.3126 18.3977 26.1467 18.3966 27.0168V32.1574C17.8777 32.3013 17.4147 32.5846 17.0643 32.9725C16.7138 33.3604 16.4912 33.836 16.4236 34.3412H15.6C9.60375 34.3412 4.68977 29.812 4.64589 24.2447Z" fill="#073465" stroke="#073465" stroke-width="2" mask="url(#path-8-inside-1_397_2812)"/>
</g>
<defs>
<filter id="filter0_d_397_2812" x="0" y="0" width="66.4594" height="68.1355" filterUnits="userSpaceOnUse" color-interpolation-filters="sRGB">
<feFlood flood-opacity="0" result="BackgroundImageFix"/>
<feColorMatrix in="SourceAlpha" type="matrix" values="0 0 0 0 0 0 0 0 0 0 0 0 0 0 0 0 0 0 127 0" result="hardAlpha"/>
<feOffset dx="2" dy="2"/>
<feGaussianBlur stdDeviation="2.5"/>
<feComposite in2="hardAlpha" operator="out"/>
<feColorMatrix type="matrix" values="0 0 0 0 0 0 0 0 0 0 0 0 0 0 0 0 0 0 0.47 0"/>
<feBlend mode="normal" in2="BackgroundImageFix" result="effect1_dropShadow_397_2812"/>
<feBlend mode="normal" in="SourceGraphic" in2="effect1_dropShadow_397_2812" result="shape"/>
</filter>
</defs>
</svg>
