<svg width="65" height="62" viewBox="0 0 65 62" fill="none" xmlns="http://www.w3.org/2000/svg">
<g filter="url(#filter0_d_397_2825)">
<mask id="path-1-inside-1_397_2825" fill="white">
<path d="M4.83333 49.5939V52.1824C4.83333 52.6587 4.42175 53.0453 3.91666 53.0453H3V54.771H3.91666C5.43283 54.771 6.66666 53.6096 6.66666 52.1824V50.2315L15.2842 47.7353C16.2935 48.8699 17.8078 49.5939 19.4999 49.5939C22.5332 49.5939 24.9999 47.2719 24.9999 44.4168C24.9999 42.5056 23.8908 40.8368 22.2499 39.9403V32.3369C22.645 32.3369 22.9943 32.0996 23.1199 31.7467L24.7442 27.1598H44.2499C44.7559 27.1598 45.1665 26.7741 45.1665 26.2969V25.4341H47.9165C48.4225 25.4341 48.8332 25.0484 48.8332 24.5712V22.8455H51.5832C52.0892 22.8455 52.4998 22.4598 52.4998 21.9827V15.0799C52.4998 14.6027 52.0892 14.217 51.5832 14.217H48.8332V12.8486L57.7312 4.47288C57.9934 4.22611 58.0722 3.85508 57.9302 3.53238C57.7881 3.20967 57.4535 3 57.0832 3H7.58332C5.05608 3 3 4.93537 3 7.31425V22.8455C3 25.2244 5.05608 27.1598 7.58332 27.1598H14.2557L15.88 31.7467C16.0056 32.0996 16.3549 32.3369 16.75 32.3369V39.9403C16.2476 40.2147 15.7975 40.5616 15.4116 40.9654H6.66666V39.2397C6.66666 37.8125 5.43283 36.6511 3.91666 36.6511H3V38.3768H3.91666C4.42175 38.3768 4.83333 38.7634 4.83333 39.2397V41.8282V49.5939ZM19.4999 47.8682C18.2029 47.8682 17.0671 47.2271 16.4154 46.2667C16.4145 46.2659 16.4154 46.265 16.4145 46.2641C16.3347 46.1468 16.2678 46.0243 16.2045 45.9009C16.1917 45.8767 16.1752 45.8543 16.1633 45.8301C16.122 45.7456 16.0936 45.6575 16.0597 45.5704C16.0185 45.4608 15.979 45.3504 15.9488 45.2356C15.9295 45.1631 15.9121 45.0898 15.8975 45.0156C15.8608 44.8206 15.8333 44.6221 15.8333 44.4168C15.8333 44.2062 15.8608 44.0017 15.8993 43.8016C15.9185 43.704 15.9479 43.6083 15.9772 43.5125C16.0029 43.4245 16.0304 43.3365 16.0634 43.2519C16.1147 43.1225 16.1715 42.9939 16.2403 42.8697C16.2577 42.8377 16.276 42.8075 16.2944 42.7765C16.3815 42.6298 16.4759 42.4848 16.5859 42.3477C16.5877 42.3451 16.5886 42.3425 16.5905 42.3407C16.9672 41.8731 17.4595 41.4943 18.0379 41.2561C18.9756 40.8696 20.027 40.8696 20.9648 41.2561C22.2582 41.7894 23.1666 43.0034 23.1666 44.4168C23.1666 46.3202 21.5221 47.8682 19.4999 47.8682ZM46.9999 23.7084H45.1665V13.3542H46.9999V15.0799V21.9827V23.7084ZM50.6665 15.9427V21.1198H48.8332V15.9427H50.6665ZM7.58332 4.7257H54.8703L47.537 11.6285H44.2499H24.0833C23.8404 11.6285 23.6066 11.7191 23.4352 11.8813L16.3705 18.5313H4.83333V16.8056H16.75V15.0799H4.83333V13.3542H16.75V11.6285H4.83333V7.31425C4.83333 5.88709 6.06716 4.7257 7.58332 4.7257ZM4.83333 22.8455V20.257H16.75C16.9929 20.257 17.2266 20.1664 17.398 20.0042L24.4628 13.3542H43.3332V24.5712V25.4341H24.0833H14.9166H7.58332C6.06716 25.4341 4.83333 24.2727 4.83333 22.8455ZM16.188 27.1598H22.8119L21.5899 30.6112H21.3333H17.6666H17.4109L16.188 27.1598ZM18.5833 39.313V32.3369H20.4166V39.313C20.3928 39.3096 20.368 39.3104 20.3442 39.307C20.0683 39.2673 19.7878 39.2397 19.4999 39.2397C19.2121 39.2397 18.9316 39.2673 18.6557 39.307C18.6319 39.3104 18.6071 39.3096 18.5833 39.313ZM14.3208 42.6911C14.2218 42.9534 14.1439 43.2234 14.0907 43.503C14.0843 43.5349 14.0806 43.5669 14.0751 43.5979C14.0302 43.8654 14 44.1381 14 44.4168C14 44.7101 14.032 44.9966 14.0825 45.277C14.087 45.3012 14.0898 45.3253 14.0944 45.3495C14.1512 45.6403 14.2346 45.9216 14.341 46.1942C14.3419 46.1968 14.3428 46.2003 14.3437 46.2029L6.66666 48.4256V42.6911H14.3208Z"/>
</mask>
<path d="M4.83333 49.5939V52.1824C4.83333 52.6587 4.42175 53.0453 3.91666 53.0453H3V54.771H3.91666C5.43283 54.771 6.66666 53.6096 6.66666 52.1824V50.2315L15.2842 47.7353C16.2935 48.8699 17.8078 49.5939 19.4999 49.5939C22.5332 49.5939 24.9999 47.2719 24.9999 44.4168C24.9999 42.5056 23.8908 40.8368 22.2499 39.9403V32.3369C22.645 32.3369 22.9943 32.0996 23.1199 31.7467L24.7442 27.1598H44.2499C44.7559 27.1598 45.1665 26.7741 45.1665 26.2969V25.4341H47.9165C48.4225 25.4341 48.8332 25.0484 48.8332 24.5712V22.8455H51.5832C52.0892 22.8455 52.4998 22.4598 52.4998 21.9827V15.0799C52.4998 14.6027 52.0892 14.217 51.5832 14.217H48.8332V12.8486L57.7312 4.47288C57.9934 4.22611 58.0722 3.85508 57.9302 3.53238C57.7881 3.20967 57.4535 3 57.0832 3H7.58332C5.05608 3 3 4.93537 3 7.31425V22.8455C3 25.2244 5.05608 27.1598 7.58332 27.1598H14.2557L15.88 31.7467C16.0056 32.0996 16.3549 32.3369 16.75 32.3369V39.9403C16.2476 40.2147 15.7975 40.5616 15.4116 40.9654H6.66666V39.2397C6.66666 37.8125 5.43283 36.6511 3.91666 36.6511H3V38.3768H3.91666C4.42175 38.3768 4.83333 38.7634 4.83333 39.2397V41.8282V49.5939ZM19.4999 47.8682C18.2029 47.8682 17.0671 47.2271 16.4154 46.2667C16.4145 46.2659 16.4154 46.265 16.4145 46.2641C16.3347 46.1468 16.2678 46.0243 16.2045 45.9009C16.1917 45.8767 16.1752 45.8543 16.1633 45.8301C16.122 45.7456 16.0936 45.6575 16.0597 45.5704C16.0185 45.4608 15.979 45.3504 15.9488 45.2356C15.9295 45.1631 15.9121 45.0898 15.8975 45.0156C15.8608 44.8206 15.8333 44.6221 15.8333 44.4168C15.8333 44.2062 15.8608 44.0017 15.8993 43.8016C15.9185 43.704 15.9479 43.6083 15.9772 43.5125C16.0029 43.4245 16.0304 43.3365 16.0634 43.2519C16.1147 43.1225 16.1715 42.9939 16.2403 42.8697C16.2577 42.8377 16.276 42.8075 16.2944 42.7765C16.3815 42.6298 16.4759 42.4848 16.5859 42.3477C16.5877 42.3451 16.5886 42.3425 16.5905 42.3407C16.9672 41.8731 17.4595 41.4943 18.0379 41.2561C18.9756 40.8696 20.027 40.8696 20.9648 41.2561C22.2582 41.7894 23.1666 43.0034 23.1666 44.4168C23.1666 46.3202 21.5221 47.8682 19.4999 47.8682ZM46.9999 23.7084H45.1665V13.3542H46.9999V15.0799V21.9827V23.7084ZM50.6665 15.9427V21.1198H48.8332V15.9427H50.6665ZM7.58332 4.7257H54.8703L47.537 11.6285H44.2499H24.0833C23.8404 11.6285 23.6066 11.7191 23.4352 11.8813L16.3705 18.5313H4.83333V16.8056H16.75V15.0799H4.83333V13.3542H16.75V11.6285H4.83333V7.31425C4.83333 5.88709 6.06716 4.7257 7.58332 4.7257ZM4.83333 22.8455V20.257H16.75C16.9929 20.257 17.2266 20.1664 17.398 20.0042L24.4628 13.3542H43.3332V24.5712V25.4341H24.0833H14.9166H7.58332C6.06716 25.4341 4.83333 24.2727 4.83333 22.8455ZM16.188 27.1598H22.8119L21.5899 30.6112H21.3333H17.6666H17.4109L16.188 27.1598ZM18.5833 39.313V32.3369H20.4166V39.313C20.3928 39.3096 20.368 39.3104 20.3442 39.307C20.0683 39.2673 19.7878 39.2397 19.4999 39.2397C19.2121 39.2397 18.9316 39.2673 18.6557 39.307C18.6319 39.3104 18.6071 39.3096 18.5833 39.313ZM14.3208 42.6911C14.2218 42.9534 14.1439 43.2234 14.0907 43.503C14.0843 43.5349 14.0806 43.5669 14.0751 43.5979C14.0302 43.8654 14 44.1381 14 44.4168C14 44.7101 14.032 44.9966 14.0825 45.277C14.087 45.3012 14.0898 45.3253 14.0944 45.3495C14.1512 45.6403 14.2346 45.9216 14.341 46.1942C14.3419 46.1968 14.3428 46.2003 14.3437 46.2029L6.66666 48.4256V42.6911H14.3208Z" fill="#073465"/>
<path d="M4.83333 49.5939V52.1824C4.83333 52.6587 4.42175 53.0453 3.91666 53.0453H3V54.771H3.91666C5.43283 54.771 6.66666 53.6096 6.66666 52.1824V50.2315L15.2842 47.7353C16.2935 48.8699 17.8078 49.5939 19.4999 49.5939C22.5332 49.5939 24.9999 47.2719 24.9999 44.4168C24.9999 42.5056 23.8908 40.8368 22.2499 39.9403V32.3369C22.645 32.3369 22.9943 32.0996 23.1199 31.7467L24.7442 27.1598H44.2499C44.7559 27.1598 45.1665 26.7741 45.1665 26.2969V25.4341H47.9165C48.4225 25.4341 48.8332 25.0484 48.8332 24.5712V22.8455H51.5832C52.0892 22.8455 52.4998 22.4598 52.4998 21.9827V15.0799C52.4998 14.6027 52.0892 14.217 51.5832 14.217H48.8332V12.8486L57.7312 4.47288C57.9934 4.22611 58.0722 3.85508 57.9302 3.53238C57.7881 3.20967 57.4535 3 57.0832 3H7.58332C5.05608 3 3 4.93537 3 7.31425V22.8455C3 25.2244 5.05608 27.1598 7.58332 27.1598H14.2557L15.88 31.7467C16.0056 32.0996 16.3549 32.3369 16.75 32.3369V39.9403C16.2476 40.2147 15.7975 40.5616 15.4116 40.9654H6.66666V39.2397C6.66666 37.8125 5.43283 36.6511 3.91666 36.6511H3V38.3768H3.91666C4.42175 38.3768 4.83333 38.7634 4.83333 39.2397V41.8282V49.5939ZM19.4999 47.8682C18.2029 47.8682 17.0671 47.2271 16.4154 46.2667C16.4145 46.2659 16.4154 46.265 16.4145 46.2641C16.3347 46.1468 16.2678 46.0243 16.2045 45.9009C16.1917 45.8767 16.1752 45.8543 16.1633 45.8301C16.122 45.7456 16.0936 45.6575 16.0597 45.5704C16.0185 45.4608 15.979 45.3504 15.9488 45.2356C15.9295 45.1631 15.9121 45.0898 15.8975 45.0156C15.8608 44.8206 15.8333 44.6221 15.8333 44.4168C15.8333 44.2062 15.8608 44.0017 15.8993 43.8016C15.9185 43.704 15.9479 43.6083 15.9772 43.5125C16.0029 43.4245 16.0304 43.3365 16.0634 43.2519C16.1147 43.1225 16.1715 42.9939 16.2403 42.8697C16.2577 42.8377 16.276 42.8075 16.2944 42.7765C16.3815 42.6298 16.4759 42.4848 16.5859 42.3477C16.5877 42.3451 16.5886 42.3425 16.5905 42.3407C16.9672 41.8731 17.4595 41.4943 18.0379 41.2561C18.9756 40.8696 20.027 40.8696 20.9648 41.2561C22.2582 41.7894 23.1666 43.0034 23.1666 44.4168C23.1666 46.3202 21.5221 47.8682 19.4999 47.8682ZM46.9999 23.7084H45.1665V13.3542H46.9999V15.0799V21.9827V23.7084ZM50.6665 15.9427V21.1198H48.8332V15.9427H50.6665ZM7.58332 4.7257H54.8703L47.537 11.6285H44.2499H24.0833C23.8404 11.6285 23.6066 11.7191 23.4352 11.8813L16.3705 18.5313H4.83333V16.8056H16.75V15.0799H4.83333V13.3542H16.75V11.6285H4.83333V7.31425C4.83333 5.88709 6.06716 4.7257 7.58332 4.7257ZM4.83333 22.8455V20.257H16.75C16.9929 20.257 17.2266 20.1664 17.398 20.0042L24.4628 13.3542H43.3332V24.5712V25.4341H24.0833H14.9166H7.58332C6.06716 25.4341 4.83333 24.2727 4.83333 22.8455ZM16.188 27.1598H22.8119L21.5899 30.6112H21.3333H17.6666H17.4109L16.188 27.1598ZM18.5833 39.313V32.3369H20.4166V39.313C20.3928 39.3096 20.368 39.3104 20.3442 39.307C20.0683 39.2673 19.7878 39.2397 19.4999 39.2397C19.2121 39.2397 18.9316 39.2673 18.6557 39.307C18.6319 39.3104 18.6071 39.3096 18.5833 39.313ZM14.3208 42.6911C14.2218 42.9534 14.1439 43.2234 14.0907 43.503C14.0843 43.5349 14.0806 43.5669 14.0751 43.5979C14.0302 43.8654 14 44.1381 14 44.4168C14 44.7101 14.032 44.9966 14.0825 45.277C14.087 45.3012 14.0898 45.3253 14.0944 45.3495C14.1512 45.6403 14.2346 45.9216 14.341 46.1942C14.3419 46.1968 14.3428 46.2003 14.3437 46.2029L6.66666 48.4256V42.6911H14.3208Z" stroke="#073465" stroke-width="2" mask="url(#path-1-inside-1_397_2825)"/>
</g>
<defs>
<filter id="filter0_d_397_2825" x="0" y="0" width="65" height="61.771" filterUnits="userSpaceOnUse" color-interpolation-filters="sRGB">
<feFlood flood-opacity="0" result="BackgroundImageFix"/>
<feColorMatrix in="SourceAlpha" type="matrix" values="0 0 0 0 0 0 0 0 0 0 0 0 0 0 0 0 0 0 127 0" result="hardAlpha"/>
<feOffset dx="2" dy="2"/>
<feGaussianBlur stdDeviation="2.5"/>
<feComposite in2="hardAlpha" operator="out"/>
<feColorMatrix type="matrix" values="0 0 0 0 0 0 0 0 0 0 0 0 0 0 0 0 0 0 0.47 0"/>
<feBlend mode="normal" in2="BackgroundImageFix" result="effect1_dropShadow_397_2825"/>
<feBlend mode="normal" in="SourceGraphic" in2="effect1_dropShadow_397_2825" result="shape"/>
</filter>
</defs>
</svg>
