<svg width="80" height="58" viewBox="0 0 80 58" fill="none" xmlns="http://www.w3.org/2000/svg">
<g filter="url(#filter0_d_397_2799)">
<path d="M10.6962 4.13724H10.1962V4.63724V37.0098C10.1962 37.0882 10.1641 37.1671 10.1007 37.2283C10.0367 37.29 9.94618 37.3277 9.84811 37.3277C9.75005 37.3277 9.65949 37.29 9.59549 37.2283C9.5321 37.1671 9.5 37.0882 9.5 37.0098V3.81789C9.5 3.73956 9.5321 3.66059 9.59549 3.59946C9.6595 3.53774 9.75005 3.5 9.84811 3.5H66.1519C66.25 3.5 66.3405 3.53773 66.4045 3.59946C66.4679 3.66059 66.5 3.73956 66.5 3.81789V37.0098C66.5 37.0882 66.4679 37.1671 66.4045 37.2283C66.3405 37.29 66.25 37.3277 66.1519 37.3277C66.0538 37.3277 65.9633 37.29 65.8993 37.2283C65.8359 37.1671 65.8038 37.0882 65.8038 37.0098V4.63724V4.13724H65.3038H10.6962Z" fill="#073465" stroke="#073465"/>
<path d="M14.862 9.14746V9.14746H14.8629L61.1371 9.14746L61.138 9.14746C61.19 9.14737 61.2409 9.15692 61.2874 9.17483L61.4672 8.70835L61.2874 9.17484C61.3339 9.19274 61.374 9.21822 61.4062 9.24828C61.4384 9.27826 61.462 9.31201 61.4773 9.3466C61.4926 9.3811 61.5 9.41674 61.5 9.45181V36.0804C61.5 36.15 61.4707 36.2243 61.406 36.2847C61.3402 36.3462 61.244 36.3862 61.1371 36.3862H14.8629C14.756 36.3862 14.6598 36.3462 14.594 36.2847C14.5293 36.2243 14.5 36.15 14.5 36.0804V9.45181C14.5 9.41674 14.5074 9.3811 14.5227 9.34661C14.538 9.31201 14.5616 9.27827 14.5938 9.24828C14.626 9.21822 14.6661 9.19274 14.7126 9.17483C14.7591 9.15692 14.81 9.14737 14.862 9.14746ZM60.2758 35.7731H60.7758V35.2731V10.2562V9.75616H60.2758H15.7242H15.2242V10.2562V35.2731V35.7731H15.7242H60.2758Z" fill="#073465" stroke="#073465"/>
<path d="M72.144 40.21L72.1449 40.21C72.1932 40.2099 72.2409 40.2191 72.2849 40.2368L72.4715 39.7729L72.2849 40.2368C72.3289 40.2545 72.3681 40.2802 72.4006 40.3117C72.4329 40.3433 72.4579 40.38 72.4747 40.4195C72.4915 40.4589 72.5 40.5008 72.5 40.5427V43.803C72.4981 45.3262 71.8766 46.7891 70.7673 47.8702C69.6575 48.9517 68.1503 49.5623 66.5755 49.5642H9.43157C7.85555 49.5642 6.34648 48.9544 5.23523 47.8726C4.12448 46.7914 3.50195 45.3275 3.5 43.8033V40.5427C3.5 40.5008 3.50847 40.4589 3.52526 40.4195C3.54207 40.38 3.56706 40.3433 3.59946 40.3117C3.63189 40.2802 3.67107 40.2545 3.7151 40.2368C3.75914 40.2191 3.80677 40.2099 3.85514 40.21V40.21H3.85601H35.2482C35.3463 40.21 35.4379 40.2481 35.5034 40.3119C35.5686 40.3754 35.6027 40.4587 35.6027 40.5427C35.6027 40.6267 35.5686 40.71 35.5034 40.7735C35.4379 40.8374 35.3463 40.8755 35.2482 40.8755H32.9788H32.4788V41.3755V42.1545V42.1549C32.4793 42.795 32.7404 43.4061 33.2005 43.8548C33.6602 44.3032 34.2809 44.5533 34.9259 44.5543H34.9266H41.081H41.0814C41.7267 44.5538 42.3479 44.3039 42.808 43.8555L42.4739 43.5127L42.808 43.8555C43.2685 43.4067 43.5299 42.7953 43.5304 42.1549V42.1545V41.3755V40.8755H43.0304H40.9279C40.8298 40.8755 40.7382 40.8374 40.6727 40.7735C40.6076 40.71 40.5734 40.6267 40.5734 40.5427C40.5734 40.4587 40.6076 40.3754 40.6727 40.3119C40.7382 40.2481 40.8298 40.21 40.9279 40.21L72.144 40.21ZM33.4788 41.3755H35.2482C35.4748 41.3755 35.6922 41.2877 35.8524 41.1316C36.0127 40.9754 36.1027 40.7636 36.1027 40.5427C36.1027 40.3219 36.0127 40.11 35.8524 39.9539C35.6922 39.7977 35.4748 39.71 35.2482 39.71H3.85601L33.4788 41.3755ZM66.5761 48.8972H66.5766C67.9546 48.8958 69.2784 48.3619 70.2566 47.4085C71.2353 46.4547 71.7882 45.1587 71.7895 43.8041V43.8036V41.3755V40.8755H71.2895H44.7424H44.2424V41.3755V42.1541C44.2421 42.5552 44.1607 42.9526 44.0026 43.3238C43.8444 43.6951 43.6124 44.0331 43.3192 44.3184L43.6679 44.6768L43.3192 44.3184C43.0259 44.6037 42.6772 44.8306 42.2926 44.9855C41.9079 45.1404 41.4953 45.2201 41.0784 45.2198H41.078L34.9242 45.2198C34.9241 45.2198 34.9239 45.2198 34.9238 45.2198C34.0825 45.2187 33.2786 44.8923 32.6877 44.3161C32.0971 43.7403 31.7675 42.9625 31.7668 42.1541V41.3755V40.8755H31.2668H4.71968H4.21968V41.3755L4.21968 43.8036L4.21968 43.8041C4.22103 45.1587 4.77389 46.4547 5.75258 47.4085C6.73084 48.3619 8.05457 48.8958 9.43263 48.8972H9.4331H66.5761Z" fill="#073465" stroke="#073465"/>
<path d="M20.7562 27.0322V27.0322H20.7571H25.2429C25.3095 27.0322 25.3744 27.0589 25.423 27.108C25.4717 27.1572 25.5 27.225 25.5 27.2968V31.4154C25.5 31.4872 25.4717 31.555 25.423 31.6042C25.3744 31.6533 25.3095 31.68 25.2429 31.68H20.7571C20.6905 31.68 20.6256 31.6533 20.577 31.6042C20.5283 31.555 20.5 31.4871 20.5 31.4154L20.5 27.2968L20.5 27.2959C20.4999 27.2606 20.5068 27.2257 20.52 27.1933C20.5333 27.1609 20.5526 27.1319 20.5766 27.1076C20.6007 27.0833 20.6289 27.0643 20.6597 27.0515C20.6904 27.0387 20.7232 27.0322 20.7562 27.0322ZM21.5142 27.5613H21.0142V28.0613V30.6495V31.1495H21.5142H24.4858H24.9858V30.6495V28.0613V27.5613H24.4858H21.5142Z" fill="#073465" stroke="#073465"/>
<path d="M28.8847 31.68L28.8839 31.68C28.8269 31.6801 28.7714 31.67 28.7211 31.6512L28.5463 32.1196L28.7211 31.6512C28.6707 31.6324 28.628 31.6059 28.5942 31.5754C28.5606 31.5451 28.5369 31.5118 28.5219 31.4789C28.5069 31.4462 28.5 31.4132 28.5 31.3814V23.5657C28.5 23.5338 28.5069 23.5009 28.5219 23.4682L28.0674 23.2597L28.5219 23.4682C28.5369 23.4353 28.5606 23.402 28.5942 23.3716C28.628 23.3412 28.6707 23.3147 28.7211 23.2959C28.7714 23.2771 28.8269 23.267 28.8839 23.2671V23.2671H28.8847H34.1169C34.2338 23.2671 34.3371 23.3096 34.406 23.3718L34.7311 23.0123L34.406 23.3718C34.4732 23.4326 34.5 23.5037 34.5 23.5657V31.3814C34.5 31.4434 34.4732 31.5145 34.406 31.5752L34.7413 31.9461L34.406 31.5752C34.3371 31.6375 34.2338 31.68 34.1169 31.68L28.8847 31.68ZM29.7678 23.8643H29.2678V24.3643V30.5814V31.0814H29.7678H33.2338H33.7338V30.5814V24.3643V23.8643H33.2338H29.7678Z" fill="#073465" stroke="#073465"/>
<path d="M38.8847 31.6797L38.8839 31.6797C38.8274 31.6798 38.7724 31.6697 38.7224 31.6508C38.6723 31.632 38.6297 31.6054 38.5958 31.5745L38.2592 31.9443L38.5958 31.5745C38.562 31.5438 38.538 31.5098 38.5225 31.4758C38.5072 31.442 38.5 31.4077 38.5 31.3742V16.9832C38.5 16.9497 38.5072 16.9154 38.5225 16.8816C38.538 16.8476 38.562 16.8136 38.5958 16.7829C38.6297 16.752 38.6723 16.7254 38.7224 16.7066C38.7724 16.6878 38.8274 16.6776 38.8839 16.6777V16.6777H38.8847H44.1169C44.1733 16.6777 44.2282 16.6879 44.2781 16.7068C44.3281 16.7256 44.3706 16.7522 44.4044 16.7831C44.4381 16.8138 44.4621 16.8478 44.4775 16.8817C44.4929 16.9155 44.5 16.9498 44.5 16.9832V31.3742C44.5 31.4396 44.4719 31.5127 44.4044 31.5743C44.3353 31.6373 44.2326 31.6797 44.1169 31.6797L38.8847 31.6797ZM39.7694 17.2901H39.2694V17.7901V30.5673V31.0673H39.7694H43.2354H43.7354V30.5673V17.7901V17.2901H43.2354H39.7694Z" fill="#073465" stroke="#073465"/>
<path d="M53.3849 21.2078C53.319 21.2834 53.2395 21.3197 53.1657 21.3255H49.8343C49.7605 21.3197 49.681 21.2834 49.6151 21.2078C49.5454 21.1277 49.5 21.0123 49.5 20.8842C49.5 20.756 49.5454 20.6406 49.6151 20.5606C49.681 20.4849 49.7605 20.4487 49.8343 20.4429H53.1657C53.2395 20.4487 53.319 20.4849 53.3849 20.5606C53.4546 20.6406 53.5 20.756 53.5 20.8842C53.5 21.0123 53.4546 21.1277 53.3849 21.2078Z" fill="#073465" stroke="#073465"/>
<path d="M51.3807 25.9044C51.309 25.9825 51.2162 26.0256 51.1221 26.032H49.8779C49.7838 26.0256 49.691 25.9825 49.6193 25.9044C49.5448 25.8233 49.5 25.7112 49.5 25.5907C49.5 25.4702 49.5448 25.3581 49.6193 25.277C49.691 25.1989 49.7838 25.1558 49.8779 25.1494H51.1221C51.2162 25.1558 51.309 25.1989 51.3807 25.277C51.4552 25.3581 51.5 25.4702 51.5 25.5907C51.5 25.7112 51.4552 25.8233 51.3807 25.9044Z" fill="#073465" stroke="#073465"/>
</g>
<defs>
<filter id="filter0_d_397_2799" x="0" y="0" width="80" height="57.0642" filterUnits="userSpaceOnUse" color-interpolation-filters="sRGB">
<feFlood flood-opacity="0" result="BackgroundImageFix"/>
<feColorMatrix in="SourceAlpha" type="matrix" values="0 0 0 0 0 0 0 0 0 0 0 0 0 0 0 0 0 0 127 0" result="hardAlpha"/>
<feOffset dx="2" dy="2"/>
<feGaussianBlur stdDeviation="2.5"/>
<feComposite in2="hardAlpha" operator="out"/>
<feColorMatrix type="matrix" values="0 0 0 0 0 0 0 0 0 0 0 0 0 0 0 0 0 0 0.47 0"/>
<feBlend mode="normal" in2="BackgroundImageFix" result="effect1_dropShadow_397_2799"/>
<feBlend mode="normal" in="SourceGraphic" in2="effect1_dropShadow_397_2799" result="shape"/>
</filter>
</defs>
</svg>
