<svg width="55" height="53" viewBox="0 0 55 53" fill="none" xmlns="http://www.w3.org/2000/svg">
<g filter="url(#filter0_d_397_2830)">
<path d="M29.1033 43.7239L29.1035 43.724C31.2488 44.4865 33.1755 44.8582 34.7458 44.8582C36.3193 44.8582 37.4672 44.487 38.1522 43.8461C38.1525 43.8458 38.1528 43.8455 38.1531 43.8452L38.4949 44.2102C38.6895 44.027 38.8969 43.8412 39.1087 43.6515C39.1528 43.6119 39.1971 43.5723 39.2415 43.5324L29.1033 43.7239ZM29.1033 43.7239C24.3967 42.0541 19.248 38.741 14.6171 34.3821L14.6171 34.382C9.9841 30.0223 6.47006 25.1782 4.69882 20.7592L4.6988 20.7592C3.89329 18.7501 3.50205 16.9501 3.50001 15.4875C3.49796 14.0195 3.88566 12.9529 4.56413 12.3142L4.56515 12.3133C4.79709 12.0937 5.03346 11.8605 5.27151 11.6255L5.29535 11.602L5.29559 11.6018C6.04769 10.8585 6.8165 10.1057 7.66063 9.54457C8.49793 8.98795 9.37433 8.64439 10.3365 8.68315L10.3371 8.68318C11.6795 8.73547 13.0524 9.51908 14.5385 11.2569L29.1033 43.7239ZM5.01411 20.6898L5.01408 20.6897C4.29543 18.8959 3.89422 17.2072 3.83611 15.7999C3.77902 14.4174 4.05041 13.1921 4.81932 12.469L5.01411 20.6898ZM5.01411 20.6898C6.78892 25.1176 10.2965 29.9201 14.8709 34.2273L14.871 34.2274M5.01411 20.6898L14.871 34.2274M14.871 34.2274C19.4463 38.5328 24.5431 41.8315 29.2376 43.497C31.1402 44.1732 32.9251 44.5475 34.4074 44.6009C35.8612 44.6533 37.1388 44.4005 37.8981 43.6866L37.8983 43.6864M14.871 34.2274L37.8983 43.6864M37.8983 43.6864C38.1089 43.4881 38.3329 43.2868 38.5683 43.0753M37.8983 43.6864L38.5683 43.0753M14.2638 11.3876L14.2641 11.3879C16.1476 13.5937 16.8962 15.1519 16.7296 16.4977C16.6455 17.1765 16.3348 17.7441 15.9245 18.2589C15.5253 18.7597 15.006 19.2408 14.4698 19.7376L14.452 19.754L14.4508 19.7551L14.0315 20.1461C14.0312 20.1464 14.0309 20.1467 14.0306 20.147C13.6944 20.4643 13.5328 20.8423 13.5397 21.3228C13.547 21.8268 13.7415 22.4686 14.1874 23.271C15.0802 24.8778 16.8871 26.9659 19.6908 29.605C21.9561 31.7373 23.8856 33.2902 25.4267 34.2334C26.5397 34.9141 27.4622 35.2786 28.1991 35.3728C28.9176 35.4647 29.4379 35.2998 29.8253 34.9345C29.8254 34.9343 29.8256 34.9341 29.8258 34.934L30.2489 34.532C30.249 34.5319 30.2492 34.5317 30.2493 34.5316C30.2729 34.5091 30.2965 34.4866 30.32 34.4641C31.3431 33.4868 32.3231 32.5508 33.6747 32.4039C35.063 32.253 36.6961 32.9371 39.0463 34.715C40.6343 35.9152 41.6134 37.1704 41.6687 38.4626C41.7102 39.4075 41.2538 40.255 40.676 40.9813C40.1019 41.7031 39.3497 42.376 38.68 42.9751L38.6605 42.9925L14.2638 11.3876ZM14.2638 11.3876C12.9785 9.88489 11.6552 8.98403 10.3216 8.93197L10.3202 8.93192M14.2638 11.3876L10.3202 8.93192M10.3202 8.93192C10.2765 8.93034 10.2343 8.93034 10.2028 8.93034L10.1998 8.93034C9.25587 8.93034 8.39736 9.35174 7.64368 9.89114M10.3202 8.93192L7.64368 9.89114M7.64368 9.89114C6.89474 10.4271 6.19482 11.1205 5.56969 11.7397M7.64368 9.89114L5.56969 11.7397M5.56969 11.7397L5.5577 11.7516M5.56969 11.7397L5.5577 11.7516M5.5577 11.7516C5.51011 11.7983 5.46303 11.8445 5.41639 11.8903C5.21058 12.0926 5.0135 12.2862 4.81952 12.4688L5.5577 11.7516ZM38.5683 43.0753C38.5985 43.0482 38.6289 43.0209 38.6595 42.9934L38.5683 43.0753ZM39.2761 34.5423C41.1324 35.9452 41.9428 37.2282 41.9982 38.4582L20.2874 29.0887C22.498 31.1696 24.3832 32.6928 25.8898 33.6144L25.6287 34.0408C25.6288 34.0409 25.6288 34.0409 25.6288 34.0409C26.1142 34.338 26.8133 34.7259 27.4966 34.9539C27.8376 35.0677 28.2021 35.1511 28.5493 35.15C28.8993 35.1489 29.2759 35.0604 29.5724 34.7813L29.5741 34.7797L29.9926 34.382L29.9935 34.3812C31.178 33.2503 32.1449 32.3494 33.4523 32.1538C34.7411 31.9611 36.5047 32.445 39.2759 34.5421L39.2761 34.5423Z" fill="#073465" stroke="#073465"/>
<path d="M42.7925 31.0812L42.7925 31.0812C41.7256 32.4009 40.4666 33.5614 39.0516 34.5334M42.7925 31.0812L38.7675 34.122M42.7925 31.0812C45.2011 28.1016 46.4774 24.5348 46.4774 20.7726M42.7925 31.0812L39.2687 34.7212M39.0516 34.5334C39.0513 34.5337 39.0509 34.5339 39.0506 34.5342L38.7675 34.122M39.0516 34.5334C39.0517 34.5334 39.0517 34.5334 39.0518 34.5333L38.7675 34.122M39.0516 34.5334C39.0153 34.5586 39.001 34.5883 38.997 34.6124C38.9932 34.6356 38.9972 34.6624 39.0183 34.6904M38.7675 34.122C38.4726 34.3259 38.4075 34.716 38.6227 34.9961M39.0183 34.6904C39.0181 34.6901 39.0178 34.6897 39.0175 34.6894L38.6227 34.9961M39.0183 34.6904C39.0459 34.7252 39.0962 34.7525 39.1594 34.7525C39.2033 34.7525 39.2413 34.7399 39.2687 34.7212M39.0183 34.6904C39.0186 34.6908 39.0189 34.6911 39.0192 34.6915L38.6227 34.9961M38.6227 34.9961L39.2687 34.7212M39.2687 34.7212C39.2685 34.7214 39.2682 34.7216 39.268 34.7217L39.5513 35.1337L39.2689 34.7211C39.2688 34.7212 39.2688 34.7212 39.2687 34.7212ZM39.2687 34.7212C40.7095 33.7302 41.9887 32.55 43.0709 31.2105L43.0711 31.2103C45.5183 28.1834 46.8073 24.5772 46.8073 20.7726C46.8073 11.2763 38.5907 3.5 28.4275 3.5C25.3515 3.5 22.3079 4.22958 19.6272 5.60573M19.6272 5.60573C19.6272 5.60573 19.6272 5.60572 19.6272 5.60572L19.3988 5.16092L19.6272 5.60573ZM19.6272 5.60573C19.5849 5.62747 19.5648 5.65772 19.5571 5.68247C19.5496 5.70631 19.5512 5.73084 19.5663 5.75668L19.568 5.75963L19.568 5.75964C19.5847 5.78877 19.6162 5.81555 19.6631 5.8285C19.7101 5.84149 19.7608 5.83683 19.8041 5.81425L19.807 5.81274L19.807 5.81275C22.4363 4.46406 25.4176 3.75053 28.4275 3.75053C38.3531 3.75053 46.4788 11.3583 46.4774 20.7726M46.4774 20.7726L45.9774 20.7726L46.4774 20.7726Z" fill="#073465" stroke="#073465"/>
<path d="M27.1008 14.5513C26.3759 14.5513 25.6837 14.6726 25.0722 14.8682L24.5241 15.0376L24.386 14.6467L24.8761 14.491C25.6356 14.2755 26.3458 14.147 27.1035 14.147C28.0928 14.147 28.8251 14.3803 29.2987 14.7513C29.7569 15.1103 30.0205 15.6338 30.0205 16.3431C30.0205 17.0252 29.6483 17.6098 28.526 18.3054L28.526 18.3054L28.5219 18.308L26.1504 19.8099L26.1503 19.81C25.255 20.3774 24.8578 21.2785 24.8578 22.2131V22.7131H25.3578H29.8703V23.1025H24.1719V22.7746C24.1719 21.9753 24.311 21.3198 24.5841 20.7797C24.8552 20.2436 25.2722 19.7934 25.873 19.4221L25.873 19.4221L25.8753 19.4207L28.2334 17.9463L28.2334 17.9463L28.2371 17.944C28.8845 17.5314 29.3319 17.0349 29.3319 16.3431C29.3319 15.7946 29.0955 15.323 28.6701 15.0028C28.2594 14.6937 27.7096 14.5513 27.1008 14.5513Z" fill="#073465" stroke="#073465"/>
<path d="M39.2283 20.5904H38.6415H38.1415V21.0904V23.104H37.4702V21.0904V20.5904H36.9702H32.3076V19.8366C32.6625 19.4467 32.9835 19.0728 33.3325 18.623L36.0883 15.2862L36.0884 15.2862L36.0922 15.2814C36.3592 14.9499 36.5746 14.6315 36.7977 14.2886H38.1402V19.6998V20.1998H38.6402H39.2283V20.5904ZM37.4702 17.2701C37.4702 16.8461 37.4976 16.4195 37.5543 15.964C37.5697 15.8639 37.57 15.7352 37.5172 15.6043C37.4571 15.4555 37.3295 15.3152 37.1371 15.2618C36.7952 15.167 36.5479 15.3965 36.4478 15.5217L34.0345 18.4088L34.0279 18.4167L34.0215 18.4249C33.8374 18.6648 33.5771 18.9589 33.4033 19.111L33.3842 19.1277L33.3669 19.1463C33.246 19.2759 33.0977 19.5372 33.2273 19.8344C33.352 20.1203 33.6308 20.1973 33.807 20.1973H36.9702H37.4702V19.6973V17.2701Z" fill="#073465" stroke="#073465"/>
</g>
<defs>
<filter id="filter0_d_397_2830" x="0" y="0" width="54.3073" height="52.3582" filterUnits="userSpaceOnUse" color-interpolation-filters="sRGB">
<feFlood flood-opacity="0" result="BackgroundImageFix"/>
<feColorMatrix in="SourceAlpha" type="matrix" values="0 0 0 0 0 0 0 0 0 0 0 0 0 0 0 0 0 0 127 0" result="hardAlpha"/>
<feOffset dx="2" dy="2"/>
<feGaussianBlur stdDeviation="2.5"/>
<feComposite in2="hardAlpha" operator="out"/>
<feColorMatrix type="matrix" values="0 0 0 0 0 0 0 0 0 0 0 0 0 0 0 0 0 0 0.47 0"/>
<feBlend mode="normal" in2="BackgroundImageFix" result="effect1_dropShadow_397_2830"/>
<feBlend mode="normal" in="SourceGraphic" in2="effect1_dropShadow_397_2830" result="shape"/>
</filter>
</defs>
</svg>
