<svg width="45" height="43" viewBox="0 0 45 43" fill="none" xmlns="http://www.w3.org/2000/svg">
<path d="M26.1033 40.7239L26.1035 40.724C28.2488 41.4865 30.1755 41.8582 31.7458 41.8582C33.3197 41.8582 34.4677 41.4869 35.1526 40.8457L26.1033 40.7239ZM26.1033 40.7239C21.3967 39.0541 16.248 35.741 11.6171 31.3821L11.6171 31.382M26.1033 40.7239L11.6171 31.382M11.6171 31.382C6.9841 27.0223 3.47006 22.1782 1.69882 17.7592L1.6988 17.7592M11.6171 31.382L1.6988 17.7592M1.6988 17.7592C0.893289 15.7501 0.502052 13.9501 0.500008 12.4875C0.497956 11.0195 0.885655 9.95289 1.56413 9.31425L1.56515 9.31328M1.6988 17.7592L1.56515 9.31328M1.56515 9.31328C1.79709 9.09373 2.03345 8.86047 2.2715 8.62554L2.29535 8.602L2.29559 8.60176M1.56515 9.31328L2.29559 8.60176M2.29559 8.60176C3.04769 7.85855 3.8165 7.10573 4.66063 6.54457C5.49793 5.98795 6.37433 5.64439 7.33646 5.68315L7.33712 5.68318M2.29559 8.60176L7.33712 5.68318M7.33712 5.68318C8.67951 5.73547 10.0524 6.51908 11.5385 8.25687C13.7712 10.8722 14.2625 12.5121 14.063 13.6873C13.8583 14.8927 12.9147 15.7938 11.7036 16.9171L11.7027 16.918M7.33712 5.68318L11.7027 16.918M11.7027 16.918L11.2869 17.3057L11.2851 17.3073M11.7027 16.918L11.2851 17.3073M11.2851 17.3073C11.0968 17.4845 10.9215 17.7775 10.8977 18.216M11.2851 17.3073L10.8977 18.216M10.8977 18.216C10.8748 18.6385 10.9934 19.1688 11.3235 19.8447M10.8977 18.216L11.3235 19.8447M11.3235 19.8447C11.9806 21.1904 13.5462 23.2545 16.9447 26.4528M11.3235 19.8447L16.9447 26.4528M16.9447 26.4528C19.1652 28.543 21.0793 30.0929 22.6287 31.0408L16.9447 26.4528ZM36.2761 31.5423C38.1327 32.9454 38.9431 34.2287 38.9982 35.4589L22.6288 31.0409C23.1142 31.338 23.8133 31.7259 24.4966 31.9539C24.8376 32.0677 25.2021 32.1511 25.5493 32.15C25.8993 32.1489 26.2759 32.0604 26.5724 31.7813L26.5741 31.7797L26.9926 31.382L26.9935 31.3812C28.178 30.2503 29.1449 29.3494 30.4523 29.1538C31.7411 28.9611 33.5047 29.445 36.2759 31.5421L36.2761 31.5423ZM2.01408 17.6897L2.01411 17.6898C3.78892 22.1176 7.29647 26.9201 11.8709 31.2273L11.871 31.2274C16.4464 35.5328 21.5433 38.8316 26.2379 40.4971C28.1404 41.1732 29.9251 41.5475 31.4074 41.6009C32.8612 41.6533 34.1388 41.4005 34.8981 40.6866L34.8983 40.6864C35.1088 40.4882 35.3327 40.287 35.568 40.0756C35.5986 40.0481 35.6295 40.0204 35.6605 39.9925L35.6799 39.9751C36.3496 39.3761 37.1019 38.7032 37.676 37.9813C38.2539 37.2548 38.7105 36.4071 38.6687 35.4619C38.6131 34.1699 37.6339 32.9149 36.0461 31.7149C33.696 29.9371 32.0629 29.253 30.6747 29.4039C29.3231 29.5508 28.3431 30.4868 27.32 31.4641C27.2965 31.4866 27.2729 31.5091 27.2493 31.5316C27.2492 31.5317 27.249 31.5319 27.2489 31.532L26.8258 31.934C26.8256 31.9341 26.8254 31.9343 26.8253 31.9345C26.4379 32.2998 25.9176 32.4647 25.1991 32.3728C24.4622 32.2786 23.5397 31.9141 22.4267 31.2334C20.8856 30.2902 18.9561 28.7373 16.6908 26.605C13.8871 23.9659 12.0802 21.8778 11.1874 20.271C10.7415 19.4686 10.547 18.8268 10.5397 18.3228C10.5328 17.8423 10.6944 17.4644 11.0305 17.147C11.0308 17.1467 11.0312 17.1464 11.0315 17.1461L11.4508 16.7551L11.452 16.754L11.4698 16.7376C12.006 16.2408 12.5253 15.7597 12.9245 15.2589C13.3348 14.7441 13.6455 14.1765 13.7296 13.4977C13.8962 12.1519 13.1476 10.5937 11.2641 8.38788L11.2638 8.38757C9.97853 6.88489 8.65518 5.98403 7.32162 5.93197L7.3202 5.93192C7.27651 5.93034 7.23426 5.93034 7.20275 5.93034L7.19982 5.93034C6.25587 5.93034 5.39736 6.35174 4.64368 6.89114C3.89474 7.42714 3.19482 8.12048 2.56969 8.73972L2.5577 8.75161C2.51011 8.79826 2.46304 8.84451 2.41642 8.89032C2.21059 9.09254 2.01351 9.28617 1.81952 9.46877C1.05046 10.1919 0.779015 11.4173 0.836106 12.7999C0.894216 14.2072 1.29543 15.8959 2.01408 17.6897Z" fill="#073465" stroke="#073465"/>
<path d="M39.7925 28.0812L39.7925 28.0812L16.6272 2.60572C19.308 1.22957 22.3515 0.5 25.4275 0.5C35.5907 0.5 43.8073 8.27634 43.8073 17.7726C43.8073 21.5772 42.5183 25.1834 40.0711 28.2103L40.0709 28.2104C38.9888 29.55 37.7096 30.7301 36.2689 31.7211C36.2415 31.7399 36.2034 31.7525 36.1594 31.7525C36.0962 31.7525 36.0459 31.7252 36.0183 31.6904C35.9972 31.6624 35.9932 31.6356 35.997 31.6124C36.001 31.5883 36.0154 31.5585 36.0518 31.5333L35.7675 31.122L36.0506 31.5342C37.466 30.5619 38.7254 29.4012 39.7925 28.0812Z" fill="#073465" stroke="#073465"/>
<path d="M24.1008 11.5513C23.3759 11.5513 22.6837 11.6726 22.0722 11.8682L21.5241 12.0376L21.386 11.6467L21.8761 11.491C22.6356 11.2755 23.3458 11.147 24.1035 11.147C25.0928 11.147 25.8251 11.3803 26.2987 11.7513C26.7569 12.1103 27.0205 12.6338 27.0205 13.3431C27.0205 14.0252 26.6483 14.6098 25.526 15.3054L25.526 15.3054L25.5219 15.308L23.1504 16.8099L23.1503 16.81C22.255 17.3774 21.8578 18.2785 21.8578 19.2131V19.7131H22.3578H26.8703V20.1025H21.1719V19.7746C21.1719 18.9753 21.311 18.3198 21.5841 17.7797C21.8552 17.2436 22.2722 16.7934 22.873 16.4221L22.873 16.4221L22.8753 16.4207L25.2334 14.9463L25.2334 14.9463L25.2371 14.944C25.8845 14.5314 26.3319 14.0349 26.3319 13.3431C26.3319 12.7946 26.0955 12.323 25.6701 12.0028C25.2594 11.6937 24.7096 11.5513 24.1008 11.5513Z" fill="#073465" stroke="#073465"/>
<path d="M36.2283 17.5904H35.6415H35.1415V18.0904V20.104H34.4702V18.0904V17.5904H33.9702H29.3076V16.8366C29.6625 16.4467 29.9835 16.0728 30.3325 15.623L33.0883 12.2862L33.0884 12.2862L33.0922 12.2814C33.3592 11.9499 33.5746 11.6315 33.7977 11.2886H35.1402V16.6998V17.1998H35.6402H36.2283V17.5904ZM34.4702 14.2701C34.4702 13.8461 34.4976 13.4195 34.5543 12.9641C34.5697 12.8639 34.57 12.7353 34.5172 12.6043C34.4571 12.4555 34.3295 12.3152 34.1371 12.2618C33.7952 12.167 33.5479 12.3965 33.4478 12.5217L31.0345 15.4088L31.0279 15.4167L31.0215 15.4249C30.8374 15.6648 30.5771 15.9589 30.4033 16.111L30.3842 16.1277L30.3669 16.1463C30.246 16.2759 30.0977 16.5372 30.2273 16.8344C30.352 17.1203 30.6308 17.1973 30.807 17.1973H33.9702H34.4702V16.6973V14.2701Z" fill="#073465" stroke="#073465"/>
</svg>
