<svg width="764" height="123" viewBox="0 0 764 123" fill="none" xmlns="http://www.w3.org/2000/svg">
<path fill-rule="evenodd" clip-rule="evenodd" d="M149.363 1.45744V1C137.276 6.37496 22.4289 42.7703 36.9182 62.0115C44.5441 72.1324 87.7832 54.5494 91.2149 59.4098C100.595 72.8186 18.3109 106.383 4.54606 112.187C4.54606 112.187 1 120.879 1 122.451C11.3713 116.819 133.958 72.79 114.855 48.6313C108.03 39.9684 67.3076 55.1784 63.1133 50.0322C56.7838 42.3414 128.963 15.6954 146.808 8.60499L149.363 1.45744V1.45744Z" fill="#0073B2" stroke="#EBECEC" stroke-width="0.160804" stroke-miterlimit="22.9256"/>
<path d="M174.871 48.6893L132.204 95.4342C126.332 101.867 120.88 105.069 115.808 105.069C110.89 105.069 108.373 103.239 108.22 99.6084L115.846 95.8631C114.893 99.008 115.541 100.609 117.753 100.609C120.231 100.609 123.053 98.7793 126.256 95.1197L128.849 92.1463L129.039 48.6893H147.99L146.693 73.0481L168.504 48.6893H174.871V48.6893ZM210.942 59.3248L202.02 60.6114C204.803 54.4073 202.858 51.291 196.186 51.291C192.106 51.291 189.437 52.7491 188.14 55.6653C187.187 57.8095 189.666 60.0967 195.576 62.5555C204.612 66.3866 207.815 71.2183 205.222 77.0793C201.028 86.4283 192.144 91.0885 178.494 91.0885C164.08 91.0885 158.933 86.4283 163.127 77.0793L172.698 75.5069C172.164 76.4217 171.745 77.2794 171.363 78.08C170.296 80.4816 170.524 82.5972 172.05 84.3698C173.575 86.171 175.901 87.0573 179.027 87.0573C183.183 87.0573 185.967 85.542 187.34 82.4543C188.255 80.3958 185.891 78.1372 180.286 75.6212C171.859 71.8473 168.961 67.0156 171.592 61.0688C173.346 57.152 176.701 53.9499 181.735 51.4339C186.691 48.9466 192.258 47.6886 198.321 47.6886C209.15 47.6886 213.344 51.5769 210.942 59.3248V59.3248ZM254.944 88.6298C250.101 90.0593 245.678 90.774 241.674 90.774C235.764 90.774 232.828 89.1444 232.867 85.9423C228.52 89.2587 223.677 90.917 218.263 90.917C208.235 90.917 204.994 86.8857 208.616 78.7661C211.361 72.6192 217.882 68.2735 228.177 65.8148C237.633 63.499 243.085 60.7257 244.534 57.495C246.403 53.2637 244.954 51.148 240.073 51.148C234.506 51.148 230.769 53.2065 228.939 57.2949C228.367 58.5815 228.062 60.2969 228.024 62.4126L220.093 60.983C220.436 59.6965 220.856 58.4957 221.351 57.3521C224.287 50.8049 232.638 47.5171 246.441 47.5171C259.557 47.5171 264.743 50.5762 261.998 56.6945L250.787 81.8253C249.644 84.427 250.025 85.7136 251.969 85.7136C252.541 85.7136 253.571 85.4276 254.982 84.8273L254.944 88.6298V88.6298ZM240.988 65.2144C239.425 66.2722 237.785 67.1585 236.069 67.8733C231.684 69.6745 228.558 72.705 226.651 76.9935C224.211 82.4829 224.211 85.1989 226.651 85.1989C230.274 85.1989 233.286 82.5115 235.688 77.0793L240.988 65.2144ZM325.598 33.1076L300.204 90.0878H282.969L284.57 86.5141C280.3 89.516 275.762 91.0027 270.92 91.0027C260.244 91.0027 258.07 83.8552 264.438 69.5887C270.996 54.8647 279.919 47.5171 291.281 47.5171C295.742 47.5171 298.526 49.2325 299.632 52.6919L307.982 33.9653C313.168 33.9653 319.04 33.6794 325.598 33.1076V33.1076ZM294.141 53.5782C291.243 53.5782 288.765 55.894 286.706 60.5256L282.473 69.3028L279.08 77.308C276.792 82.3971 277.288 84.9702 280.567 84.9702C283.77 84.9702 286.477 82.4543 288.688 77.451L293.378 67.3587L296.124 60.4398C297.687 55.8654 297.001 53.5782 294.141 53.5782ZM379.399 90.0878H362.164L376.044 59.0103C377.264 56.2943 376.959 54.9219 375.09 54.9219C370.82 54.9219 366.931 58.8388 363.423 66.6439L352.975 90.0878H335.74L349.315 59.6679C350.725 56.5516 350.573 55.0077 348.933 55.0077C344.663 55.0077 340.774 58.896 337.304 66.7011L326.856 90.0878H309.622L328.153 48.5749C333.948 48.5749 339.859 48.2318 345.807 47.5457L342.642 54.6932C348.819 49.9472 354.882 47.6028 360.83 47.6028C365.787 47.6028 368.532 49.8329 368.951 54.2644C374.823 49.7757 380.657 47.5171 386.453 47.5171C394.422 47.5171 396.824 51.0051 393.736 57.9811L379.399 90.0878V90.0878ZM423.629 32.6216C429.006 32.6216 430.874 34.4228 429.273 38.0537C427.633 41.6847 424.163 43.4859 418.787 43.4859C413.449 43.4859 411.58 41.6847 413.182 38.0537C414.822 34.4228 418.291 32.6216 423.629 32.6216ZM389.198 90.0878L407.653 48.7464C413.029 48.7464 418.94 48.3462 425.383 47.6028L406.433 90.0878H389.198V90.0878ZM461.302 90.0878H444.067L457.641 59.6965C459.014 56.5802 458.709 55.0077 456.726 55.0077C454.667 55.0077 452.379 56.2371 449.748 58.6958C447.155 61.1546 445.135 64.0708 443.648 67.4158L433.505 90.0878H416.309L434.801 48.6035C440.712 48.6035 446.622 48.289 452.494 47.5742L449.024 55.3508C455.62 50.176 462.026 47.6028 468.203 47.6028C476.249 47.6028 478.689 51.148 475.524 58.2098L461.302 90.0878V90.0878Z" fill="#0073B2"/>
<path fill-rule="evenodd" clip-rule="evenodd" d="M487.417 46.54H763.172V90.6261H487.417V46.54Z" fill="#0073B2" stroke="#2774A0" stroke-width="0.160804" stroke-miterlimit="22.9256"/>
<path d="M554.182 64.8646L545.107 66.2369C544.802 64.7217 544.116 63.5781 543.01 62.8061C541.943 62.0342 540.532 61.6339 538.816 61.6339C536.528 61.6339 534.698 62.3201 533.325 63.6638C531.953 64.979 531.266 67.2376 531.266 70.3825C531.266 73.8705 531.953 76.3293 533.363 77.7588C534.736 79.2169 536.604 79.9317 538.93 79.9317C540.684 79.9317 542.095 79.5028 543.201 78.6737C544.345 77.816 545.107 76.3865 545.565 74.328L554.64 75.6145C553.725 79.1311 551.894 81.79 549.264 83.5912C546.594 85.3638 543.01 86.2787 538.511 86.2787C533.44 86.2787 529.36 84.9063 526.348 82.1903C523.297 79.4742 521.81 75.7289 521.81 70.9257C521.81 66.0654 523.335 62.2915 526.348 59.5754C529.398 56.888 533.516 55.5156 538.702 55.5156C542.934 55.5156 546.289 56.2876 548.806 57.8314C551.284 59.3753 553.076 61.7197 554.182 64.8646V64.8646ZM559.025 70.4969C559.025 67.8952 559.787 65.4078 561.312 62.9777C562.8 60.5475 564.935 58.7177 567.718 57.4312C570.464 56.1732 573.552 55.5156 576.984 55.5156C582.246 55.5156 586.554 56.9737 589.91 59.8613C593.303 62.7489 594.981 66.4085 594.981 70.8114C594.981 75.2714 593.265 78.9596 589.872 81.8758C586.478 84.8206 582.208 86.2787 577.022 86.2787C573.857 86.2787 570.807 85.6497 567.909 84.4489C565.011 83.2195 562.8 81.4469 561.312 79.0739C559.787 76.7296 559.025 73.8705 559.025 70.4969V70.4969ZM568.519 70.8972C568.519 73.8133 569.32 76.0434 570.959 77.5873C572.599 79.1597 574.62 79.9317 577.022 79.9317C579.424 79.9317 581.445 79.1597 583.046 77.5873C584.686 76.0434 585.487 73.7848 585.487 70.84C585.487 67.9524 584.686 65.7509 583.046 64.207C581.445 62.6346 579.424 61.8627 577.022 61.8627C574.62 61.8627 572.599 62.6346 570.959 64.207C569.32 65.7509 568.519 67.981 568.519 70.8972ZM601.539 56.1446H610.004V60.1472C613.054 57.0881 616.677 55.5156 620.871 55.5156C623.083 55.5156 625.027 55.9159 626.667 56.6878C628.306 57.4598 629.641 58.632 630.709 60.2044C632.234 58.632 633.873 57.4598 635.665 56.6878C637.419 55.9159 639.326 55.5156 641.347 55.5156C643.901 55.5156 646.037 55.9731 647.829 56.8308C649.583 57.7171 650.917 59.0036 651.794 60.6905C652.443 61.9484 652.748 63.9783 652.748 66.7802V85.5353H643.558V68.7529C643.558 65.8367 643.215 63.9783 642.605 63.1206C641.728 62.0342 640.432 61.4624 638.64 61.4624C637.343 61.4624 636.123 61.8055 635.017 62.463C633.873 63.1206 633.034 64.0927 632.539 65.3792C632.043 66.6658 631.776 68.6957 631.776 71.4404V85.5353H622.587V69.4676C622.587 66.6086 622.396 64.7503 622.091 63.9211C621.748 63.092 621.252 62.4916 620.566 62.0628C619.88 61.6625 618.926 61.4624 617.783 61.4624C616.334 61.4624 615.075 61.8055 613.931 62.4345C612.788 63.092 611.987 64.0069 611.491 65.2363C610.995 66.4371 610.767 68.467 610.767 71.2688V85.5353H601.539V56.1446V56.1446ZM661.899 85.5353V77.7874H671.088V85.5353H661.899ZM703.689 85.5353V81.1324C702.392 82.7049 700.715 83.9629 698.656 84.8778C696.597 85.8212 694.385 86.2787 692.097 86.2787C689.771 86.2787 687.636 85.8498 685.806 84.9635C683.938 84.1058 682.565 82.8764 681.764 81.304C680.925 79.7315 680.506 77.5587 680.506 74.7854V56.1446H689.695V69.6678C689.695 73.8133 689.886 76.3579 690.229 77.3014C690.572 78.2162 691.182 78.9596 692.059 79.5028C692.974 80.046 694.118 80.3319 695.491 80.3319C697.092 80.3319 698.503 79.9602 699.761 79.2455C700.982 78.5021 701.859 77.5873 702.316 76.5008C702.774 75.443 703.003 72.7841 703.003 68.5813V56.1446H712.192V85.5353H703.689V85.5353ZM728.511 65.2077L720.199 63.9497C721.152 61.0907 722.754 58.975 725.041 57.6027C727.367 56.2018 730.761 55.5156 735.298 55.5156C739.416 55.5156 742.467 55.9445 744.488 56.745C746.47 57.5741 747.919 58.6034 748.72 59.8899C749.559 61.1479 749.94 63.4637 749.94 66.8373L749.826 75.9004C749.826 78.4736 749.978 80.3605 750.245 81.5899C750.55 82.8193 751.084 84.1344 751.923 85.5353H742.772C742.543 85.0207 742.238 84.2774 741.895 83.2767C741.742 82.8193 741.628 82.5048 741.552 82.3618C739.988 83.677 738.311 84.649 736.519 85.278C734.726 85.9356 732.82 86.2787 730.799 86.2787C727.215 86.2787 724.393 85.4496 722.334 83.8199C720.275 82.1903 719.246 80.1032 719.246 77.5873C719.246 75.929 719.741 74.4709 720.657 73.1558C721.61 71.8692 722.906 70.8686 724.622 70.1824C726.3 69.4962 728.74 68.8672 731.943 68.3526C736.252 67.6951 739.226 67.0375 740.903 66.4657V65.6651C740.903 64.1499 740.446 63.092 739.569 62.4345C738.692 61.8055 737.052 61.4624 734.612 61.4624C732.972 61.4624 731.676 61.7483 730.761 62.2915C729.846 62.8633 729.083 63.8354 728.511 65.2077ZM740.903 71.4975C739.721 71.812 737.853 72.2123 735.26 72.6697C732.744 73.1558 731.028 73.5846 730.265 74.0421C729.045 74.7568 728.473 75.6717 728.473 76.7581C728.473 77.8732 728.931 78.788 729.884 79.5886C730.875 80.3891 732.096 80.7894 733.583 80.7894C735.222 80.7894 736.824 80.3033 738.349 79.3884C739.455 78.7023 740.179 77.8446 740.522 76.8153C740.751 76.1577 740.903 74.8998 740.903 73.0414V71.4975V71.4975Z" fill="#FEFEFE"/>
<path fill-rule="evenodd" clip-rule="evenodd" d="M503.508 74.5859C507.97 74.5859 511.592 77.302 511.592 80.6471C511.592 84.0207 507.97 86.7368 503.508 86.7368C499.047 86.7368 495.425 84.0207 495.425 80.6471C495.425 77.302 499.047 74.5859 503.508 74.5859Z" fill="#E31E24"/>
</svg>
