<svg width="64" height="58" viewBox="0 0 64 58" fill="none" xmlns="http://www.w3.org/2000/svg">
<path d="M62.75 42.7H1.25C0.7 42.7 0.25 42.25 0.25 41.7V1.79999C0.25 1.24999 0.7 0.799988 1.25 0.799988H62.75C63.3 0.799988 63.75 1.24999 63.75 1.79999V41.7C63.75 42.25 63.3 42.7 62.75 42.7ZM2.25 40.7H61.75V2.79999H2.25V40.7Z" fill="#073465"/>
<path d="M57.8 37.05H6.2C5.9 37.05 5.7 36.85 5.7 36.55V6.95001C5.7 6.65001 5.9 6.45001 6.2 6.45001H57.8C58.1 6.45001 58.3 6.65001 58.3 6.95001V36.55C58.3 36.85 58.05 37.05 57.8 37.05ZM6.7 36.05H57.3V7.45001H6.7V36.05Z" fill="#073465"/>
<path d="M46.45 52.25H17.55C17.25 52.25 16.95 52.1 16.75 51.85C16.55 51.6 16.5 51.3 16.55 51L19.05 41.45C19.15 41 19.55 40.7 20 40.7H43.9C44.35 40.7 44.75 41 44.85 41.45L47.35 51C47.45 51.3 47.35 51.6 47.15 51.85C47.05 52.1 46.8 52.25 46.45 52.25ZM18.85 50.25H45.2L43.2 42.7H20.8L18.85 50.25Z" fill="#073465"/>
<path d="M52.65 57.2H11.35C10.8 57.2 10.35 56.75 10.35 56.2V51.25C10.35 50.7 10.8 50.25 11.35 50.25H52.7C53.25 50.25 53.7 50.7 53.7 51.25V56.2C53.65 56.75 53.2 57.2 52.65 57.2ZM12.35 55.2H51.7V52.25H12.35V55.2Z" fill="#073465"/>
<path d="M45.85 31.25H18.15C17.85 31.25 17.65 31.05 17.65 30.75V12.75C17.65 12.45 17.85 12.25 18.15 12.25H45.85C46.15 12.25 46.35 12.45 46.35 12.75V30.75C46.35 31.05 46.1 31.25 45.85 31.25ZM18.65 30.25H45.35V13.25H18.65V30.25Z" fill="#073465"/>
<path d="M32 25.8C31.9 25.8 31.75 25.75 31.65 25.65L17.85 13.15C17.7 13 17.65 12.8 17.7 12.6C17.75 12.4 17.95 12.3 18.15 12.3H45.8C46 12.3 46.2 12.45 46.25 12.6C46.3 12.8 46.25 13 46.1 13.15L32.3 25.65C32.2 25.75 32.1 25.8 32 25.8ZM19.45 13.25L32 24.6L44.5 13.25H19.45Z" fill="#073465"/>
<path d="M45.85 31.25C45.7 31.25 45.6 31.2 45.5 31.1L36.25 21.5C36.05 21.3 36.05 21 36.25 20.8C36.45 20.6 36.75 20.6 36.95 20.8L46.2 30.4C46.4 30.6 46.4 30.9 46.2 31.1C46.1 31.2 45.95 31.25 45.85 31.25Z" fill="#073465"/>
<path d="M18.15 31.25C18 31.25 17.9 31.2 17.8 31.1C17.6 30.9 17.6 30.6 17.8 30.4L27.05 20.8C27.25 20.6 27.55 20.6 27.75 20.8C27.95 21 27.95 21.3 27.75 21.5L18.5 31.1C18.4 31.2 18.3 31.25 18.15 31.25Z" fill="#073465"/>
</svg>
