<svg width="62" height="62" viewBox="0 0 62 62" fill="none" xmlns="http://www.w3.org/2000/svg">
<path d="M52.6516 42.7219H35.2141C34.6812 42.7219 34.2453 42.2859 34.2453 41.7531C34.2453 41.2203 34.6812 40.7844 35.2141 40.7844H52.6031C56.575 40.7844 59.7719 37.3453 59.7719 33.1313C59.7719 29.7406 57.6406 26.6891 54.5406 25.7688C54.25 25.6719 54.0563 25.4781 53.9594 25.2359C53.8625 24.9938 53.8625 24.7031 53.9594 24.4125C54.7828 22.6688 55.2188 20.7313 55.2188 18.7453C55.2188 11.7219 49.8422 6.05469 43.3031 6.05469C41.5109 6.05469 39.7672 6.49063 38.1203 7.31406C37.6844 7.50781 37.2 7.41094 36.9094 7.02344C34.6328 3.92344 31.1938 2.17969 27.5125 2.17969C22.4266 2.17969 17.8734 5.61875 16.2266 10.8016C16.1297 11.1406 15.8391 11.3828 15.5 11.4797C9.73594 12.4969 5.57031 17.7766 5.57031 24.025C5.57031 24.6547 5.61875 25.3328 5.71563 25.9625C5.76406 26.3016 5.61875 26.6891 5.32812 26.8828C3.34219 28.3359 2.17969 30.6609 2.17969 33.2281C2.17969 37.4422 5.37656 40.8813 9.34844 40.8813H26.7375C27.2703 40.8813 27.7063 41.3172 27.7063 41.85C27.7063 42.3828 27.2703 42.8188 26.7375 42.8188H9.34844C4.31094 42.8188 0.242188 38.5078 0.242188 33.2281C0.242188 30.2734 1.55 27.5125 3.72969 25.6719C3.68125 25.1391 3.63281 24.5578 3.63281 24.025C3.63281 17.05 8.18594 11.1406 14.5797 9.6875C16.6141 4.02031 21.7969 0.242188 27.5609 0.242188C31.5813 0.242188 35.3594 2.08281 38.0234 5.23125C39.7188 4.50469 41.5109 4.11719 43.3516 4.11719C51.0047 4.11719 57.2047 10.7047 57.2047 18.7453C57.2047 20.6344 56.8656 22.5234 56.1875 24.2672C59.5297 25.7688 61.7578 29.2563 61.7578 33.1313C61.7578 38.4109 57.6891 42.7219 52.6516 42.7219Z" fill="#073465"/>
<path d="M48.1953 61.7578H13.8047C13.2719 61.7578 12.8359 61.3219 12.8359 60.7891V51.3438C12.8359 50.8109 13.2719 50.375 13.8047 50.375H48.1469C48.6797 50.375 49.1156 50.8109 49.1156 51.3438V60.7891C49.1641 61.3219 48.7281 61.7578 48.1953 61.7578ZM14.7734 59.8203H47.1781V52.3125H14.7734V59.8203Z" fill="#073465"/>
<path d="M31 46.3063C29.6437 46.3063 28.2875 45.7735 27.2703 44.7563C25.2359 42.7219 25.2359 39.3313 27.2703 37.2969C29.3047 35.2625 32.6953 35.2625 34.7297 37.2969C36.764 39.3313 36.764 42.7219 34.7297 44.7563C33.7125 45.7735 32.3562 46.3063 31 46.3063ZM31 37.6844C30.1281 37.6844 29.3047 38.0235 28.6265 38.6532C27.3187 39.961 27.3187 42.0922 28.6265 43.3516C29.9344 44.6594 32.0656 44.6594 33.325 43.3516C34.6328 42.0438 34.6328 39.9125 33.325 38.6532C32.6953 37.975 31.8719 37.6844 31 37.6844Z" fill="#073465"/>
<path d="M38.0234 34.4391C37.8781 34.4391 37.7813 34.3907 37.6844 34.2938C34.0031 30.6125 27.9969 30.6125 24.3156 34.2938C24.1219 34.4875 23.8313 34.4875 23.6375 34.2938C23.4438 34.1 23.4438 33.8094 23.6375 33.6156C27.7062 29.5469 34.3422 29.5469 38.4109 33.6156C38.6047 33.8094 38.6047 34.1 38.4109 34.2938C38.2656 34.3907 38.1687 34.4391 38.0234 34.4391Z" fill="#073465"/>
<path d="M42.2859 30.225C42.1406 30.225 42.0437 30.1766 41.9469 30.0797C35.8922 24.025 26.1078 24.025 20.0531 30.0797C19.8594 30.2734 19.5687 30.2734 19.375 30.0797C19.1812 29.8859 19.1812 29.5953 19.375 29.4016C25.7687 23.0078 36.2312 23.0078 42.625 29.4016C42.8187 29.5953 42.8187 29.8859 42.625 30.0797C42.5281 30.1766 42.4312 30.225 42.2859 30.225Z" fill="#073465"/>
<path d="M31 52.3125C30.4672 52.3125 30.0312 51.8766 30.0312 51.3438V45.3375C30.0312 44.8047 30.4672 44.3688 31 44.3688C31.5328 44.3688 31.9688 44.8047 31.9688 45.3375V51.3438C31.9688 51.8766 31.5328 52.3125 31 52.3125Z" fill="#073465"/>
<path d="M20.4406 58.125H17.2922C17.0016 58.125 16.8078 57.9313 16.8078 57.6406V54.4922C16.8078 54.2016 17.0016 54.0078 17.2922 54.0078H20.4406C20.7312 54.0078 20.925 54.2016 20.925 54.4922V57.6406C20.925 57.9313 20.7312 58.125 20.4406 58.125ZM17.7766 57.1562H19.9562V54.9766H17.7766V57.1562Z" fill="#073465"/>
<path d="M26.8344 58.125H23.6859C23.3953 58.125 23.2015 57.9313 23.2015 57.6406V54.4922C23.2015 54.2016 23.3953 54.0078 23.6859 54.0078H26.8344C27.125 54.0078 27.3187 54.2016 27.3187 54.4922V57.6406C27.3187 57.9313 27.125 58.125 26.8344 58.125ZM24.1703 57.1562H26.35V54.9766H24.1703V57.1562Z" fill="#073465"/>
<path d="M45.0469 58.125H40.4453C40.1547 58.125 39.9609 57.9313 39.9609 57.6406V54.4922C39.9609 54.2016 40.1547 54.0078 40.4453 54.0078H45.0469C45.3375 54.0078 45.5312 54.2016 45.5312 54.4922V57.6406C45.5312 57.9313 45.2891 58.125 45.0469 58.125ZM40.9297 57.1562H44.5625V54.9766H40.9297V57.1562Z" fill="#073465"/>
</svg>
