<svg width="64" height="64" viewBox="0 0 64 64" fill="none" xmlns="http://www.w3.org/2000/svg">
<path d="M53.95 37.05H36.95C36.65 37.05 36.35 36.9 36.15 36.7L32 31.55L27.8 36.7C27.6 36.95 27.35 37.05 27 37.05H10.5C10.45 37.05 10.4 37.05 10.35 37.05C10.25 37.05 10.1 37.05 10 37.05C4.6 37.05 0.200001 32.65 0.200001 27.25C0.200001 22.2 4.05 18.05 8.95 17.5C8.4 16.05 8.15 14.55 8.15 13C8.2 6 13.9 0.25 20.95 0.25C23.4 0.25 25.75 0.95 27.8 2.25C29.4 1.25 31.2 0.7 33.1 0.7C37.1 0.7 40.7 3.15 42.2 6.85C43.25 6.45 44.4 6.25 45.55 6.25C50.95 6.25 55.35 10.65 55.35 16.05C55.35 16.55 55.3 17.1 55.25 17.6C60.1 18.2 63.85 22.3 63.85 27.3C63.75 32.65 59.35 37.05 53.95 37.05ZM37.45 35.05H54C58.3 35.05 61.8 31.55 61.8 27.25C61.8 22.95 58.3 19.45 54.05 19.45H54C53.7 19.45 53.4 19.3 53.2 19.05C53 18.8 52.95 18.45 53.05 18.15C53.25 17.45 53.35 16.7 53.35 15.95C53.35 11.65 49.85 8.15 45.55 8.15C44.3 8.15 43.15 8.45 42.05 9C41.8 9.15 41.45 9.15 41.2 9C40.95 8.9 40.7 8.65 40.65 8.35C39.75 4.95 36.65 2.6 33.15 2.6C31.45 2.6 29.8 3.15 28.45 4.15C28.1 4.4 27.6 4.4 27.25 4.15C25.4 2.85 23.25 2.15 21 2.15C15 2.25 10.2 7.1 10.2 13C10.2 14.75 10.6 16.45 11.45 18C11.6 18.3 11.6 18.7 11.4 19C11.2 19.3 10.85 19.5 10.5 19.45C10.35 19.45 10.2 19.45 10.05 19.45C5.75 19.45 2.25 22.95 2.25 27.25C2.25 31.55 5.75 35.05 10.05 35.05C10.2 35.05 10.35 35.05 10.45 35.05C10.55 35.05 10.6 35.05 10.7 35.05H26.6L31.25 29.3C31.65 28.85 32.4 28.85 32.8 29.3L37.45 35.05Z" fill="#073465"/>
<path d="M53.15 31.5H38.05C37.75 31.5 37.55 31.3 37.55 31C37.55 30.7 37.75 30.5 38.05 30.5H53.15C55.55 30.5 57.45 28.55 57.45 26.2C57.45 25.9 57.65 25.7 57.95 25.7C58.25 25.7 58.45 25.9 58.45 26.2C58.5 29.1 56.1 31.5 53.15 31.5Z" fill="#073465"/>
<path d="M39.2 63.75H24.8C24.25 63.75 23.8 63.3 23.8 62.75V47.9H18.3C17.9 47.9 17.55 47.7 17.4 47.35C17.25 47 17.3 46.6 17.55 46.3L31.25 29.6C31.65 29.15 32.4 29.15 32.8 29.6L46.5 46.3C46.75 46.6 46.8 47 46.65 47.35C46.5 47.7 46.15 47.9 45.75 47.9H40.25V62.75C40.2 63.3 39.75 63.75 39.2 63.75ZM25.8 61.75H38.2V46.9C38.2 46.35 38.65 45.9 39.2 45.9H43.6L32 31.75L20.4 45.9H24.8C25.35 45.9 25.8 46.35 25.8 46.9V61.75Z" fill="#073465"/>
</svg>
