<svg width="54" height="72" viewBox="0 0 54 72" fill="none" xmlns="http://www.w3.org/2000/svg">
<path d="M51.975 71.4375H1.125C0.50625 71.4375 0 70.9313 0 70.3125V17.325C0 17.0437 0.1125 16.7625 0.3375 16.5375L16.5375 0.3375C16.7625 0.1125 17.0437 0 17.325 0H51.9188C52.5375 0 53.0438 0.50625 53.0438 1.125V70.3125C53.1 70.9313 52.5937 71.4375 51.975 71.4375ZM2.25 69.1875H50.7938V2.25H17.8313L2.25 17.775V69.1875Z" fill="#073465"/>
<path d="M17.3813 17.8875H1.12502C0.900021 17.8875 0.675021 17.775 0.618771 17.55C0.506271 17.325 0.562521 17.1 0.731271 16.9313L16.9313 0.731271C17.1 0.562521 17.325 0.506271 17.55 0.618771C17.775 0.731271 17.8875 0.900021 17.8875 1.12502V17.325C17.9438 17.6625 17.6625 17.8875 17.3813 17.8875ZM2.53127 16.7625H16.8188V2.47502L2.53127 16.7625Z" fill="#073465"/>
<path d="M20.6437 53.9438C20.475 53.9438 20.3625 53.8875 20.25 53.775L14.4562 47.9813C14.2312 47.7563 14.2312 47.4188 14.4562 47.1938C14.6812 46.9688 15.0187 46.9688 15.2437 47.1938L20.6437 52.5938L37.8562 35.3813C38.0812 35.1563 38.4187 35.1563 38.6437 35.3813C38.8687 35.6063 38.8687 35.9438 38.6437 36.1688L21.0375 53.775C20.925 53.8875 20.8125 53.9438 20.6437 53.9438Z" fill="#073465"/>
</svg>
