<svg width="19" height="19" viewBox="0 0 19 19" fill="none" xmlns="http://www.w3.org/2000/svg">
<path d="M9.30065 2.27593C10.2725 1.3092 11.5839 0.760921 12.9547 0.748271C14.3254 0.73562 15.6467 1.2596 16.6363 2.20823C17.6258 3.15686 18.2051 4.4549 18.2503 5.82495C18.2955 7.195 17.803 8.52839 16.8782 9.54018L16.7128 9.71255L9.01278 17.4108L8.98128 17.4371C8.38178 17.9768 7.60334 18.275 6.79665 18.2737C5.98997 18.2725 5.21243 17.972 4.61456 17.4305C4.01669 16.8889 3.64102 16.1448 3.56029 15.3421C3.47956 14.5395 3.69949 13.7355 4.17753 13.0857C4.19837 13.0453 4.22329 13.0072 4.2519 12.9719L4.29915 12.9194L4.37528 12.8424L4.49865 12.7129L4.50128 12.7156L11.0078 6.1933C11.1188 6.08203 11.266 6.0143 11.4228 6.00241C11.5795 5.99053 11.7353 6.03529 11.8618 6.12856L11.9353 6.19243C12.0465 6.30343 12.1143 6.45069 12.1262 6.60741C12.1381 6.76413 12.0933 6.91992 12 7.04643L11.937 7.11993L5.2914 13.7813C4.98383 14.1587 4.82844 14.6374 4.85574 15.1235C4.88304 15.6096 5.09107 16.0679 5.43897 16.4084C5.78687 16.749 6.24952 16.9472 6.73607 16.9641C7.22262 16.9811 7.69792 16.8155 8.06865 16.4999L15.7975 8.77368C16.5137 8.04527 16.9189 7.06715 16.9276 6.04569C16.9364 5.02423 16.548 4.03931 15.8444 3.29873C15.1409 2.55816 14.1771 2.11984 13.1566 2.07627C12.136 2.03269 11.1384 2.38727 10.3743 3.06518L10.2273 3.20518L10.2168 3.21743L1.8719 11.5614C1.75481 11.6788 1.5976 11.7476 1.43189 11.7538C1.26618 11.76 1.10425 11.7033 0.978667 11.595C0.853083 11.4867 0.773152 11.3349 0.754946 11.1701C0.736739 11.0053 0.781607 10.8396 0.880529 10.7066L0.944404 10.6331L9.29978 2.2768H9.30065V2.27593Z" fill="#767676"/>
</svg>
