<svg width="18" height="18" viewBox="0 0 18 18" fill="none" xmlns="http://www.w3.org/2000/svg">
<path fill-rule="evenodd" clip-rule="evenodd" d="M1.01363 1.01017C1.27617 0.747708 1.6322 0.600266 2.00343 0.600266C2.37466 0.600266 2.73069 0.747708 2.99323 1.01017L9.00343 7.02037L15.0136 1.01017C15.1428 0.876453 15.2973 0.769798 15.4681 0.696425C15.6389 0.623053 15.8226 0.584432 16.0085 0.582817C16.1944 0.581201 16.3787 0.616623 16.5508 0.687017C16.7228 0.75741 16.8791 0.861364 17.0106 0.992814C17.142 1.12426 17.246 1.28058 17.3164 1.45263C17.3868 1.62469 17.4222 1.80904 17.4206 1.99493C17.419 2.18082 17.3803 2.36453 17.307 2.53533C17.2336 2.70614 17.1269 2.86062 16.9932 2.98977L10.983 8.99997L16.9932 15.0102C17.2483 15.2742 17.3894 15.6279 17.3862 15.9949C17.383 16.362 17.2357 16.7131 16.9762 16.9727C16.7166 17.2323 16.3655 17.3795 15.9984 17.3827C15.6313 17.3859 15.2777 17.2448 15.0136 16.9898L9.00343 10.9796L2.99323 16.9898C2.72919 17.2448 2.37554 17.3859 2.00847 17.3827C1.64139 17.3795 1.29026 17.2323 1.03068 16.9727C0.771113 16.7131 0.623876 16.362 0.620686 15.9949C0.617496 15.6279 0.758609 15.2742 1.01363 15.0102L7.02383 8.99997L1.01363 2.98977C0.751171 2.72723 0.603729 2.3712 0.603729 1.99997C0.603729 1.62874 0.751171 1.27271 1.01363 1.01017Z" fill="#073465"/>
</svg>
