<svg width="196" height="62" viewBox="0 0 196 62" fill="none" xmlns="http://www.w3.org/2000/svg">
<g filter="url(#filter0_d_706_2)">
<path fill-rule="evenodd" clip-rule="evenodd" d="M62.8963 0.368641V0.166504C58.1614 2.54161 13.1722 18.6241 18.8481 27.1265C21.8355 31.5988 38.7736 23.8291 40.1179 25.9768C43.7923 31.902 11.5591 46.7337 6.16694 49.2983C6.16694 49.2983 4.77783 53.1389 4.77783 53.8338C8.8406 51.345 56.8619 31.8893 49.3786 21.214C46.705 17.386 30.7526 24.1071 29.1096 21.833C26.6301 18.4346 54.9052 6.66014 61.8955 3.52703L62.8963 0.368641Z" fill="white"/>
<path fill-rule="evenodd" clip-rule="evenodd" d="M62.8963 0.368641V0.166504C58.1614 2.54161 13.1722 18.6241 18.8481 27.1265C21.8355 31.5988 38.7736 23.8291 40.1179 25.9768C43.7923 31.902 11.5591 46.7337 6.16694 49.2983C6.16694 49.2983 4.77783 53.1389 4.77783 53.8338C8.8406 51.345 56.8619 31.8893 49.3786 21.214C46.705 17.386 30.7526 24.1071 29.1096 21.833C26.6301 18.4346 54.9052 6.66014 61.8955 3.52703L62.8963 0.368641Z" stroke="#EBECEC" stroke-width="0.160804" stroke-miterlimit="22.9256"/>
</g>
<g filter="url(#filter1_d_706_2)">
<path d="M72.8889 21.2397L56.1748 41.8955C53.8746 44.7381 51.7386 46.153 49.7521 46.153C47.8252 46.153 46.8394 45.3445 46.7797 43.74L49.767 42.085C49.3936 43.4747 49.6475 44.1822 50.5138 44.1822C51.4847 44.1822 52.59 43.3737 53.8447 41.7566L54.8604 40.4427L54.9351 21.2397H62.3586L61.8507 32.0035L70.3945 21.2397H72.8889ZM87.0189 25.9394L83.5238 26.5079C84.6141 23.7664 83.8524 22.3893 81.2385 22.3893C79.6402 22.3893 78.5947 23.0337 78.0868 24.3223C77.7134 25.2698 78.6843 26.2805 80.9995 27.367C84.5395 29.0599 85.7941 31.1949 84.7785 33.7848C83.1354 37.916 79.6552 39.9752 74.3079 39.9752C68.6618 39.9752 66.6454 37.916 68.2884 33.7848L72.0375 33.09C71.8284 33.4942 71.6641 33.8732 71.5147 34.227C71.0965 35.2882 71.1861 36.2231 71.7836 37.0064C72.381 37.8023 73.2922 38.1939 74.517 38.1939C76.1451 38.1939 77.2355 37.5243 77.7732 36.1599C78.1317 35.2503 77.2056 34.2522 75.0099 33.1405C71.7089 31.4729 70.5737 29.3378 71.6043 26.71C72.2914 24.9792 73.6059 23.5643 75.5775 22.4525C77.5192 21.3534 79.7 20.7975 82.0749 20.7975C86.3169 20.7975 87.96 22.5157 87.0189 25.9394ZM104.256 38.8888C102.359 39.5204 100.626 39.8363 99.0579 39.8363C96.7427 39.8363 95.5926 39.1162 95.6075 37.7012C93.9047 39.1667 92.0078 39.8994 89.8868 39.8994C85.9584 39.8994 84.6888 38.1181 86.1078 34.5302C87.1832 31.814 89.7374 29.8937 93.7703 28.8072C97.4746 27.7839 99.6105 26.5584 100.178 25.1308C100.91 23.2611 100.342 22.3262 98.4305 22.3262C96.2498 22.3262 94.786 23.2358 94.069 25.0424C93.845 25.6109 93.7255 26.3689 93.7106 27.3038L90.6037 26.6721C90.7382 26.1036 90.9025 25.573 91.0966 25.0677C92.2468 22.1746 95.5179 20.7217 100.925 20.7217C106.063 20.7217 108.095 22.0735 107.019 24.7771L102.628 35.882C102.18 37.0316 102.329 37.6001 103.091 37.6001C103.315 37.6001 103.718 37.4738 104.271 37.2085L104.256 38.8888ZM98.789 28.5419C98.1766 29.0093 97.5343 29.401 96.8622 29.7168C95.1445 30.5127 93.9197 31.8519 93.1728 33.7469C92.2169 36.1725 92.2169 37.3727 93.1728 37.3727C94.5918 37.3727 95.7718 36.1852 96.7128 33.7848L98.789 28.5419ZM131.933 14.3544L121.986 39.5331H115.234L115.862 37.9539C114.189 39.2804 112.411 39.9373 110.514 39.9373C106.332 39.9373 105.481 36.7789 107.975 30.4748C110.544 23.9685 114.039 20.7217 118.49 20.7217C120.238 20.7217 121.328 21.4797 121.762 23.0084L125.033 14.7334C127.064 14.7334 129.364 14.6071 131.933 14.3544ZM119.611 23.4C118.475 23.4 117.505 24.4233 116.698 26.47L115.04 30.3485L113.711 33.8859C112.815 36.1346 113.009 37.2717 114.293 37.2717C115.548 37.2717 116.608 36.1599 117.475 33.949L119.312 29.4894L120.387 26.4321C121 24.4107 120.731 23.4 119.611 23.4ZM153.009 39.5331H146.258L151.695 25.8004C152.173 24.6002 152.053 23.9938 151.321 23.9938C149.648 23.9938 148.125 25.7246 146.751 29.1736L142.658 39.5331H135.907L141.224 26.091C141.777 24.7139 141.717 24.0317 141.075 24.0317C139.402 24.0317 137.878 25.7499 136.519 29.1988L132.426 39.5331H125.675L132.934 21.1892C135.205 21.1892 137.52 21.0376 139.85 20.7344L138.61 23.8927C141.03 21.7956 143.405 20.7596 145.735 20.7596C147.677 20.7596 148.752 21.745 148.916 23.7032C151.217 21.7198 153.502 20.7217 155.772 20.7217C158.894 20.7217 159.835 22.263 158.625 25.3456L153.009 39.5331ZM170.335 14.1396C172.442 14.1396 173.173 14.9356 172.546 16.54C171.904 18.1445 170.545 18.9404 168.439 18.9404C166.347 18.9404 165.615 18.1445 166.243 16.54C166.885 14.9356 168.244 14.1396 170.335 14.1396ZM156.848 39.5331L164.077 21.265C166.183 21.265 168.498 21.0881 171.023 20.7596L163.599 39.5331H156.848ZM185.093 39.5331H178.342L183.659 26.1036C184.197 24.7266 184.077 24.0317 183.3 24.0317C182.494 24.0317 181.598 24.575 180.567 25.6614C179.551 26.7479 178.76 28.0365 178.177 29.5147L174.204 39.5331H167.468L174.712 21.2018C177.027 21.2018 179.342 21.0628 181.642 20.747L180.283 24.1833C182.867 21.8966 185.377 20.7596 187.796 20.7596C190.948 20.7596 191.904 22.3262 190.664 25.4467L185.093 39.5331Z" fill="white"/>
</g>
<defs>
<filter id="filter0_d_706_2" x="0.697388" y="0.0361328" width="66.2793" height="61.9414" filterUnits="userSpaceOnUse" color-interpolation-filters="sRGB">
<feFlood flood-opacity="0" result="BackgroundImageFix"/>
<feColorMatrix in="SourceAlpha" type="matrix" values="0 0 0 0 0 0 0 0 0 0 0 0 0 0 0 0 0 0 127 0" result="hardAlpha"/>
<feOffset dy="4"/>
<feGaussianBlur stdDeviation="2"/>
<feComposite in2="hardAlpha" operator="out"/>
<feColorMatrix type="matrix" values="0 0 0 0 0 0 0 0 0 0 0 0 0 0 0 0 0 0 0.89 0"/>
<feBlend mode="normal" in2="BackgroundImageFix" result="effect1_dropShadow_706_2"/>
<feBlend mode="normal" in="SourceGraphic" in2="effect1_dropShadow_706_2" result="shape"/>
</filter>
<filter id="filter1_d_706_2" x="42.7797" y="14.1396" width="152.41" height="40.0132" filterUnits="userSpaceOnUse" color-interpolation-filters="sRGB">
<feFlood flood-opacity="0" result="BackgroundImageFix"/>
<feColorMatrix in="SourceAlpha" type="matrix" values="0 0 0 0 0 0 0 0 0 0 0 0 0 0 0 0 0 0 127 0" result="hardAlpha"/>
<feOffset dy="4"/>
<feGaussianBlur stdDeviation="2"/>
<feComposite in2="hardAlpha" operator="out"/>
<feColorMatrix type="matrix" values="0 0 0 0 0 0 0 0 0 0 0 0 0 0 0 0 0 0 0.89 0"/>
<feBlend mode="normal" in2="BackgroundImageFix" result="effect1_dropShadow_706_2"/>
<feBlend mode="normal" in="SourceGraphic" in2="effect1_dropShadow_706_2" result="shape"/>
</filter>
</defs>
</svg>
