<svg width="30" height="39" viewBox="0 0 30 39" fill="none" xmlns="http://www.w3.org/2000/svg">
<g clip-path="url(#clip0_397_2872)">
<path d="M8.27173 28.8902C9.51558 30.3276 10.6477 31.8417 11.6597 33.4216C12.5239 34.9074 12.8841 35.9149 13.5156 37.7052C13.9029 38.6944 14.253 38.9896 15.0056 38.9896C15.8256 38.9896 16.1977 38.4874 16.4852 37.7106C17.0821 36.0199 17.5505 34.7296 18.2895 33.5104C19.7396 31.1566 21.5415 29.065 23.3119 27.0547C23.7912 26.4858 26.8901 23.1712 28.2852 20.5559C28.2852 20.5559 29.9999 17.6829 29.9999 13.6706C29.9999 9.91746 28.3089 7.31445 28.3089 7.31445L23.4404 8.49678L20.4837 15.5583L19.7522 16.5321L19.606 16.7085L19.4115 16.9293L19.07 17.282L18.582 17.7244L15.9492 19.6695L9.36673 23.1159L8.27173 28.8902Z" fill="#34A853"/>
<path d="M1.47803 20.0727C3.08455 23.4003 6.18252 26.3254 8.27854 28.8924L19.4115 16.9337C19.4115 16.9337 17.843 18.7938 14.998 18.7938C11.8288 18.7938 9.26865 16.499 9.26865 13.6053C9.26865 11.621 10.5851 10.2578 10.5851 10.2578L3.02783 12.0941L1.47803 20.0726V20.0727Z" fill="#FBBC04"/>
<path d="M19.5358 0.615341C23.2333 1.6964 26.3981 3.96594 28.3123 7.31261L19.4149 16.9274C19.4149 16.9274 20.7313 15.5396 20.7313 13.5676C20.7313 10.6066 17.9818 8.39451 15.0114 8.39451C12.2026 8.39451 10.5894 10.2515 10.5894 10.2515V4.19431L19.5358 0.615234V0.615341Z" fill="#4285F4"/>
<path d="M3.51733 4.86331C5.72573 2.46731 9.61167 0 14.969 0C17.5682 0 19.5264 0.618793 19.5264 0.618793L10.5808 10.2565H4.24272L3.51733 4.86342V4.86331Z" fill="#1A73E8"/>
<path d="M1.47797 20.073C1.47797 20.073 0 17.4484 0 13.6461C0 10.0525 1.54055 6.91126 3.51738 4.86328L10.5859 10.2573L1.47797 20.073Z" fill="#EA4335"/>
</g>
<defs>
<clipPath id="clip0_397_2872">
<rect width="30" height="39" fill="white"/>
</clipPath>
</defs>
</svg>
