<svg width="302" height="62" viewBox="0 0 302 62" fill="none" xmlns="http://www.w3.org/2000/svg">
<g filter="url(#filter0_d_430_27)">
<path fill-rule="evenodd" clip-rule="evenodd" d="M62.8963 0.368641V0.166504C58.1614 2.54161 13.1722 18.6241 18.8481 27.1265C21.8355 31.5988 38.7736 23.8291 40.1179 25.9768C43.7923 31.902 11.5591 46.7337 6.16694 49.2983C6.16694 49.2983 4.77783 53.1389 4.77783 53.8338C8.8406 51.345 56.8619 31.8893 49.3786 21.214C46.705 17.386 30.7526 24.1071 29.1096 21.833C26.6301 18.4346 54.9052 6.66014 61.8955 3.52703L62.8963 0.368641Z" fill="white"/>
<path fill-rule="evenodd" clip-rule="evenodd" d="M62.8963 0.368641V0.166504C58.1614 2.54161 13.1722 18.6241 18.8481 27.1265C21.8355 31.5988 38.7736 23.8291 40.1179 25.9768C43.7923 31.902 11.5591 46.7337 6.16694 49.2983C6.16694 49.2983 4.77783 53.1389 4.77783 53.8338C8.8406 51.345 56.8619 31.8893 49.3786 21.214C46.705 17.386 30.7526 24.1071 29.1096 21.833C26.6301 18.4346 54.9052 6.66014 61.8955 3.52703L62.8963 0.368641Z" stroke="#EBECEC" stroke-width="0.160804" stroke-miterlimit="22.9256"/>
</g>
<g filter="url(#filter1_d_430_27)">
<path d="M72.8889 21.2397L56.1748 41.8955C53.8746 44.7381 51.7386 46.153 49.7521 46.153C47.8252 46.153 46.8394 45.3445 46.7797 43.74L49.767 42.085C49.3936 43.4747 49.6475 44.1822 50.5138 44.1822C51.4847 44.1822 52.59 43.3737 53.8447 41.7566L54.8604 40.4427L54.9351 21.2397H62.3586L61.8507 32.0035L70.3945 21.2397H72.8889ZM87.0189 25.9394L83.5238 26.5079C84.6141 23.7664 83.8524 22.3893 81.2385 22.3893C79.6402 22.3893 78.5947 23.0337 78.0868 24.3223C77.7134 25.2698 78.6843 26.2805 80.9995 27.367C84.5395 29.0599 85.7941 31.1949 84.7785 33.7848C83.1354 37.916 79.6552 39.9752 74.3079 39.9752C68.6618 39.9752 66.6454 37.916 68.2884 33.7848L72.0375 33.09C71.8284 33.4942 71.6641 33.8732 71.5147 34.227C71.0965 35.2882 71.1861 36.2231 71.7836 37.0064C72.381 37.8023 73.2922 38.1939 74.517 38.1939C76.1451 38.1939 77.2355 37.5243 77.7732 36.1599C78.1317 35.2503 77.2056 34.2522 75.0099 33.1405C71.7089 31.4729 70.5737 29.3378 71.6043 26.71C72.2914 24.9792 73.6059 23.5643 75.5775 22.4525C77.5192 21.3534 79.7 20.7975 82.0749 20.7975C86.3169 20.7975 87.96 22.5157 87.0189 25.9394ZM104.256 38.8888C102.359 39.5204 100.626 39.8363 99.0579 39.8363C96.7427 39.8363 95.5926 39.1162 95.6075 37.7012C93.9047 39.1667 92.0078 39.8994 89.8868 39.8994C85.9584 39.8994 84.6888 38.1181 86.1078 34.5302C87.1832 31.814 89.7374 29.8937 93.7703 28.8072C97.4746 27.7839 99.6105 26.5584 100.178 25.1308C100.91 23.2611 100.342 22.3262 98.4305 22.3262C96.2498 22.3262 94.786 23.2358 94.069 25.0424C93.845 25.6109 93.7255 26.3689 93.7106 27.3038L90.6037 26.6721C90.7382 26.1036 90.9025 25.573 91.0966 25.0677C92.2468 22.1746 95.5179 20.7217 100.925 20.7217C106.063 20.7217 108.095 22.0735 107.019 24.7771L102.628 35.882C102.18 37.0316 102.329 37.6001 103.091 37.6001C103.315 37.6001 103.718 37.4738 104.271 37.2085L104.256 38.8888ZM98.789 28.5419C98.1766 29.0093 97.5343 29.401 96.8622 29.7168C95.1445 30.5127 93.9197 31.8519 93.1728 33.7469C92.2169 36.1725 92.2169 37.3727 93.1728 37.3727C94.5918 37.3727 95.7718 36.1852 96.7128 33.7848L98.789 28.5419ZM131.933 14.3544L121.986 39.5331H115.234L115.862 37.9539C114.189 39.2804 112.411 39.9373 110.514 39.9373C106.332 39.9373 105.481 36.7789 107.975 30.4748C110.544 23.9685 114.039 20.7217 118.49 20.7217C120.238 20.7217 121.328 21.4797 121.762 23.0084L125.033 14.7334C127.064 14.7334 129.364 14.6071 131.933 14.3544ZM119.611 23.4C118.475 23.4 117.505 24.4233 116.698 26.47L115.04 30.3485L113.711 33.8859C112.815 36.1346 113.009 37.2717 114.293 37.2717C115.548 37.2717 116.608 36.1599 117.475 33.949L119.312 29.4894L120.387 26.4321C121 24.4107 120.731 23.4 119.611 23.4ZM153.009 39.5331H146.258L151.695 25.8004C152.173 24.6002 152.053 23.9938 151.321 23.9938C149.648 23.9938 148.125 25.7246 146.751 29.1736L142.658 39.5331H135.907L141.224 26.091C141.777 24.7139 141.717 24.0317 141.075 24.0317C139.402 24.0317 137.878 25.7499 136.519 29.1988L132.426 39.5331H125.675L132.934 21.1892C135.205 21.1892 137.52 21.0376 139.85 20.7344L138.61 23.8927C141.03 21.7956 143.405 20.7596 145.735 20.7596C147.677 20.7596 148.752 21.745 148.916 23.7032C151.217 21.7198 153.502 20.7217 155.772 20.7217C158.894 20.7217 159.835 22.263 158.625 25.3456L153.009 39.5331ZM170.335 14.1396C172.442 14.1396 173.173 14.9356 172.546 16.54C171.904 18.1445 170.545 18.9404 168.439 18.9404C166.347 18.9404 165.615 18.1445 166.243 16.54C166.885 14.9356 168.244 14.1396 170.335 14.1396ZM156.848 39.5331L164.077 21.265C166.183 21.265 168.498 21.0881 171.023 20.7596L163.599 39.5331H156.848ZM185.093 39.5331H178.342L183.659 26.1036C184.197 24.7266 184.077 24.0317 183.3 24.0317C182.494 24.0317 181.598 24.575 180.567 25.6614C179.551 26.7479 178.76 28.0365 178.177 29.5147L174.204 39.5331H167.468L174.712 21.2018C177.027 21.2018 179.342 21.0628 181.642 20.747L180.283 24.1833C182.867 21.8966 185.377 20.7596 187.796 20.7596C190.948 20.7596 191.904 22.3262 190.664 25.4467L185.093 39.5331Z" fill="white"/>
</g>
<path fill-rule="evenodd" clip-rule="evenodd" d="M193.756 20.4058H301.778V39.8867H193.756V20.4058Z" fill="#0073B2" stroke="#2774A0" stroke-width="0.160804" stroke-miterlimit="22.9256"/>
<path d="M219.91 28.5032L216.355 29.1096C216.236 28.4401 215.967 27.9347 215.534 27.5936C215.115 27.2525 214.563 27.0756 213.891 27.0756C212.994 27.0756 212.277 27.3789 211.74 27.9726C211.202 28.5538 210.933 29.5518 210.933 30.9415C210.933 32.4828 211.202 33.5693 211.755 34.201C212.292 34.8453 213.024 35.1611 213.935 35.1611C214.623 35.1611 215.175 34.9716 215.608 34.6052C216.056 34.2262 216.355 33.5946 216.534 32.6849L220.089 33.2535C219.731 34.8074 219.014 35.9823 217.983 36.7782C216.938 37.5615 215.534 37.9658 213.771 37.9658C211.785 37.9658 210.186 37.3594 209.006 36.1592C207.811 34.959 207.229 33.304 207.229 31.1816C207.229 29.0338 207.826 27.3662 209.006 26.166C210.201 24.9785 211.814 24.3721 213.846 24.3721C215.504 24.3721 216.818 24.7132 217.804 25.3954C218.775 26.0776 219.477 27.1135 219.91 28.5032ZM221.807 30.992C221.807 29.8424 222.106 28.7433 222.703 27.6694C223.286 26.5956 224.122 25.787 225.213 25.2185C226.288 24.6626 227.498 24.3721 228.842 24.3721C230.903 24.3721 232.591 25.0164 233.906 26.2924C235.235 27.5684 235.892 29.1855 235.892 31.131C235.892 33.1018 235.22 34.7316 233.891 36.0202C232.561 37.3215 230.889 37.9658 228.857 37.9658C227.617 37.9658 226.422 37.6878 225.287 37.1572C224.152 36.614 223.286 35.8307 222.703 34.7821C222.106 33.7462 221.807 32.4828 221.807 30.992ZM225.526 31.1689C225.526 32.4575 225.84 33.443 226.482 34.1252C227.124 34.82 227.916 35.1611 228.857 35.1611C229.798 35.1611 230.59 34.82 231.217 34.1252C231.859 33.443 232.173 32.4449 232.173 31.1436C232.173 29.8677 231.859 28.8949 231.217 28.2127C230.59 27.5178 229.798 27.1767 228.857 27.1767C227.916 27.1767 227.124 27.5178 226.482 28.2127C225.84 28.8949 225.526 29.8803 225.526 31.1689ZM238.461 24.65H241.777V26.4187C242.972 25.0669 244.391 24.3721 246.034 24.3721C246.901 24.3721 247.662 24.5489 248.305 24.89C248.947 25.2312 249.47 25.7491 249.888 26.444C250.485 25.7491 251.128 25.2312 251.83 24.89C252.517 24.5489 253.264 24.3721 254.055 24.3721C255.056 24.3721 255.892 24.5742 256.594 24.9532C257.282 25.3449 257.804 25.9134 258.148 26.6587C258.402 27.2146 258.521 28.1116 258.521 29.3497V37.6373H254.922V30.2214C254.922 28.9328 254.787 28.1116 254.548 27.7326C254.205 27.2525 253.697 26.9998 252.995 26.9998C252.487 26.9998 252.009 27.1514 251.576 27.442C251.128 27.7326 250.799 28.1621 250.605 28.7306C250.411 29.2992 250.306 30.1961 250.306 31.409V37.6373H246.706V30.5372C246.706 29.2739 246.632 28.4527 246.512 28.0863C246.378 27.72 246.184 27.4547 245.915 27.2652C245.646 27.0883 245.272 26.9998 244.824 26.9998C244.257 26.9998 243.764 27.1514 243.316 27.4294C242.868 27.72 242.554 28.1242 242.36 28.6675C242.166 29.1981 242.076 30.0951 242.076 31.3332V37.6373H238.461V24.65ZM262.106 37.6373V34.2136H265.706V37.6373H262.106ZM278.477 37.6373V35.6917C277.969 36.3866 277.312 36.9424 276.505 37.3467C275.698 37.7636 274.832 37.9658 273.936 37.9658C273.025 37.9658 272.188 37.7763 271.471 37.3846C270.739 37.0056 270.202 36.4624 269.888 35.7675C269.559 35.0727 269.395 34.1125 269.395 32.8871V24.65H272.995V30.6257C272.995 32.4575 273.07 33.5819 273.204 33.9988C273.338 34.4031 273.577 34.7316 273.921 34.9716C274.279 35.2117 274.728 35.338 275.265 35.338C275.893 35.338 276.445 35.1737 276.938 34.8579C277.416 34.5294 277.76 34.1252 277.939 33.6451C278.118 33.1776 278.208 32.0027 278.208 30.1456V24.65H281.807V37.6373H278.477ZM288.2 28.6548L284.944 28.099C285.318 26.8356 285.945 25.9007 286.841 25.2943C287.752 24.6753 289.082 24.3721 290.859 24.3721C292.472 24.3721 293.667 24.5616 294.459 24.9153C295.236 25.2817 295.803 25.7365 296.117 26.305C296.445 26.8609 296.595 27.8842 296.595 29.375L296.55 33.3798C296.55 34.5168 296.61 35.3506 296.714 35.8939C296.834 36.4371 297.043 37.0182 297.371 37.6373H293.787C293.697 37.4099 293.578 37.0814 293.443 36.6392C293.383 36.4371 293.339 36.2981 293.309 36.235C292.696 36.8161 292.039 37.2456 291.337 37.5236C290.635 37.8142 289.888 37.9658 289.097 37.9658C287.693 37.9658 286.587 37.5994 285.781 36.8793C284.974 36.1592 284.571 35.2369 284.571 34.1252C284.571 33.3924 284.765 32.7481 285.123 32.167C285.497 31.5985 286.005 31.1563 286.677 30.8531C287.334 30.5499 288.29 30.2719 289.545 30.0445C291.232 29.754 292.398 29.4634 293.055 29.2107V28.857C293.055 28.1874 292.876 27.72 292.532 27.4294C292.188 27.1514 291.546 26.9998 290.59 26.9998C289.948 26.9998 289.44 27.1262 289.082 27.3662C288.723 27.6189 288.424 28.0484 288.2 28.6548ZM293.055 31.4342C292.592 31.5732 291.86 31.7501 290.844 31.9522C289.858 32.167 289.186 32.3565 288.887 32.5586C288.409 32.8744 288.185 33.2787 288.185 33.7588C288.185 34.2515 288.365 34.6558 288.738 35.0095C289.126 35.3633 289.604 35.5401 290.187 35.5401C290.829 35.5401 291.457 35.3254 292.054 34.9211C292.487 34.6179 292.771 34.2389 292.905 33.7841C292.995 33.4935 293.055 32.9376 293.055 32.1164V31.4342Z" fill="#FEFEFE"/>
<path fill-rule="evenodd" clip-rule="evenodd" d="M200.059 32.7988C201.807 32.7988 203.226 33.999 203.226 35.4771C203.226 36.9679 201.807 38.1681 200.059 38.1681C198.312 38.1681 196.893 36.9679 196.893 35.4771C196.893 33.999 198.312 32.7988 200.059 32.7988Z" fill="#E31E24"/>
<defs>
<filter id="filter0_d_430_27" x="0.697388" y="0.0361328" width="66.2793" height="61.9414" filterUnits="userSpaceOnUse" color-interpolation-filters="sRGB">
<feFlood flood-opacity="0" result="BackgroundImageFix"/>
<feColorMatrix in="SourceAlpha" type="matrix" values="0 0 0 0 0 0 0 0 0 0 0 0 0 0 0 0 0 0 127 0" result="hardAlpha"/>
<feOffset dy="4"/>
<feGaussianBlur stdDeviation="2"/>
<feComposite in2="hardAlpha" operator="out"/>
<feColorMatrix type="matrix" values="0 0 0 0 0 0 0 0 0 0 0 0 0 0 0 0 0 0 0.89 0"/>
<feBlend mode="normal" in2="BackgroundImageFix" result="effect1_dropShadow_430_27"/>
<feBlend mode="normal" in="SourceGraphic" in2="effect1_dropShadow_430_27" result="shape"/>
</filter>
<filter id="filter1_d_430_27" x="42.7797" y="14.1396" width="152.41" height="40.0132" filterUnits="userSpaceOnUse" color-interpolation-filters="sRGB">
<feFlood flood-opacity="0" result="BackgroundImageFix"/>
<feColorMatrix in="SourceAlpha" type="matrix" values="0 0 0 0 0 0 0 0 0 0 0 0 0 0 0 0 0 0 127 0" result="hardAlpha"/>
<feOffset dy="4"/>
<feGaussianBlur stdDeviation="2"/>
<feComposite in2="hardAlpha" operator="out"/>
<feColorMatrix type="matrix" values="0 0 0 0 0 0 0 0 0 0 0 0 0 0 0 0 0 0 0.89 0"/>
<feBlend mode="normal" in2="BackgroundImageFix" result="effect1_dropShadow_430_27"/>
<feBlend mode="normal" in="SourceGraphic" in2="effect1_dropShadow_430_27" result="shape"/>
</filter>
</defs>
</svg>
