<svg width="303" height="62" viewBox="0 0 303 62" fill="none" xmlns="http://www.w3.org/2000/svg">
<g filter="url(#filter0_d_430_27)">
<path fill-rule="evenodd" clip-rule="evenodd" d="M63.1184 0.368641V0.166504C58.3835 2.54161 13.3944 18.6241 19.0703 27.1265C22.0576 31.5988 38.9958 23.8291 40.3401 25.9768C44.0145 31.902 11.7812 46.7337 6.38911 49.2983C6.38911 49.2983 5 53.1389 5 53.8338C9.06276 51.345 57.084 31.8893 49.6008 21.214C46.9271 17.386 30.9748 24.1071 29.3318 21.833C26.8523 18.4346 55.1273 6.66014 62.1177 3.52703L63.1184 0.368641Z" fill="white"/>
<path fill-rule="evenodd" clip-rule="evenodd" d="M63.1184 0.368641V0.166504C58.3835 2.54161 13.3944 18.6241 19.0703 27.1265C22.0576 31.5988 38.9958 23.8291 40.3401 25.9768C44.0145 31.902 11.7812 46.7337 6.38911 49.2983C6.38911 49.2983 5 53.1389 5 53.8338C9.06276 51.345 57.084 31.8893 49.6008 21.214C46.9271 17.386 30.9748 24.1071 29.3318 21.833C26.8523 18.4346 55.1273 6.66014 62.1177 3.52703L63.1184 0.368641Z" stroke="#EBECEC" stroke-width="0.160804" stroke-miterlimit="22.9256"/>
</g>
<g filter="url(#filter1_d_430_27)">
<path d="M73.1111 21.2397L56.397 41.8955C54.0967 44.7381 51.9608 46.153 49.9742 46.153C48.0474 46.153 47.0616 45.3445 47.0018 43.74L49.9892 42.085C49.6157 43.4747 49.8697 44.1822 50.736 44.1822C51.7069 44.1822 52.8122 43.3737 54.0669 41.7566L55.0825 40.4427L55.1572 21.2397H62.5807L62.0729 32.0035L70.6166 21.2397H73.1111ZM87.2411 25.9394L83.7459 26.5079C84.8363 23.7664 84.0745 22.3893 81.4606 22.3893C79.8624 22.3893 78.8169 23.0337 78.309 24.3223C77.9356 25.2698 78.9065 26.2805 81.2217 27.367C84.7616 29.0599 86.0163 31.1949 85.0006 33.7848C83.3576 37.916 79.8774 39.9752 74.53 39.9752C68.884 39.9752 66.8675 37.916 68.5106 33.7848L72.2597 33.09C72.0506 33.4942 71.8863 33.8732 71.7369 34.227C71.3187 35.2882 71.4083 36.2231 72.0057 37.0064C72.6032 37.8023 73.5143 38.1939 74.7392 38.1939C76.3672 38.1939 77.4576 37.5243 77.9953 36.1599C78.3538 35.2503 77.4277 34.2522 75.2321 33.1405C71.9311 31.4729 70.7959 29.3378 71.8265 26.71C72.5136 24.9792 73.828 23.5643 75.7997 22.4525C77.7414 21.3534 79.9222 20.7975 82.2971 20.7975C86.5391 20.7975 88.1821 22.5157 87.2411 25.9394ZM104.478 38.8888C102.581 39.5204 100.848 39.8363 99.28 39.8363C96.9649 39.8363 95.8147 39.1162 95.8297 37.7012C94.1269 39.1667 92.2299 39.8994 90.1089 39.8994C86.1806 39.8994 84.911 38.1181 86.33 34.5302C87.4054 31.814 89.9596 29.8937 93.9925 28.8072C97.6968 27.7839 99.8327 26.5584 100.4 25.1308C101.132 23.2611 100.565 22.3262 98.6527 22.3262C96.472 22.3262 95.0082 23.2358 94.2912 25.0424C94.0672 25.6109 93.9477 26.3689 93.9327 27.3038L90.8259 26.6721C90.9603 26.1036 91.1246 25.573 91.3188 25.0677C92.4689 22.1746 95.7401 20.7217 101.147 20.7217C106.285 20.7217 108.317 22.0735 107.241 24.7771L102.85 35.882C102.402 37.0316 102.551 37.6001 103.313 37.6001C103.537 37.6001 103.94 37.4738 104.493 37.2085L104.478 38.8888ZM99.0112 28.5419C98.3988 29.0093 97.7565 29.401 97.0844 29.7168C95.3666 30.5127 94.1418 31.8519 93.395 33.7469C92.4391 36.1725 92.4391 37.3727 93.395 37.3727C94.814 37.3727 95.994 36.1852 96.935 33.7848L99.0112 28.5419ZM132.156 14.3544L122.208 39.5331H115.456L116.084 37.9539C114.411 39.2804 112.633 39.9373 110.736 39.9373C106.554 39.9373 105.703 36.7789 108.197 30.4748C110.766 23.9685 114.261 20.7217 118.713 20.7217C120.46 20.7217 121.551 21.4797 121.984 23.0084L125.255 14.7334C127.286 14.7334 129.586 14.6071 132.156 14.3544ZM119.833 23.4C118.698 23.4 117.727 24.4233 116.92 26.47L115.262 30.3485L113.933 33.8859C113.037 36.1346 113.231 37.2717 114.515 37.2717C115.77 37.2717 116.831 36.1599 117.697 33.949L119.534 29.4894L120.61 26.4321C121.222 24.4107 120.953 23.4 119.833 23.4ZM153.231 39.5331H146.48L151.917 25.8004C152.395 24.6002 152.275 23.9938 151.543 23.9938C149.87 23.9938 148.347 25.7246 146.973 29.1736L142.88 39.5331H136.129L141.446 26.091C141.999 24.7139 141.939 24.0317 141.297 24.0317C139.624 24.0317 138.1 25.7499 136.741 29.1988L132.648 39.5331H125.897L133.156 21.1892C135.427 21.1892 137.742 21.0376 140.072 20.7344L138.832 23.8927C141.252 21.7956 143.627 20.7596 145.957 20.7596C147.899 20.7596 148.974 21.745 149.139 23.7032C151.439 21.7198 153.724 20.7217 155.994 20.7217C159.116 20.7217 160.057 22.263 158.847 25.3456L153.231 39.5331ZM170.558 14.1396C172.664 14.1396 173.396 14.9356 172.768 16.54C172.126 18.1445 170.767 18.9404 168.661 18.9404C166.57 18.9404 165.838 18.1445 166.465 16.54C167.107 14.9356 168.467 14.1396 170.558 14.1396ZM157.07 39.5331L164.299 21.265C166.405 21.265 168.72 21.0881 171.245 20.7596L163.821 39.5331H157.07ZM185.315 39.5331H178.564L183.881 26.1036C184.419 24.7266 184.299 24.0317 183.523 24.0317C182.716 24.0317 181.82 24.575 180.789 25.6614C179.774 26.7479 178.982 28.0365 178.399 29.5147L174.426 39.5331H167.69L174.934 21.2018C177.249 21.2018 179.564 21.0628 181.865 20.747L180.505 24.1833C183.089 21.8966 185.599 20.7596 188.019 20.7596C191.17 20.7596 192.126 22.3262 190.886 25.4467L185.315 39.5331Z" fill="white"/>
</g>
<path fill-rule="evenodd" clip-rule="evenodd" d="M193.978 20.4058H302V39.8867H193.978V20.4058Z" fill="#0073B2" stroke="#2774A0" stroke-width="0.160804" stroke-miterlimit="22.9256"/>
<path d="M220.132 28.5032L216.577 29.1096C216.458 28.4401 216.189 27.9347 215.756 27.5936C215.338 27.2525 214.785 27.0756 214.113 27.0756C213.217 27.0756 212.5 27.3789 211.962 27.9726C211.424 28.5538 211.155 29.5518 211.155 30.9415C211.155 32.4828 211.424 33.5693 211.977 34.201C212.515 34.8453 213.246 35.1611 214.158 35.1611C214.845 35.1611 215.397 34.9716 215.831 34.6052C216.279 34.2262 216.577 33.5946 216.757 32.6849L220.311 33.2535C219.953 34.8074 219.236 35.9823 218.205 36.7782C217.16 37.5615 215.756 37.9658 213.993 37.9658C212.007 37.9658 210.409 37.3594 209.229 36.1592C208.034 34.959 207.451 33.304 207.451 31.1816C207.451 29.0338 208.049 27.3662 209.229 26.166C210.423 24.9785 212.037 24.3721 214.068 24.3721C215.726 24.3721 217.04 24.7132 218.026 25.3954C218.997 26.0776 219.699 27.1135 220.132 28.5032ZM222.029 30.992C222.029 29.8424 222.328 28.7433 222.925 27.6694C223.508 26.5956 224.344 25.787 225.435 25.2185C226.51 24.6626 227.72 24.3721 229.064 24.3721C231.126 24.3721 232.813 25.0164 234.128 26.2924C235.457 27.5684 236.114 29.1855 236.114 31.131C236.114 33.1018 235.442 34.7316 234.113 36.0202C232.784 37.3215 231.111 37.9658 229.079 37.9658C227.84 37.9658 226.645 37.6878 225.509 37.1572C224.374 36.614 223.508 35.8307 222.925 34.7821C222.328 33.7462 222.029 32.4828 222.029 30.992ZM225.748 31.1689C225.748 32.4575 226.062 33.443 226.704 34.1252C227.347 34.82 228.138 35.1611 229.079 35.1611C230.02 35.1611 230.812 34.82 231.439 34.1252C232.082 33.443 232.395 32.4449 232.395 31.1436C232.395 29.8677 232.082 28.8949 231.439 28.2127C230.812 27.5178 230.02 27.1767 229.079 27.1767C228.138 27.1767 227.347 27.5178 226.704 28.2127C226.062 28.8949 225.748 29.8803 225.748 31.1689ZM238.684 24.65H241.999V26.4187C243.194 25.0669 244.613 24.3721 246.256 24.3721C247.123 24.3721 247.885 24.5489 248.527 24.89C249.169 25.2312 249.692 25.7491 250.11 26.444C250.708 25.7491 251.35 25.2312 252.052 24.89C252.739 24.5489 253.486 24.3721 254.277 24.3721C255.278 24.3721 256.115 24.5742 256.817 24.9532C257.504 25.3449 258.027 25.9134 258.37 26.6587C258.624 27.2146 258.743 28.1116 258.743 29.3497V37.6373H255.144V30.2214C255.144 28.9328 255.009 28.1116 254.77 27.7326C254.427 27.2525 253.919 26.9998 253.217 26.9998C252.709 26.9998 252.231 27.1514 251.798 27.442C251.35 27.7326 251.021 28.1621 250.827 28.7306C250.633 29.2992 250.528 30.1961 250.528 31.409V37.6373H246.929V30.5372C246.929 29.2739 246.854 28.4527 246.734 28.0863C246.6 27.72 246.406 27.4547 246.137 27.2652C245.868 27.0883 245.495 26.9998 245.047 26.9998C244.479 26.9998 243.986 27.1514 243.538 27.4294C243.09 27.72 242.776 28.1242 242.582 28.6675C242.388 29.1981 242.298 30.0951 242.298 31.3332V37.6373H238.684V24.65ZM262.328 37.6373V34.2136H265.928V37.6373H262.328ZM278.699 37.6373V35.6917C278.191 36.3866 277.534 36.9424 276.727 37.3467C275.921 37.7636 275.054 37.9658 274.158 37.9658C273.247 37.9658 272.41 37.7763 271.694 37.3846C270.962 37.0056 270.424 36.4624 270.11 35.7675C269.782 35.0727 269.617 34.1125 269.617 32.8871V24.65H273.217V30.6257C273.217 32.4575 273.292 33.5819 273.426 33.9988C273.561 34.4031 273.8 34.7316 274.143 34.9716C274.502 35.2117 274.95 35.338 275.487 35.338C276.115 35.338 276.667 35.1737 277.16 34.8579C277.638 34.5294 277.982 34.1252 278.161 33.6451C278.34 33.1776 278.43 32.0027 278.43 30.1456V24.65H282.03V37.6373H278.699ZM288.423 28.6548L285.166 28.099C285.54 26.8356 286.167 25.9007 287.063 25.2943C287.974 24.6753 289.304 24.3721 291.081 24.3721C292.694 24.3721 293.889 24.5616 294.681 24.9153C295.458 25.2817 296.025 25.7365 296.339 26.305C296.668 26.8609 296.817 27.8842 296.817 29.375L296.772 33.3798C296.772 34.5168 296.832 35.3506 296.936 35.8939C297.056 36.4371 297.265 37.0182 297.594 37.6373H294.009C293.919 37.4099 293.8 37.0814 293.665 36.6392C293.606 36.4371 293.561 36.2981 293.531 36.235C292.918 36.8161 292.261 37.2456 291.559 37.5236C290.857 37.8142 290.11 37.9658 289.319 37.9658C287.915 37.9658 286.809 37.5994 286.003 36.8793C285.196 36.1592 284.793 35.2369 284.793 34.1252C284.793 33.3924 284.987 32.7481 285.346 32.167C285.719 31.5985 286.227 31.1563 286.899 30.8531C287.556 30.5499 288.512 30.2719 289.767 30.0445C291.455 29.754 292.62 29.4634 293.277 29.2107V28.857C293.277 28.1874 293.098 27.72 292.754 27.4294C292.411 27.1514 291.768 26.9998 290.812 26.9998C290.17 26.9998 289.662 27.1262 289.304 27.3662C288.945 27.6189 288.647 28.0484 288.423 28.6548ZM293.277 31.4342C292.814 31.5732 292.082 31.7501 291.066 31.9522C290.081 32.167 289.408 32.3565 289.11 32.5586C288.632 32.8744 288.408 33.2787 288.408 33.7588C288.408 34.2515 288.587 34.6558 288.96 35.0095C289.349 35.3633 289.827 35.5401 290.409 35.5401C291.051 35.5401 291.679 35.3254 292.276 34.9211C292.709 34.6179 292.993 34.2389 293.128 33.7841C293.217 33.4935 293.277 32.9376 293.277 32.1164V31.4342Z" fill="#FEFEFE"/>
<path fill-rule="evenodd" clip-rule="evenodd" d="M200.282 32.7988C202.029 32.7988 203.448 33.999 203.448 35.4771C203.448 36.9679 202.029 38.1681 200.282 38.1681C198.534 38.1681 197.115 36.9679 197.115 35.4771C197.115 33.999 198.534 32.7988 200.282 32.7988Z" fill="#E31E24"/>
<defs>
<filter id="filter0_d_430_27" x="0.919556" y="0.0361328" width="66.2793" height="61.9414" filterUnits="userSpaceOnUse" color-interpolation-filters="sRGB">
<feFlood flood-opacity="0" result="BackgroundImageFix"/>
<feColorMatrix in="SourceAlpha" type="matrix" values="0 0 0 0 0 0 0 0 0 0 0 0 0 0 0 0 0 0 127 0" result="hardAlpha"/>
<feOffset dy="4"/>
<feGaussianBlur stdDeviation="2"/>
<feComposite in2="hardAlpha" operator="out"/>
<feColorMatrix type="matrix" values="0 0 0 0 0 0 0 0 0 0 0 0 0 0 0 0 0 0 0.89 0"/>
<feBlend mode="normal" in2="BackgroundImageFix" result="effect1_dropShadow_430_27"/>
<feBlend mode="normal" in="SourceGraphic" in2="effect1_dropShadow_430_27" result="shape"/>
</filter>
<filter id="filter1_d_430_27" x="43.0018" y="14.1396" width="152.41" height="40.0132" filterUnits="userSpaceOnUse" color-interpolation-filters="sRGB">
<feFlood flood-opacity="0" result="BackgroundImageFix"/>
<feColorMatrix in="SourceAlpha" type="matrix" values="0 0 0 0 0 0 0 0 0 0 0 0 0 0 0 0 0 0 127 0" result="hardAlpha"/>
<feOffset dy="4"/>
<feGaussianBlur stdDeviation="2"/>
<feComposite in2="hardAlpha" operator="out"/>
<feColorMatrix type="matrix" values="0 0 0 0 0 0 0 0 0 0 0 0 0 0 0 0 0 0 0.89 0"/>
<feBlend mode="normal" in2="BackgroundImageFix" result="effect1_dropShadow_430_27"/>
<feBlend mode="normal" in="SourceGraphic" in2="effect1_dropShadow_430_27" result="shape"/>
</filter>
</defs>
</svg>
