<svg width="30" height="30" viewBox="0 0 30 30" fill="none" xmlns="http://www.w3.org/2000/svg">
<path d="M27.8278 29.6666C12.1877 29.6886 0.31683 17.6766 0.33333 2.17208C0.33333 1.15825 1.15466 0.333252 2.16666 0.333252H7.00666C7.91416 0.333252 8.686 1.00059 8.81983 1.89892C9.13902 4.05319 9.76568 6.1505 10.6807 8.12675L10.8695 8.53375C10.9963 8.80763 11.0236 9.1172 10.9467 9.40905C10.8697 9.70089 10.6933 9.95673 10.4478 10.1324C8.94816 11.2031 8.37616 13.3573 9.544 15.0366C11.0143 17.151 12.8494 18.9867 14.9633 20.4578C16.6445 21.6238 18.7987 21.0518 19.8675 19.5539C20.043 19.3078 20.2991 19.1307 20.5913 19.0533C20.8836 18.976 21.1937 19.0033 21.468 19.1304L21.8732 19.3174C23.8495 20.2341 25.9468 20.8611 28.101 21.1801C28.9993 21.3139 29.6667 22.0858 29.6667 22.9951V27.8333C29.6667 28.0742 29.6192 28.3127 29.5269 28.5353C29.4347 28.7578 29.2995 28.96 29.129 29.1303C28.9586 29.3005 28.7563 29.4355 28.5336 29.5276C28.311 29.6196 28.0724 29.6668 27.8315 29.6666H27.8278Z" fill="black"/>
</svg>
