<svg width="70" height="68" viewBox="0 0 70 68" fill="none" xmlns="http://www.w3.org/2000/svg">
<path d="M48.125 25.5C48.125 28.8815 46.7422 32.1245 44.2808 34.5156C41.8194 36.9067 38.481 38.25 35 38.25C31.519 38.25 28.1806 36.9067 25.7192 34.5156C23.2578 32.1245 21.875 28.8815 21.875 25.5C21.875 22.1185 23.2578 18.8755 25.7192 16.4844C28.1806 14.0933 31.519 12.75 35 12.75C38.481 12.75 41.8194 14.0933 44.2808 16.4844C46.7422 18.8755 48.125 22.1185 48.125 25.5Z" fill="#A5AFBB"/>
<path d="M8.75 0C6.42936 0 4.20376 0.895533 2.56282 2.48959C0.921873 4.08365 0 6.24566 0 8.5L0 59.5C0 61.7543 0.921873 63.9163 2.56282 65.5104C4.20376 67.1045 6.42936 68 8.75 68H61.25C63.5706 68 65.7962 67.1045 67.4372 65.5104C69.0781 63.9163 70 61.7543 70 59.5V8.5C70 6.24566 69.0781 4.08365 67.4372 2.48959C65.7962 0.895533 63.5706 0 61.25 0L8.75 0ZM61.25 2.80412C62.4103 2.80412 64.6295 3.75967 65.45 4.5567C66.2705 5.35373 67.2 7.2852 67.2 8.41237V59.5C67.2 60.6272 66.2705 62.9968 65.45 63.7938C64.6295 64.5908 62.4103 64.8454 61.25 64.8454V59.5C61.25 55.25 56.875 42.5 35 42.5C13.125 42.5 8.75 55.25 8.75 59.5V64.8454C7.58968 64.8454 5.72047 64.2403 4.9 63.4433C4.07953 62.6463 3.15 60.6272 3.15 59.5V8.5C3.15 7.37283 3.72953 5.35373 4.55 4.5567C5.37047 3.75967 7.58968 3.15464 8.75 3.15464L61.25 2.80412Z" fill="#A5AFBB"/>
</svg>
