<svg width="45" height="45" viewBox="0 0 45 45" fill="none" xmlns="http://www.w3.org/2000/svg">
<circle cx="22.5" cy="22.5" r="22.5" fill="#4B6D92"/>
<path d="M28.9828 25.5596C28.9828 26.7423 29.3189 27.214 30.1978 27.214C32.1567 27.214 33.4041 24.7148 33.4041 20.5584C33.4041 14.2054 28.7803 11.1641 23.0077 11.1641C17.0691 11.1641 11.6677 15.1516 11.6677 22.6873C11.6677 29.885 16.3927 33.8049 23.6489 33.8049C26.1127 33.8049 27.7664 33.5346 30.2963 32.6898L30.8391 34.9524C28.3416 35.7649 25.6725 36 23.6152 36C14.0977 36 9 30.7622 9 22.6859C9 14.5419 14.9077 9 23.0414 9C31.5127 9 36 14.0688 36 20.2866C36 25.5582 34.3477 29.5795 29.1502 29.5795C26.7863 29.5795 25.2352 28.6333 25.0327 26.5368C24.4252 28.8684 22.8052 29.5795 20.61 29.5795C17.6738 29.5795 15.21 27.314 15.21 22.7534C15.21 18.1577 17.3714 15.3191 21.2527 15.3191C23.3114 15.3191 24.5939 16.1302 25.1648 17.4143L26.145 15.6233H28.98V25.5596H28.9828ZM24.833 21.099C24.833 19.2419 23.4478 18.4632 22.3003 18.4632C21.0516 18.4632 19.6692 19.4756 19.6692 22.4507C19.6692 24.8162 20.7155 26.1341 22.3003 26.1341C23.4141 26.1341 24.833 25.4244 24.833 23.4645V21.099Z" fill="white"/>
</svg>
