<svg width="26" height="26" viewBox="0 0 26 26" fill="none" xmlns="http://www.w3.org/2000/svg">
<ellipse cx="13.2778" cy="13" rx="12.5" ry="13" fill="#530EAC"/>
<path d="M19.6478 5.96098C19.232 5.58143 17.548 4.36129 13.7978 4.34527C13.7978 4.34527 9.37252 4.08132 7.21685 6.05291C6.01779 7.24798 5.59783 8.99811 5.54962 11.1689C5.5014 13.3396 5.4476 17.4082 9.3823 18.5141H9.3858L9.3823 20.1988C9.3823 20.1988 9.35645 20.8813 9.80645 21.0185C10.3501 21.1884 10.6715 20.6689 11.1921 20.1103C11.4772 19.8032 11.8699 19.3533 12.1683 19.01C13.8781 19.1678 15.6024 19.0367 17.2685 18.6221L17.1637 18.6443C17.7073 18.4681 20.7832 18.0761 21.2808 14.0082C21.8006 9.80875 21.0334 7.15954 19.6478 5.96098ZM20.1033 13.7018C19.6792 17.0969 17.1874 17.3128 16.729 17.459C15.7284 17.7125 14.5797 17.8574 13.3967 17.8574C13.0571 17.8574 12.7203 17.8455 12.387 17.8219L12.4317 17.8246C12.4317 17.8246 10.7281 19.8715 10.1978 20.4035C10.0245 20.5762 9.8337 20.5623 9.8372 20.2176C9.8372 19.9926 9.85047 17.4193 9.85047 17.4193C6.51949 16.4986 6.71235 13.0332 6.75148 11.2232C6.79061 9.41318 7.13161 7.92561 8.1469 6.92693C9.97206 5.27848 13.7293 5.52293 13.7293 5.52293C16.9037 5.53616 18.4235 6.48957 18.7771 6.80923C19.9468 7.80861 20.5429 10.1988 20.1033 13.7011V13.7018ZM15.5537 11.0637V11.0735C15.5523 11.1277 15.53 11.1793 15.4914 11.2176C15.4529 11.2559 15.4011 11.278 15.3466 11.2794C15.2922 11.2807 15.2394 11.2612 15.199 11.2248C15.1586 11.1884 15.1337 11.138 15.1296 11.0839V11.0832C15.1438 10.9378 15.1262 10.7911 15.078 10.6531C15.0298 10.5151 14.9521 10.3892 14.8504 10.2841C14.7486 10.1789 14.6251 10.0971 14.4885 10.0441C14.3519 9.99113 14.2054 9.96834 14.0591 9.97729H14.0619C14.0076 9.9731 13.957 9.94827 13.9205 9.90795C13.884 9.86763 13.8645 9.81489 13.8659 9.76063C13.8674 9.70636 13.8897 9.65472 13.9282 9.61637C13.9668 9.57802 14.0186 9.55589 14.0731 9.55456H14.0849H14.0842L14.1325 9.55386C14.3275 9.55379 14.5206 9.5937 14.6995 9.67109C14.8785 9.74849 15.0396 9.86172 15.1728 10.0038C15.306 10.1458 15.4085 10.3136 15.4739 10.4968C15.5393 10.68 15.5662 10.8746 15.553 11.0686V11.0644L15.5537 11.0637ZM16.2183 11.4335C16.2511 10.049 15.3832 8.96538 13.7356 8.8442C13.707 8.84331 13.6789 8.83667 13.6529 8.82469C13.627 8.8127 13.6037 8.79562 13.5845 8.77446C13.5654 8.7533 13.5507 8.7285 13.5414 8.70154C13.532 8.67459 13.5283 8.64604 13.5303 8.6176C13.5323 8.58917 13.5401 8.56143 13.5531 8.53606C13.5662 8.51068 13.5842 8.4882 13.6062 8.46995C13.6282 8.4517 13.6536 8.43806 13.681 8.42985C13.7084 8.42163 13.7372 8.41902 13.7656 8.42216H13.7649H13.7768C14.1678 8.42215 14.5547 8.5018 14.9137 8.65622C15.2728 8.81065 15.5963 9.03658 15.8645 9.32016C16.1328 9.60373 16.34 9.93896 16.4735 10.3053C16.6071 10.6716 16.664 11.0612 16.641 11.4502L16.6417 11.4426C16.638 11.4965 16.6136 11.547 16.5737 11.5837C16.5338 11.6204 16.4813 11.6404 16.427 11.6397C16.3727 11.639 16.3208 11.6176 16.2818 11.5799C16.2429 11.5422 16.2199 11.4911 16.2176 11.437V11.4314L16.2183 11.4335ZM17.7555 11.8716V11.873C17.7527 11.9269 17.7292 11.9778 17.69 12.0151C17.6508 12.0524 17.5987 12.0734 17.5444 12.0736C17.4902 12.0739 17.4379 12.0535 17.3983 12.0166C17.3587 11.9796 17.3347 11.929 17.3314 11.8751C17.3146 9.21331 15.5335 7.76404 13.375 7.74872C13.3472 7.74872 13.3197 7.74326 13.294 7.73265C13.2683 7.72205 13.245 7.70651 13.2253 7.68691C13.2056 7.66732 13.19 7.64405 13.1794 7.61845C13.1688 7.59285 13.1633 7.56541 13.1633 7.5377C13.1633 7.50999 13.1688 7.48255 13.1794 7.45695C13.19 7.43134 13.2056 7.40808 13.2253 7.38849C13.245 7.36889 13.2683 7.35335 13.294 7.34274C13.3197 7.33214 13.3472 7.32668 13.375 7.32668C15.792 7.34339 17.7346 9.00577 17.7541 11.8709L17.7555 11.8716ZM17.3887 15.0738V15.08C17.0351 15.7005 16.3734 16.3858 15.6921 16.1671L15.6858 16.1574C14.4711 15.7119 13.3326 15.0826 12.3101 14.2917L12.3387 14.3126C11.83 13.9099 11.3684 13.4513 10.9629 12.9455L10.9496 12.9281C10.5824 12.4674 10.2547 11.9768 9.96996 11.4614L9.94201 11.4064C9.6051 10.8528 9.32578 10.2664 9.10839 9.65623L9.08743 9.58798C8.86802 8.90897 9.5521 8.24945 10.1782 7.89706H10.1845C10.3077 7.81847 10.4556 7.78789 10.5999 7.81114C10.7443 7.83439 10.875 7.90986 10.9671 8.02311L10.9678 8.0245C10.9678 8.0245 11.3738 8.50713 11.5478 8.746C11.7113 8.96816 11.9314 9.32404 12.0453 9.52252C12.131 9.65814 12.1659 9.81961 12.1438 9.97839C12.1217 10.1372 12.044 10.2831 11.9244 10.3903L11.9237 10.391L11.531 10.7044C11.4698 10.7633 11.4224 10.835 11.3925 10.9144C11.3625 10.9938 11.3506 11.0788 11.3577 11.1633V11.1612C11.5521 11.807 11.9031 12.3952 12.3796 12.8739C12.8561 13.3525 13.4434 13.7069 14.0898 13.9058L14.1192 13.9135C14.2036 13.9201 14.2884 13.9082 14.3676 13.8784C14.4468 13.8487 14.5185 13.8019 14.5776 13.7415L14.892 13.3501C15 13.2304 15.1471 13.1527 15.3072 13.1309C15.4672 13.1091 15.6299 13.1446 15.7662 13.231L15.7634 13.2296C16.3314 13.5521 16.8227 13.9065 17.2706 14.3084L17.2629 14.3014C17.3765 14.3917 17.4521 14.5211 17.4749 14.6641C17.4977 14.8072 17.4659 14.9536 17.3859 15.0744L17.3873 15.0724L17.3887 15.0738Z" fill="white"/>
</svg>
