<svg width="26" height="26" viewBox="0 0 26 26" fill="none" xmlns="http://www.w3.org/2000/svg">
<path d="M1.31128 12.8875C1.31069 15.072 1.86382 17.205 2.91558 19.085L1.21069 25.5086L7.58101 23.785C9.34295 24.7748 11.3171 25.2935 13.3232 25.2936H13.3285C19.951 25.2936 25.3419 19.7325 25.3448 12.8972C25.346 9.58505 24.0972 6.47049 21.8283 4.12727C19.5597 1.78424 16.5426 0.493211 13.328 0.491699C6.70464 0.491699 1.31411 6.05247 1.31138 12.8875" fill="url(#paint0_linear_430_51)"/>
<path d="M0.882324 12.8833C0.881641 15.1465 1.45459 17.3557 2.54385 19.3031L0.777832 25.957L7.37656 24.1716C9.19473 25.1945 11.2418 25.7339 13.3248 25.7347H13.3302C20.1903 25.7347 25.7749 19.9736 25.7778 12.8936C25.779 9.46243 24.4853 6.23591 22.1353 3.80874C19.785 1.38187 16.66 0.0443796 13.3302 0.0429688C6.46885 0.0429688 0.885156 5.80328 0.882422 12.8833H0.882324ZM4.81201 18.9677L4.56562 18.5641C3.52988 16.8647 2.9832 14.9008 2.98398 12.8841C2.98623 6.99938 7.62725 2.21165 13.3341 2.21165C16.0978 2.21286 18.695 3.32461 20.6485 5.34173C22.602 7.35905 23.6769 10.0407 23.6762 12.8928C23.6736 18.7776 19.0325 23.5659 13.3302 23.5659H13.3261C11.4693 23.5649 9.64834 23.0504 8.06025 22.078L7.68232 21.8467L3.7665 22.9061L4.81201 18.9676V18.9677Z" fill="url(#paint1_linear_430_51)"/>
<path d="M10.219 7.51516C9.98599 6.98075 9.74077 6.96996 9.51919 6.96059C9.33774 6.95253 9.13032 6.95314 8.9231 6.95314C8.71567 6.95314 8.37866 7.03365 8.0938 7.35462C7.80864 7.6759 7.00513 8.45227 7.00513 10.0313C7.00513 11.6105 8.11968 13.1365 8.27505 13.3508C8.43062 13.5648 10.4267 16.9089 13.588 18.1954C16.2154 19.2645 16.75 19.0519 17.3203 18.9983C17.8906 18.9449 19.1605 18.2221 19.4196 17.4727C19.6789 16.7233 19.6789 16.0809 19.6011 15.9467C19.5234 15.813 19.316 15.7327 19.0049 15.5722C18.6938 15.4117 17.1647 14.6352 16.8796 14.5281C16.5945 14.4211 16.3872 14.3677 16.1797 14.689C15.9723 15.0099 15.3767 15.7327 15.1952 15.9467C15.0138 16.1613 14.8323 16.188 14.5213 16.0274C14.2101 15.8664 13.2084 15.5279 12.0201 14.4346C11.0955 13.5838 10.4712 12.5333 10.2898 12.2119C10.1083 11.891 10.2704 11.7171 10.4263 11.5572C10.5661 11.4133 10.7375 11.1824 10.8931 10.995C11.0482 10.8076 11.1 10.6739 11.2037 10.4598C11.3075 10.2456 11.2555 10.0581 11.1779 9.89759C11.1 9.73705 10.4956 8.14984 10.219 7.51526" fill="white"/>
<defs>
<linearGradient id="paint0_linear_430_51" x1="13.2777" y1="25.5086" x2="13.2777" y2="0.491699" gradientUnits="userSpaceOnUse">
<stop stop-color="#1FAF38"/>
<stop offset="1" stop-color="#60D669"/>
</linearGradient>
<linearGradient id="paint1_linear_430_51" x1="13.2778" y1="25.957" x2="13.2778" y2="0.0429688" gradientUnits="userSpaceOnUse">
<stop stop-color="#F9F9F9"/>
<stop offset="1" stop-color="white"/>
</linearGradient>
</defs>
</svg>
