<svg width="28" height="28" viewBox="0 0 28 28" fill="none" xmlns="http://www.w3.org/2000/svg">
<g clip-path="url(#clip0_458_58)">
<path d="M25.0832 4.6665H22.5554V6.22206H24.8887V23.3332H3.11093V6.22206H5.44426V4.6665H2.91649C2.73467 4.66954 2.55524 4.70837 2.38843 4.78077C2.22162 4.85316 2.07071 4.95771 1.94431 5.08844C1.81792 5.21917 1.71851 5.37352 1.65178 5.54267C1.58504 5.71182 1.55229 5.89247 1.55538 6.07428V23.4809C1.55229 23.6628 1.58504 23.8434 1.65178 24.0126C1.71851 24.1817 1.81792 24.3361 1.94431 24.4668C2.07071 24.5975 2.22162 24.7021 2.38843 24.7745C2.55524 24.8469 2.73467 24.8857 2.91649 24.8887H25.0832C25.265 24.8857 25.4444 24.8469 25.6112 24.7745C25.778 24.7021 25.9289 24.5975 26.0553 24.4668C26.1817 24.3361 26.2811 24.1817 26.3479 24.0126C26.4146 23.8434 26.4474 23.6628 26.4443 23.4809V6.07428C26.4474 5.89247 26.4146 5.71182 26.3479 5.54267C26.2811 5.37352 26.1817 5.21917 26.0553 5.08844C25.9289 4.95771 25.778 4.85316 25.6112 4.78077C25.4444 4.70837 25.265 4.66954 25.0832 4.6665Z" fill="#073465" fill-opacity="0.77"/>
<path d="M6.22217 10.8887H7.77772V12.4442H6.22217V10.8887Z" fill="#073465" fill-opacity="0.77"/>
<path d="M10.8887 10.8887H12.4442V12.4442H10.8887V10.8887Z" fill="#073465" fill-opacity="0.77"/>
<path d="M15.5557 10.8887H17.1112V12.4442H15.5557V10.8887Z" fill="#073465" fill-opacity="0.77"/>
<path d="M20.2222 10.8887H21.7777V12.4442H20.2222V10.8887Z" fill="#073465" fill-opacity="0.77"/>
<path d="M6.22217 14.7778H7.77772V16.3334H6.22217V14.7778Z" fill="#073465" fill-opacity="0.77"/>
<path d="M10.8887 14.7778H12.4442V16.3334H10.8887V14.7778Z" fill="#073465" fill-opacity="0.77"/>
<path d="M15.5557 14.7778H17.1112V16.3334H15.5557V14.7778Z" fill="#073465" fill-opacity="0.77"/>
<path d="M20.2222 14.7778H21.7777V16.3334H20.2222V14.7778Z" fill="#073465" fill-opacity="0.77"/>
<path d="M6.22217 18.6665H7.77772V20.2221H6.22217V18.6665Z" fill="#073465" fill-opacity="0.77"/>
<path d="M10.8887 18.6665H12.4442V20.2221H10.8887V18.6665Z" fill="#073465" fill-opacity="0.77"/>
<path d="M15.5557 18.6665H17.1112V20.2221H15.5557V18.6665Z" fill="#073465" fill-opacity="0.77"/>
<path d="M20.2222 18.6665H21.7777V20.2221H20.2222V18.6665Z" fill="#073465" fill-opacity="0.77"/>
<path d="M7.77778 7.77789C7.98406 7.77789 8.18189 7.69594 8.32775 7.55008C8.47361 7.40422 8.55556 7.20639 8.55556 7.00011V2.33344C8.55556 2.12716 8.47361 1.92933 8.32775 1.78347C8.18189 1.63761 7.98406 1.55566 7.77778 1.55566C7.5715 1.55566 7.37367 1.63761 7.22781 1.78347C7.08194 1.92933 7 2.12716 7 2.33344V7.00011C7 7.20639 7.08194 7.40422 7.22781 7.55008C7.37367 7.69594 7.5715 7.77789 7.77778 7.77789Z" fill="#073465" fill-opacity="0.77"/>
<path d="M20.2221 7.77789C20.4284 7.77789 20.6262 7.69594 20.7721 7.55008C20.9179 7.40422 20.9999 7.20639 20.9999 7.00011V2.33344C20.9999 2.12716 20.9179 1.92933 20.7721 1.78347C20.6262 1.63761 20.4284 1.55566 20.2221 1.55566C20.0158 1.55566 19.818 1.63761 19.6721 1.78347C19.5263 1.92933 19.4443 2.12716 19.4443 2.33344V7.00011C19.4443 7.20639 19.5263 7.40422 19.6721 7.55008C19.818 7.69594 20.0158 7.77789 20.2221 7.77789Z" fill="#073465" fill-opacity="0.77"/>
<path d="M10.1113 4.6665H17.8891V6.22206H10.1113V4.6665Z" fill="#073465" fill-opacity="0.77"/>
</g>
<defs>
<clipPath id="clip0_458_58">
<rect width="28" height="28" fill="white"/>
</clipPath>
</defs>
</svg>
