<svg width="20" height="20" viewBox="0 0 20 20" fill="none" xmlns="http://www.w3.org/2000/svg">
<path d="M9.15668 10.0109V4.78261C9.15668 4.6673 9.20058 4.55671 9.27871 4.47517C9.35685 4.39364 9.46283 4.34783 9.57333 4.34783C9.68383 4.34783 9.78981 4.39364 9.86795 4.47517C9.94608 4.55671 9.98998 4.6673 9.98998 4.78261V9.75L14.1148 12.2283C14.1621 12.2574 14.2035 12.296 14.2365 12.3419C14.2694 12.3877 14.2934 12.4399 14.3069 12.4955C14.3205 12.5511 14.3234 12.6089 14.3154 12.6656C14.3075 12.7224 14.2889 12.7769 14.2606 12.8261C14.2255 12.8919 14.1741 12.9467 14.1118 12.9849C14.0496 13.0232 13.9787 13.0434 13.9065 13.0435C13.834 13.042 13.7628 13.0235 13.6982 12.9891L9.365 10.3804H9.35459L9.31292 10.3478L9.29209 10.3261L9.26084 10.2935L9.22959 10.2609C9.22959 10.25 9.21918 10.2391 9.20876 10.2283C9.19834 10.2174 9.19835 10.2065 9.19835 10.1957L9.17751 10.1522C9.17751 10.1413 9.1671 10.1196 9.1671 10.1087V10.0761C9.15648 10.0563 9.15279 10.0332 9.15668 10.0109ZM19.9583 7.13044L19.9792 7.08696C19.9789 7.07176 19.9825 7.05677 19.9896 7.04348V7.01087C19.9896 6.97826 20 6.95652 20 6.92391V2.57609C20 2.46078 19.9561 2.35019 19.878 2.26865C19.7998 2.18712 19.6939 2.14131 19.5833 2.14131C19.4728 2.14131 19.3669 2.18712 19.2887 2.26865C19.2106 2.35019 19.1667 2.46078 19.1667 2.57609V5.88044L16.3543 2.92392C15.0136 1.52681 13.306 0.575815 11.4475 0.191114C9.58895 -0.193587 7.66284 0.0052749 5.91257 0.762568C4.16231 1.51986 2.66646 2.80159 1.61407 4.44578C0.561687 6.08996 0 8.02279 0 10C0 11.9772 0.561687 13.91 1.61407 15.5542C2.66646 17.1984 4.16231 18.4801 5.91257 19.2374C7.66284 19.9947 9.58895 20.1936 11.4475 19.8089C13.306 19.4242 15.0136 18.4732 16.3543 17.0761C16.429 16.9917 16.4704 16.8811 16.4704 16.7663C16.4704 16.6515 16.429 16.5409 16.3543 16.4565C16.3155 16.4154 16.2693 16.3828 16.2184 16.3605C16.1674 16.3383 16.1127 16.3268 16.0574 16.3268C16.0022 16.3268 15.9475 16.3383 15.8965 16.3605C15.8456 16.3828 15.7994 16.4154 15.7606 16.4565C14.5369 17.7333 12.9778 18.6028 11.2806 18.9551C9.58336 19.3073 7.82415 19.1264 6.22541 18.4353C4.62667 17.7442 3.26021 16.574 2.29883 15.0725C1.33744 13.571 0.824309 11.8058 0.824309 10C0.824309 8.19421 1.33744 6.42897 2.29883 4.9275C3.26021 3.42603 4.62667 2.25576 6.22541 1.56467C7.82415 0.873583 9.58336 0.692716 11.2806 1.04494C12.9778 1.39716 14.5369 2.26666 15.7606 3.54348L18.5834 6.48913H15.4273C15.3168 6.48913 15.2108 6.53494 15.1326 6.61648C15.0545 6.69801 15.0106 6.8086 15.0106 6.92391C15.0106 7.03923 15.0545 7.14981 15.1326 7.23135C15.2108 7.31289 15.3168 7.3587 15.4273 7.3587H19.75L19.7917 7.33696L19.8229 7.31522L19.8854 7.27174L19.9375 7.20652L19.9583 7.13044Z" fill="#073465" fill-opacity="0.77"/>
</svg>
