<svg width="76" height="76" viewBox="0 0 76 76" fill="none" xmlns="http://www.w3.org/2000/svg">
<path d="M65.4167 73.25V10.5833C65.4167 8.5058 64.5914 6.51336 63.1223 5.04433C61.6533 3.57529 59.6609 2.75 57.5833 2.75H18.4167C16.3391 2.75 14.3467 3.57529 12.8777 5.04433C11.4086 6.51336 10.5833 8.5058 10.5833 10.5833V73.25M65.4167 73.25H73.25M65.4167 73.25H45.8333M10.5833 73.25H2.75M10.5833 73.25H30.1667M26.25 18.4167H30.1667M26.25 34.0833H30.1667M45.8333 18.4167H49.75M45.8333 34.0833H49.75M30.1667 73.25V53.6667C30.1667 52.6279 30.5793 51.6317 31.3138 50.8972C32.0484 50.1626 33.0446 49.75 34.0833 49.75H41.9167C42.9554 49.75 43.9517 50.1626 44.6862 50.8972C45.4207 51.6317 45.8333 52.6279 45.8333 53.6667V73.25M30.1667 73.25H45.8333" stroke="black" stroke-width="5" stroke-linecap="round" stroke-linejoin="round"/>
</svg>
