<svg width="95" height="95" viewBox="0 0 95 95" fill="none" xmlns="http://www.w3.org/2000/svg">
<g clip-path="url(#clip0_412_1110)">
<path d="M81.8056 21.1113H60.6944V26.3891H81.8056V81.8058H60.6944V87.0835H87.0833V26.3891C87.0833 24.9894 86.5273 23.6469 85.5375 22.6572C84.5477 21.6674 83.2053 21.1113 81.8056 21.1113Z" fill="black"/>
<path d="M52.4611 7.9165H16.15C14.6663 7.9165 13.2433 8.50592 12.1941 9.55508C11.145 10.6042 10.5556 12.0272 10.5556 13.5109V87.0832H58.0556V13.5109C58.0556 12.0272 57.4661 10.6042 56.417 9.55508C55.3678 8.50592 53.9448 7.9165 52.4611 7.9165ZM52.7778 81.8054H44.8611V73.8887H23.75V81.8054H15.8333V13.5109C15.8333 13.4694 15.8415 13.4282 15.8574 13.3898C15.8734 13.3513 15.8967 13.3164 15.9261 13.287C15.9555 13.2576 15.9904 13.2343 16.0288 13.2184C16.0672 13.2025 16.1084 13.1943 16.15 13.1943H52.4611C52.5027 13.1943 52.5439 13.2025 52.5823 13.2184C52.6207 13.2343 52.6556 13.2576 52.685 13.287C52.7144 13.3164 52.7378 13.3513 52.7537 13.3898C52.7696 13.4282 52.7778 13.4694 52.7778 13.5109V81.8054Z" fill="black"/>
<path d="M21.1111 21.1113H26.3889V26.3891H21.1111V21.1113Z" fill="black"/>
<path d="M31.6667 21.1113H36.9444V26.3891H31.6667V21.1113Z" fill="black"/>
<path d="M42.2222 21.1113H47.5V26.3891H42.2222V21.1113Z" fill="black"/>
<path d="M21.1111 34.3057H26.3889V39.5834H21.1111V34.3057Z" fill="black"/>
<path d="M31.6667 34.3057H36.9444V39.5834H31.6667V34.3057Z" fill="black"/>
<path d="M42.2222 34.3057H47.5V39.5834H42.2222V34.3057Z" fill="black"/>
<path d="M21.1111 47.5H26.3889V52.7778H21.1111V47.5Z" fill="black"/>
<path d="M31.6667 47.5H36.9444V52.7778H31.6667V47.5Z" fill="black"/>
<path d="M42.2222 47.5H47.5V52.7778H42.2222V47.5Z" fill="black"/>
<path d="M21.1111 60.6943H26.3889V65.9721H21.1111V60.6943Z" fill="black"/>
<path d="M31.6667 60.6943H36.9444V65.9721H31.6667V60.6943Z" fill="black"/>
<path d="M42.2222 60.6943H47.5V65.9721H42.2222V60.6943Z" fill="black"/>
<path d="M60.6944 34.3057H65.9722V39.5834H60.6944V34.3057Z" fill="black"/>
<path d="M71.25 34.3057H76.5278V39.5834H71.25V34.3057Z" fill="black"/>
<path d="M60.6944 47.5H65.9722V52.7778H60.6944V47.5Z" fill="black"/>
<path d="M71.25 47.5H76.5278V52.7778H71.25V47.5Z" fill="black"/>
<path d="M60.6944 60.6943H65.9722V65.9721H60.6944V60.6943Z" fill="black"/>
<path d="M71.25 60.6943H76.5278V65.9721H71.25V60.6943Z" fill="black"/>
</g>
<defs>
<clipPath id="clip0_412_1110">
<rect width="95" height="95" fill="white"/>
</clipPath>
</defs>
</svg>
