<svg width="93" height="93" viewBox="0 0 93 93" fill="none" xmlns="http://www.w3.org/2000/svg">
<g clip-path="url(#clip0_412_1103)">
<path d="M68.5617 46.4999C68.5509 43.0262 68.1786 39.5631 67.4508 36.1666H76.7508C76.2719 34.7498 75.6935 33.3685 75.02 32.0332H66.3658C64.739 26.598 62.2156 21.4728 58.9 16.8691C56.7816 15.9783 54.5729 15.32 52.3125 14.9057C56.8549 19.7863 60.2835 25.5947 62.3617 31.9299H48.4375V14.4666H44.5625V31.9557H30.6383C32.7207 25.6091 36.1585 19.7913 40.7133 14.9057C38.4627 15.3131 36.2626 15.9627 34.1517 16.8432C30.8229 21.4277 28.2822 26.5352 26.6342 31.9557H17.9283C17.2426 33.3154 16.6556 34.7227 16.1717 36.1666H25.5492C24.8214 39.5631 24.4491 43.0262 24.4383 46.4999C24.4455 50.2994 24.8787 54.0861 25.73 57.7891H16.585C17.1194 59.2371 17.7583 60.6444 18.4967 61.9999H26.8408C28.4224 66.949 30.767 71.6208 33.79 75.8465C35.9548 76.775 38.2162 77.4595 40.5325 77.8874C36.3163 73.2884 33.0738 67.8843 31 61.9999H44.5883V78.3782H48.4633V61.9999H62C59.9192 67.8867 56.6677 73.2912 52.4417 77.8874C54.7688 77.4448 57.0391 76.7429 59.21 75.7949C62.2282 71.585 64.5727 66.931 66.1592 61.9999H74.4258C75.1608 60.6694 75.7996 59.2881 76.3375 57.8666H67.1667C68.0585 54.1423 68.5265 50.3292 68.5617 46.4999ZM44.5625 57.7891H29.7342C27.9154 50.6793 27.8357 43.2361 29.5017 36.0891H44.5625V57.7891ZM63.2658 57.7891H48.4375V36.1666H63.4983C64.2404 39.5604 64.6043 43.0259 64.5833 46.4999C64.6043 50.3025 64.1619 54.0935 63.2658 57.7891Z" fill="black"/>
<path d="M46.5 5.16675C38.325 5.16675 30.3337 7.59091 23.5364 12.1327C16.7392 16.6744 11.4414 23.1298 8.31298 30.6825C5.18456 38.2352 4.36602 46.5459 5.96088 54.5638C7.55573 62.5817 11.4924 69.9466 17.2729 75.7272C23.0535 81.5077 30.4184 85.4444 38.4363 87.0392C46.4542 88.6341 54.7649 87.8155 62.3176 84.6871C69.8703 81.5587 76.3256 76.2609 80.8674 69.4636C85.4092 62.6664 87.8333 54.675 87.8333 46.5001C87.8333 35.5378 83.4786 25.0245 75.7271 17.273C67.9756 9.5215 57.4623 5.16675 46.5 5.16675ZM46.5 82.6667C39.3469 82.6667 32.3545 80.5456 26.4069 76.5716C20.4593 72.5975 15.8237 66.9491 13.0864 60.3405C10.349 53.7319 9.63277 46.46 11.0283 39.4443C12.4238 32.4287 15.8683 25.9844 20.9263 20.9264C25.9843 15.8684 32.4286 12.4238 39.4442 11.0283C46.4599 9.63285 53.7318 10.3491 60.3404 13.0864C66.949 15.8238 72.5974 20.4594 76.5715 26.407C80.5455 32.3545 82.6667 39.347 82.6667 46.5001C82.6667 56.0921 78.8563 65.2912 72.0737 72.0738C65.2911 78.8563 56.092 82.6667 46.5 82.6667Z" fill="black"/>
</g>
<defs>
<clipPath id="clip0_412_1103">
<rect width="93" height="93" fill="white"/>
</clipPath>
</defs>
</svg>
