<svg width="85" height="82" viewBox="0 0 85 82" fill="none" xmlns="http://www.w3.org/2000/svg">
<g filter="url(#filter0_d_397_2490)">
<path d="M39.4063 37.0399V17.875C39.4063 17.4523 39.5742 17.0469 39.8731 16.7481C40.172 16.4492 40.5774 16.2813 41.0001 16.2813C41.4227 16.2813 41.8281 16.4492 42.127 16.7481C42.4259 17.0469 42.5938 17.4523 42.5938 17.875V36.0836L58.3719 45.168C58.553 45.2748 58.7111 45.4163 58.8372 45.5844C58.9633 45.7525 59.055 45.9439 59.1068 46.1476C59.1586 46.3513 59.1697 46.5632 59.1393 46.7712C59.1089 46.9792 59.0377 47.1791 58.9298 47.3594C58.7952 47.6006 58.5987 47.8017 58.3606 47.9417C58.1225 48.0818 57.8513 48.1558 57.5751 48.1563C57.2978 48.151 57.0253 48.0829 56.7782 47.957L40.2032 38.3945H40.1633L40.004 38.275L39.9243 38.1953L39.8047 38.0758L39.6852 37.9563C39.6852 37.9164 39.6454 37.8766 39.6055 37.8367C39.5657 37.7969 39.5657 37.757 39.5657 37.7172L39.486 37.5578C39.486 37.518 39.4462 37.4383 39.4462 37.3985V37.2789C39.4055 37.2063 39.3914 37.1218 39.4063 37.0399ZM80.7243 26.4813L80.804 26.3219C80.8031 26.2662 80.8168 26.2112 80.8438 26.1625V26.043C80.8438 25.9235 80.8837 25.8438 80.8837 25.7242V9.78674C80.8837 9.36405 80.7157 8.95867 80.4169 8.65978C80.118 8.3609 79.7126 8.19299 79.2899 8.19299C78.8672 8.19299 78.4618 8.3609 78.163 8.65978C77.8641 8.95867 77.6962 9.36405 77.6962 9.78674V21.8992L66.9383 11.0617C61.8098 5.94048 55.2782 2.45447 48.169 1.0443C41.0598 -0.365868 33.6921 0.363086 26.9971 3.13904C20.3021 5.91499 14.5802 10.6133 10.5547 16.6403C6.52915 22.6673 4.38062 29.7523 4.38062 37C4.38062 44.2477 6.52915 51.3328 10.5547 57.3597C14.5802 63.3867 20.3021 68.085 26.9971 70.861C33.6921 73.6369 41.0598 74.3659 48.169 72.9557C55.2782 71.5456 61.8098 68.0596 66.9383 62.9383C67.224 62.6291 67.3826 62.2237 67.3826 61.8028C67.3826 61.3818 67.224 60.9764 66.9383 60.6672C66.7901 60.5166 66.6133 60.397 66.4183 60.3154C66.2234 60.2338 66.0141 60.1917 65.8028 60.1917C65.5914 60.1917 65.3822 60.2338 65.1873 60.3154C64.9923 60.397 64.8155 60.5166 64.6672 60.6672C59.9864 65.3475 54.0229 68.5348 47.5307 69.8259C41.0384 71.1171 34.3092 70.4541 28.1937 67.9208C22.0783 65.3875 16.8514 61.0977 13.174 55.5939C9.49654 50.0901 7.53372 43.6194 7.53372 37C7.53372 30.3807 9.49654 23.91 13.174 18.4061C16.8514 12.9023 22.0783 8.61252 28.1937 6.07925C34.3092 3.54598 41.0384 2.88299 47.5307 4.17411C54.0229 5.46523 59.9864 8.65248 64.6672 13.3328L75.4649 24.1305H63.3922C62.9696 24.1305 62.5642 24.2984 62.2653 24.5973C61.9664 24.8962 61.7985 25.3015 61.7985 25.7242C61.7985 26.1469 61.9664 26.5523 62.2653 26.8512C62.5642 27.1501 62.9696 27.318 63.3922 27.318H79.9274L80.0868 27.2383L80.2063 27.1586L80.4454 26.9992L80.6446 26.7602L80.7243 26.4813Z" fill="#073465"/>
</g>
<defs>
<filter id="filter0_d_397_2490" x="0.380615" y="0.34375" width="84.5031" height="81.3125" filterUnits="userSpaceOnUse" color-interpolation-filters="sRGB">
<feFlood flood-opacity="0" result="BackgroundImageFix"/>
<feColorMatrix in="SourceAlpha" type="matrix" values="0 0 0 0 0 0 0 0 0 0 0 0 0 0 0 0 0 0 127 0" result="hardAlpha"/>
<feOffset dy="4"/>
<feGaussianBlur stdDeviation="2"/>
<feComposite in2="hardAlpha" operator="out"/>
<feColorMatrix type="matrix" values="0 0 0 0 0 0 0 0 0 0 0 0 0 0 0 0 0 0 0.25 0"/>
<feBlend mode="normal" in2="BackgroundImageFix" result="effect1_dropShadow_397_2490"/>
<feBlend mode="normal" in="SourceGraphic" in2="effect1_dropShadow_397_2490" result="shape"/>
</filter>
</defs>
</svg>
