<svg width="86" height="87" viewBox="0 0 86 87" fill="none" xmlns="http://www.w3.org/2000/svg">
<g filter="url(#filter0_d_397_2482)">
<path d="M43.25 43.9168C45.5684 43.9167 47.834 44.6173 49.7555 45.9285C51.677 47.2398 53.1667 49.1018 54.0332 51.2754C54.8997 53.4489 55.1034 55.8347 54.6181 58.1261C54.1329 60.4176 51.75 63.7801 49.25 66.2797C46.75 68.7793 37.75 73.355 37.75 73.355H54.875V76.8926H31.625V73.9263L47.25 63.7528C47.7118 63.3042 50.0535 60.1997 50.25 59.5835C50.4465 58.9674 50.8656 56.3036 50.75 55.6668C50.6344 55.0301 50.7609 53.6453 49.7555 51.6238C49.0453 50.196 46.8393 48.8452 46.25 48.5916C45.0646 47.5808 42.3878 48.0275 41.75 48.0862C41.1122 48.1448 38.7843 49.2453 38.25 49.6023C37.25 50.6131 36.5534 51.559 36.25 52.1292C35.9467 52.6993 34.75 55.0195 34.75 55.6668L31.625 55.6668C31.625 52.5506 32.8498 49.5619 35.0299 47.3583C37.21 45.1548 40.1669 43.9168 43.25 43.9168ZM62.5 43.9168V62.2367H78.5V43.9168H82V79.1668H78.25V65.7744H58.75V43.9168H62.5ZM7.25001 40.0002C7.24523 44.6986 8.73745 50.9263 10.75 55.1615C12.7626 59.3966 15.25 65.1454 22.25 69.312L23.0625 71.1138L23.875 73.9263C17.982 70.4897 13.0885 65.5446 9.68724 59.5889C6.28596 53.6332 4.49686 46.8769 4.50001 40.0002H7.25001ZM43.25 0.833513C63.3419 0.833513 79.8649 16.2926 81.8063 36.0835H78.75C77.995 30.0324 73.6614 20.3863 69.75 15.7421C65.8386 11.0979 58.5394 6.84856 52.75 5.1292C46.9606 3.40983 38.0253 3.86717 32.25 5.63457C26.4748 7.40197 20.6235 12.0763 16.75 16.7529L22.25 22.8174L4.50001 28.2502L7.75001 8.66683L13.9821 14.3303C17.6164 10.0893 22.1115 6.6888 27.1617 4.35989C32.2119 2.03099 37.699 0.828281 43.25 0.833513Z" fill="#073465"/>
</g>
<defs>
<filter id="filter0_d_397_2482" x="0.5" y="0.833496" width="85.5" height="86.3335" filterUnits="userSpaceOnUse" color-interpolation-filters="sRGB">
<feFlood flood-opacity="0" result="BackgroundImageFix"/>
<feColorMatrix in="SourceAlpha" type="matrix" values="0 0 0 0 0 0 0 0 0 0 0 0 0 0 0 0 0 0 127 0" result="hardAlpha"/>
<feOffset dy="4"/>
<feGaussianBlur stdDeviation="2"/>
<feComposite in2="hardAlpha" operator="out"/>
<feColorMatrix type="matrix" values="0 0 0 0 0 0 0 0 0 0 0 0 0 0 0 0 0 0 0.25 0"/>
<feBlend mode="normal" in2="BackgroundImageFix" result="effect1_dropShadow_397_2482"/>
<feBlend mode="normal" in="SourceGraphic" in2="effect1_dropShadow_397_2482" result="shape"/>
</filter>
</defs>
</svg>
