<svg width="85" height="93" viewBox="0 0 85 93" fill="none" xmlns="http://www.w3.org/2000/svg">
<g filter="url(#filter0_d_397_2497)">
<path d="M31.1039 67.0863C29.1006 73.638 24.3476 78.4225 17.3163 81.0087C14.1073 82.1762 10.7582 82.8153 7.37832 82.9052C6.96161 82.9052 6.56196 82.7236 6.2673 82.4003C5.97264 82.0769 5.8071 81.6384 5.8071 81.1811C5.88903 77.4723 6.47147 73.7973 7.53545 70.2759C9.89229 62.5604 14.2525 57.3449 20.2231 55.1466C20.619 55.0112 21.0476 55.053 21.4155 55.263C21.7834 55.4729 22.0608 55.8339 22.1872 56.2673C22.2545 56.4794 22.2825 56.7042 22.2694 56.9283C22.2563 57.1525 22.2023 57.3715 22.1108 57.5724C22.0192 57.7733 21.8919 57.952 21.7364 58.098C21.5808 58.244 21.4002 58.3544 21.2051 58.4225C11.4242 62.0001 9.4602 74.5863 9.02812 79.3708C13.3883 78.8966 24.8583 76.7414 28.1186 66.0087C28.1806 65.7946 28.2812 65.5964 28.4142 65.4257C28.5473 65.2551 28.7102 65.1154 28.8933 65.0149C29.0763 64.9145 29.2759 64.8553 29.4802 64.8409C29.6845 64.8265 29.8893 64.8572 30.0826 64.9311C30.4775 65.0697 30.8065 65.3741 30.9978 65.7778C31.1892 66.1815 31.2273 66.6519 31.1039 67.0863ZM70.6989 33.638L66.7315 37.9914V65.1466C66.7285 66.5057 66.234 67.8079 65.3567 68.7673L52.6297 82.7328C52.1922 83.2147 51.6716 83.5962 51.0984 83.8552C50.5252 84.1142 49.9108 84.2455 49.2909 84.2414C48.8264 84.2301 48.3648 84.1578 47.916 84.0259C47.1055 83.754 46.3776 83.2453 45.8103 82.5544C45.2429 81.8635 44.8574 81.0163 44.695 80.1035L41.474 62.5173L24.3869 43.7673L8.39962 40.2328C7.56062 40.0618 6.78031 39.642 6.14326 39.0189C5.50622 38.3959 5.03677 37.5933 4.7858 36.6983C4.53571 35.8 4.51327 34.8439 4.72088 33.9327C4.92849 33.0214 5.35831 32.1894 5.96422 31.5259L18.6912 17.5604C19.5655 16.5977 20.7522 16.0551 21.9908 16.0518H46.7376L50.705 11.6983C61.4286 -0.0689014 72.3487 0.232823 76.5517 0.922478C77.5484 1.09231 78.47 1.60567 79.1832 2.3883C79.8964 3.17093 80.3643 4.18223 80.519 5.27593C81.1475 9.888 81.4225 21.8708 70.6989 33.638ZM8.98883 36.8708L24.6226 40.319L43.5952 19.5001H21.9908C21.7852 19.5009 21.5819 19.5471 21.3929 19.636C21.2039 19.7248 21.0332 19.8545 20.8909 20.0173L8.20322 33.9397C8.0095 34.1643 7.87289 34.4408 7.80702 34.7414C7.74115 35.0421 7.74833 35.3565 7.82785 35.6532C7.90736 35.9498 8.05644 36.2184 8.26017 36.4321C8.4639 36.6457 8.71515 36.797 8.98883 36.8708ZM63.5891 41.4397L44.6165 62.2587L47.7589 79.4139C47.8261 79.7142 47.964 79.9899 48.1587 80.2134C48.3534 80.437 48.5982 80.6006 48.8685 80.6878C49.1389 80.7751 49.4254 80.783 49.6994 80.7107C49.9734 80.6384 50.2253 80.4885 50.43 80.2759L63.1177 66.3535C63.266 66.1973 63.3842 66.01 63.4652 65.8027C63.5462 65.5953 63.5883 65.3722 63.5891 65.1466V41.4397ZM68.4991 31.1811C78.2015 20.5345 77.9658 9.88799 77.3766 5.79317C77.3355 5.43165 77.1857 5.09549 76.9509 4.83788C76.7161 4.58026 76.4098 4.41588 76.0803 4.37075C72.3486 3.7242 62.6463 3.46558 52.944 14.1121L48.466 19.0259L27.3722 42.1725L42.9274 59.2414L64.0211 36.0949L68.4991 31.1811Z" fill="#073465"/>
</g>
<defs>
<filter id="filter0_d_397_2497" x="0.580139" y="0.647461" width="84.1895" height="91.5942" filterUnits="userSpaceOnUse" color-interpolation-filters="sRGB">
<feFlood flood-opacity="0" result="BackgroundImageFix"/>
<feColorMatrix in="SourceAlpha" type="matrix" values="0 0 0 0 0 0 0 0 0 0 0 0 0 0 0 0 0 0 127 0" result="hardAlpha"/>
<feOffset dy="4"/>
<feGaussianBlur stdDeviation="2"/>
<feComposite in2="hardAlpha" operator="out"/>
<feColorMatrix type="matrix" values="0 0 0 0 0 0 0 0 0 0 0 0 0 0 0 0 0 0 0.25 0"/>
<feBlend mode="normal" in2="BackgroundImageFix" result="effect1_dropShadow_397_2497"/>
<feBlend mode="normal" in="SourceGraphic" in2="effect1_dropShadow_397_2497" result="shape"/>
</filter>
</defs>
</svg>
