<svg width="88" height="88" viewBox="0 0 88 88" fill="none" xmlns="http://www.w3.org/2000/svg">
<g filter="url(#filter0_d_397_2475)">
<path d="M62.6867 29.3219C62.976 29.6316 63.1336 30.0417 63.1261 30.4655C63.1187 30.8892 62.9469 31.2935 62.6469 31.593L39.2586 53.9055C38.9516 54.1811 38.5555 54.3368 38.143 54.3438C37.7412 54.3422 37.3557 54.1851 37.0672 53.9055L25.3531 42.7492C25.2014 42.6027 25.08 42.4278 24.9959 42.2343C24.9118 42.0409 24.8666 41.8328 24.8629 41.6219C24.8592 41.411 24.897 41.2015 24.9743 41.0052C25.0516 40.809 25.1668 40.6299 25.3133 40.4781C25.4598 40.3264 25.6348 40.205 25.8282 40.1209C26.0216 40.0367 26.2297 39.9915 26.4406 39.9878C26.6515 39.9841 26.861 40.022 27.0573 40.0993C27.2535 40.1766 27.4327 40.2918 27.5844 40.4383L38.143 50.5586L60.4156 29.282C60.7254 28.9928 61.1355 28.8352 61.5592 28.8426C61.983 28.8501 62.3873 29.0219 62.6867 29.3219ZM83.8438 40C83.8438 47.8803 81.507 55.5837 77.1289 62.136C72.7508 68.6883 66.5281 73.7951 59.2476 76.8108C51.9671 79.8265 43.9558 80.6155 36.2269 79.0782C28.498 77.5408 21.3985 73.746 15.8262 68.1738C10.254 62.6015 6.45923 55.5021 4.92185 47.7731C3.38447 40.0442 4.17351 32.033 7.18919 24.7525C10.2049 17.472 15.3117 11.2492 21.864 6.87113C28.4163 2.49305 36.1197 0.15625 44 0.15625C54.5608 0.177308 64.6829 4.38188 72.1505 11.8495C79.6181 19.3171 83.8227 29.4393 83.8438 40ZM80.6563 40C80.6563 32.7501 78.5064 25.663 74.4786 19.6349C70.4507 13.6068 64.7258 8.90847 58.0278 6.13404C51.3297 3.35962 43.9594 2.6337 36.8487 4.04809C29.7381 5.46248 23.2066 8.95365 18.0801 14.0801C12.9537 19.2066 9.4625 25.7381 8.04811 32.8487C6.63372 39.9593 7.35963 47.3297 10.1341 54.0277C12.9085 60.7258 17.6068 66.4507 23.6349 70.4786C29.663 74.5064 36.7501 76.6562 44 76.6562C53.7186 76.6457 63.0362 72.7803 69.9082 65.9082C76.7803 59.0361 80.6457 49.7186 80.6563 40Z" fill="#073465"/>
</g>
<defs>
<filter id="filter0_d_397_2475" x="0.15625" y="0.15625" width="87.6875" height="87.6875" filterUnits="userSpaceOnUse" color-interpolation-filters="sRGB">
<feFlood flood-opacity="0" result="BackgroundImageFix"/>
<feColorMatrix in="SourceAlpha" type="matrix" values="0 0 0 0 0 0 0 0 0 0 0 0 0 0 0 0 0 0 127 0" result="hardAlpha"/>
<feOffset dy="4"/>
<feGaussianBlur stdDeviation="2"/>
<feComposite in2="hardAlpha" operator="out"/>
<feColorMatrix type="matrix" values="0 0 0 0 0 0 0 0 0 0 0 0 0 0 0 0 0 0 0.25 0"/>
<feBlend mode="normal" in2="BackgroundImageFix" result="effect1_dropShadow_397_2475"/>
<feBlend mode="normal" in="SourceGraphic" in2="effect1_dropShadow_397_2475" result="shape"/>
</filter>
</defs>
</svg>
