<svg width="92" height="92" viewBox="0 0 92 92" fill="none" xmlns="http://www.w3.org/2000/svg">
<g filter="url(#filter0_d_397_2858)">
<path d="M46 0.59375C37.8106 0.59375 29.8052 3.02218 22.9959 7.57196C16.1867 12.1217 10.8796 18.5885 7.74563 26.1545C4.61169 33.7205 3.79171 42.0459 5.38938 50.078C6.98705 58.11 10.9306 65.4879 16.7214 71.2786C22.5121 77.0694 29.89 81.013 37.9221 82.6106C45.9541 84.2083 54.2795 83.3883 61.8455 80.2544C69.4115 77.1204 75.8783 71.8133 80.428 65.0041C84.9778 58.1949 87.4063 50.1894 87.4063 42C87.3844 31.0251 83.0149 20.506 75.2545 12.7455C67.494 4.98509 56.9749 0.615634 46 0.59375ZM46 80.0937C38.4658 80.0937 31.1007 77.8596 24.8363 73.6738C18.5718 69.488 13.6892 63.5386 10.806 56.5778C7.92276 49.6171 7.16837 41.9577 8.63823 34.5683C10.1081 27.1788 13.7362 20.3912 19.0637 15.0636C24.3912 9.73614 31.1788 6.10807 38.5683 4.63821C45.9578 3.16835 53.6171 3.92274 60.5779 6.80596C67.5386 9.68919 73.488 14.5718 77.6738 20.8362C81.8596 27.1007 84.0938 34.4658 84.0938 42C84.0828 52.0997 80.0658 61.7826 72.9243 68.9242C65.7827 76.0658 56.0997 80.0828 46 80.0937ZM60.9063 50.2812C60.8954 52.9135 59.8449 55.4348 57.9836 57.2961C56.1223 59.1574 53.601 60.2078 50.9688 60.2187H47.6563V65.1875C47.6563 65.6268 47.4818 66.048 47.1712 66.3586C46.8606 66.6693 46.4393 66.8437 46 66.8437C45.5608 66.8437 45.1395 66.6693 44.8289 66.3586C44.5183 66.048 44.3438 65.6268 44.3438 65.1875V60.2187H36.0625C35.6233 60.2187 35.202 60.0443 34.8914 59.7336C34.5808 59.423 34.4063 59.0018 34.4063 58.5625C34.4063 58.1232 34.5808 57.702 34.8914 57.3913C35.202 57.0807 35.6233 56.9062 36.0625 56.9062H50.9688C52.7258 56.9062 54.4109 56.2083 55.6533 54.9658C56.8958 53.7234 57.5938 52.0383 57.5938 50.2812C57.5938 48.5242 56.8958 46.8391 55.6533 45.5967C54.4109 44.3542 52.7258 43.6562 50.9688 43.6562H41.0313C38.3957 43.6562 35.868 42.6093 34.0044 40.7456C32.1407 38.882 31.0938 36.3543 31.0938 33.7187C31.0938 31.0832 32.1407 28.5555 34.0044 26.6919C35.868 24.8282 38.3957 23.7812 41.0313 23.7812H44.3438V18.8125C44.3438 18.3732 44.5183 17.952 44.8289 17.6414C45.1395 17.3307 45.5608 17.1562 46 17.1562C46.4393 17.1562 46.8606 17.3307 47.1712 17.6414C47.4818 17.952 47.6563 18.3732 47.6563 18.8125V23.7812H55.9375C56.3768 23.7812 56.7981 23.9557 57.1087 24.2664C57.4193 24.577 57.5938 24.9982 57.5938 25.4375C57.5938 25.8768 57.4193 26.298 57.1087 26.6086C56.7981 26.9193 56.3768 27.0937 55.9375 27.0937H41.0313C39.2742 27.0937 37.5891 27.7917 36.3467 29.0342C35.1043 30.2766 34.4063 31.9617 34.4063 33.7187C34.4063 35.4758 35.1043 37.1609 36.3467 38.4033C37.5891 39.6458 39.2742 40.3437 41.0313 40.3437H50.9688C53.601 40.3546 56.1223 41.4051 57.9836 43.2664C59.8449 45.1277 60.8954 47.649 60.9063 50.2812Z" fill="#073465"/>
</g>
<defs>
<filter id="filter0_d_397_2858" x="0.59375" y="0.59375" width="90.8125" height="90.8125" filterUnits="userSpaceOnUse" color-interpolation-filters="sRGB">
<feFlood flood-opacity="0" result="BackgroundImageFix"/>
<feColorMatrix in="SourceAlpha" type="matrix" values="0 0 0 0 0 0 0 0 0 0 0 0 0 0 0 0 0 0 127 0" result="hardAlpha"/>
<feOffset dy="4"/>
<feGaussianBlur stdDeviation="2"/>
<feComposite in2="hardAlpha" operator="out"/>
<feColorMatrix type="matrix" values="0 0 0 0 0 0 0 0 0 0 0 0 0 0 0 0 0 0 0.25 0"/>
<feBlend mode="normal" in2="BackgroundImageFix" result="effect1_dropShadow_397_2858"/>
<feBlend mode="normal" in="SourceGraphic" in2="effect1_dropShadow_397_2858" result="shape"/>
</filter>
</defs>
</svg>
