<svg width="88" height="88" viewBox="0 0 88 88" fill="none" xmlns="http://www.w3.org/2000/svg">
<g filter="url(#filter0_d_397_2848)">
<path d="M77.9735 3.72321C78.1289 3.56712 78.2445 3.37596 78.3107 3.16584C78.3768 2.95573 78.3915 2.7328 78.3535 2.51582C78.3155 2.29884 78.2259 2.09417 78.0923 1.91904C77.9587 1.74391 77.7849 1.60344 77.5857 1.50946C74.5128 0.0582899 71.066 -0.405953 67.7187 0.180493C64.3714 0.766939 61.2877 2.37531 58.8912 4.78471C54.2217 9.48446 52.591 16.8655 54.769 23.0365L23.0367 54.7687C21.2738 54.1473 19.4169 53.8347 17.5477 53.8447C12.8342 53.8447 8.26372 55.7202 5.01047 58.9927C2.62241 61.3705 1.00834 64.4142 0.379736 67.7251C-0.248865 71.0359 0.13733 74.4594 1.48772 77.547C1.57623 77.7537 1.71428 77.9354 1.88966 78.0761C2.06505 78.2168 2.27239 78.3121 2.49336 78.3537C2.71433 78.3953 2.94214 78.3819 3.15668 78.3145C3.37121 78.2472 3.56587 78.1281 3.72347 77.9677L13.3237 68.318C13.9562 67.68 14.9765 67.5947 15.5045 68.131L19.6487 72.4677C20.251 73.0755 20.2235 74.0132 19.5882 74.654L10.0237 84.279C9.86828 84.4348 9.7526 84.6257 9.68645 84.8357C9.62029 85.0456 9.60561 85.2683 9.64363 85.4851C9.68165 85.7019 9.77126 85.9064 9.90489 86.0813C10.0385 86.2562 10.2123 86.3963 10.4115 86.49C12.6369 87.5517 15.071 88.1041 17.5367 88.107C21.8597 88.107 25.9655 86.369 29.106 83.212C33.7755 78.515 35.4062 71.134 33.2255 64.963L64.9577 33.228C66.7216 33.8492 68.5794 34.1618 70.4495 34.152C75.163 34.152 79.7335 32.2765 82.9867 29.004C85.3748 26.6262 86.9888 23.5824 87.6174 20.2716C88.246 16.9608 87.8599 13.5373 86.5095 10.4497C86.421 10.243 86.2829 10.0613 86.1075 9.92059C85.9321 9.77989 85.7248 9.68454 85.5038 9.64295C85.2829 9.60137 85.055 9.61483 84.8405 9.68215C84.626 9.74948 84.4313 9.86858 84.2737 10.029L74.6735 19.6787C74.3768 19.9654 73.979 20.1234 73.5664 20.1183C73.1539 20.1131 72.7601 19.9453 72.4707 19.6512L68.3485 15.529C68.2014 15.3878 68.0843 15.2184 68.0043 15.0309C67.9242 14.8434 67.8828 14.6417 67.8826 14.4378C67.8823 14.2339 67.9232 14.0321 68.0028 13.8444C68.0824 13.6567 68.199 13.487 68.3457 13.3455L77.9735 3.72321V3.72321ZM66.4015 17.4732L70.5237 21.5955C72.171 23.251 74.9925 23.2592 76.6232 21.6202L84.6807 13.5242C85.319 15.9029 85.3184 18.4079 84.6792 20.7864C84.0399 23.1648 82.7845 25.3325 81.0397 27.0707C78.298 29.829 74.4425 31.4075 70.4522 31.4075C68.574 31.4075 66.7947 31.0555 65.164 30.3625C64.9119 30.2551 64.6335 30.2255 64.3645 30.2775C64.0955 30.3294 63.8482 30.4605 63.6542 30.654L30.6542 63.654C30.4611 63.847 30.3299 64.0932 30.2775 64.3612C30.2251 64.6292 30.2538 64.9067 30.36 65.1582C32.5682 70.4107 31.2235 77.1895 27.1617 81.276C25.4116 83.0512 23.2081 84.3124 20.791 84.9224C18.3739 85.5323 15.8359 85.4677 13.453 84.7355L21.5407 76.5955C23.2485 74.8767 23.276 72.212 21.6205 70.551L17.479 66.2142C15.8812 64.6055 13.0405 64.7045 11.3795 66.3847L3.32197 74.4807C2.68372 72.102 2.68426 69.597 3.32353 67.2186C3.9628 64.8401 5.21818 62.6724 6.96297 60.9342C9.70472 58.176 13.5602 56.5975 17.5505 56.5975C19.4287 56.5975 21.208 56.9495 22.8387 57.6425C23.0906 57.7506 23.3692 57.7806 23.6384 57.7286C23.9075 57.6766 24.1549 57.5451 24.3485 57.351L57.3485 24.351C57.5416 24.158 57.6728 23.9117 57.7252 23.6438C57.7776 23.3758 57.7489 23.0983 57.6427 22.8467C55.4345 17.5942 56.7792 10.8127 60.841 6.72621C62.5905 4.95273 64.7926 3.69259 67.208 3.08268C69.6234 2.47278 72.1597 2.53642 74.5415 3.26671L66.4015 11.4095C65.9989 11.8052 65.6793 12.277 65.461 12.7976C65.2428 13.3181 65.1304 13.8769 65.1304 14.4413C65.1304 15.0058 65.2428 15.5646 65.461 16.0851C65.6793 16.6056 65.9989 17.0775 66.4015 17.4732V17.4732Z" fill="#073465"/>
<path d="M80.3275 84.2793C80.0217 84.5735 79.6136 84.7373 79.1892 84.7363C78.7649 84.7353 78.3576 84.5695 78.0532 84.2738L50.4707 56.7739C50.2079 56.5388 49.8649 56.4135 49.5125 56.4237C49.16 56.4339 48.8249 56.5788 48.5761 56.8287C48.3272 57.0786 48.1837 57.4143 48.175 57.7668C48.1663 58.1193 48.2931 58.4618 48.5292 58.7236L76.109 86.2181C76.934 87.0458 78.0285 87.5023 79.1945 87.5023C80.3605 87.5023 81.455 87.0458 82.2965 86.1988L86.2262 82.0931C86.628 81.6966 86.9469 81.2242 87.1645 80.7034C87.3821 80.1826 87.4941 79.6237 87.4938 79.0593C87.4936 78.4948 87.3811 77.936 87.163 77.4154C86.945 76.8948 86.6256 76.4227 86.2235 76.0266L58.7235 48.5266C58.4642 48.2761 58.1168 48.1375 57.7563 48.1407C57.3958 48.1438 57.0509 48.2884 56.796 48.5433C56.541 48.7983 56.3964 49.1432 56.3933 49.5037C56.3902 49.8642 56.5288 50.2115 56.7792 50.4709L84.2765 77.9681C84.9062 78.6006 84.9062 79.5191 84.2572 80.1736L80.3275 84.2793V84.2793ZM16.0985 8.6516L7.84848 0.401605C7.59063 0.143832 7.24095 -0.000976562 6.87635 -0.000976562C6.51175 -0.000976562 6.16208 0.143832 5.90423 0.401605L0.404229 5.9016C0.146457 6.15945 0.00164795 6.50913 0.00164795 6.87373C0.00164795 7.23833 0.146457 7.588 0.404229 7.84585L8.65423 16.0959C8.91243 16.3527 9.26163 16.497 9.62579 16.4975C9.98995 16.4981 10.3396 16.3547 10.5985 16.0986L12.375 14.3194L33.4015 35.3459C33.5281 35.4773 33.6797 35.5823 33.8474 35.6546C34.015 35.7269 34.1954 35.7651 34.3779 35.7669C34.5605 35.7687 34.7416 35.7342 34.9107 35.6653C35.0798 35.5964 35.2334 35.4945 35.3627 35.3656C35.492 35.2367 35.5943 35.0833 35.6637 34.9144C35.733 34.7456 35.7681 34.5646 35.7668 34.382C35.7654 34.1994 35.7278 34.019 35.656 33.8511C35.5841 33.6833 35.4796 33.5314 35.3485 33.4044L14.3192 12.3751L16.0957 10.5986C16.224 10.4711 16.3258 10.3195 16.3953 10.1525C16.4649 9.98557 16.5008 9.80653 16.5011 9.62567C16.5013 9.44481 16.4659 9.26568 16.3968 9.09853C16.3277 8.93139 16.2263 8.77951 16.0985 8.6516V8.6516ZM9.62498 13.1809L3.31923 6.8751L6.87498 3.31935L13.1807 9.6251L9.62498 13.1809Z" fill="#073465"/>
</g>
<defs>
<filter id="filter0_d_397_2848" x="-3.99835" y="-0.0664062" width="95.9094" height="96.1733" filterUnits="userSpaceOnUse" color-interpolation-filters="sRGB">
<feFlood flood-opacity="0" result="BackgroundImageFix"/>
<feColorMatrix in="SourceAlpha" type="matrix" values="0 0 0 0 0 0 0 0 0 0 0 0 0 0 0 0 0 0 127 0" result="hardAlpha"/>
<feOffset dy="4"/>
<feGaussianBlur stdDeviation="2"/>
<feComposite in2="hardAlpha" operator="out"/>
<feColorMatrix type="matrix" values="0 0 0 0 0 0 0 0 0 0 0 0 0 0 0 0 0 0 0.25 0"/>
<feBlend mode="normal" in2="BackgroundImageFix" result="effect1_dropShadow_397_2848"/>
<feBlend mode="normal" in="SourceGraphic" in2="effect1_dropShadow_397_2848" result="shape"/>
</filter>
</defs>
</svg>
